%TF.GenerationSoftware,KiCad,Pcbnew,(6.0.0)*%
%TF.CreationDate,2022-03-08T04:10:16+02:00*%
%TF.ProjectId,Alice_PCB,416c6963-655f-4504-9342-2e6b69636164,rev?*%
%TF.SameCoordinates,Original*%
%TF.FileFunction,Legend,Bot*%
%TF.FilePolarity,Positive*%
%FSLAX46Y46*%
G04 Gerber Fmt 4.6, Leading zero omitted, Abs format (unit mm)*
G04 Created by KiCad (PCBNEW (6.0.0)) date 2022-03-08 04:10:16*
%MOMM*%
%LPD*%
G01*
G04 APERTURE LIST*
G04 Aperture macros list*
%AMRoundRect*
0 Rectangle with rounded corners*
0 $1 Rounding radius*
0 $2 $3 $4 $5 $6 $7 $8 $9 X,Y pos of 4 corners*
0 Add a 4 corners polygon primitive as box body*
4,1,4,$2,$3,$4,$5,$6,$7,$8,$9,$2,$3,0*
0 Add four circle primitives for the rounded corners*
1,1,$1+$1,$2,$3*
1,1,$1+$1,$4,$5*
1,1,$1+$1,$6,$7*
1,1,$1+$1,$8,$9*
0 Add four rect primitives between the rounded corners*
20,1,$1+$1,$2,$3,$4,$5,0*
20,1,$1+$1,$4,$5,$6,$7,0*
20,1,$1+$1,$6,$7,$8,$9,0*
20,1,$1+$1,$8,$9,$2,$3,0*%
%AMRotRect*
0 Rectangle, with rotation*
0 The origin of the aperture is its center*
0 $1 length*
0 $2 width*
0 $3 Rotation angle, in degrees counterclockwise*
0 Add horizontal line*
21,1,$1,$2,0,0,$3*%
G04 Aperture macros list end*
%ADD10C,0.300000*%
%ADD11C,0.150000*%
%ADD12C,0.120000*%
%ADD13C,0.203200*%
%ADD14O,1.905000X2.159000*%
%ADD15R,1.905000X2.159000*%
%ADD16C,1.750000*%
%ADD17C,3.987800*%
%ADD18C,3.048000*%
%ADD19C,2.250000*%
%ADD20RoundRect,0.140000X-0.140000X-0.170000X0.140000X-0.170000X0.140000X0.170000X-0.140000X0.170000X0*%
%ADD21RoundRect,0.150000X0.587500X0.150000X-0.587500X0.150000X-0.587500X-0.150000X0.587500X-0.150000X0*%
%ADD22R,1.200000X0.900000*%
%ADD23RotRect,0.900000X1.200000X102.000000*%
%ADD24RotRect,0.900000X1.200000X78.000000*%
%ADD25RoundRect,0.135000X0.135000X0.185000X-0.135000X0.185000X-0.135000X-0.185000X0.135000X-0.185000X0*%
%ADD26R,1.700000X1.000000*%
%ADD27RoundRect,0.075000X0.075000X-0.662500X0.075000X0.662500X-0.075000X0.662500X-0.075000X-0.662500X0*%
%ADD28RoundRect,0.075000X0.662500X-0.075000X0.662500X0.075000X-0.662500X0.075000X-0.662500X-0.075000X0*%
%ADD29RoundRect,0.135000X-0.185000X0.135000X-0.185000X-0.135000X0.185000X-0.135000X0.185000X0.135000X0*%
%ADD30R,1.000000X0.800000*%
%ADD31C,0.900000*%
%ADD32R,0.700000X1.500000*%
%ADD33RoundRect,0.140000X0.170000X-0.140000X0.170000X0.140000X-0.170000X0.140000X-0.170000X-0.140000X0*%
%ADD34R,0.900000X1.200000*%
%ADD35RoundRect,0.243750X-0.456250X0.243750X-0.456250X-0.243750X0.456250X-0.243750X0.456250X0.243750X0*%
%ADD36RoundRect,0.140000X0.140000X0.170000X-0.140000X0.170000X-0.140000X-0.170000X0.140000X-0.170000X0*%
%ADD37RoundRect,0.135000X0.185000X-0.135000X0.185000X0.135000X-0.185000X0.135000X-0.185000X-0.135000X0*%
%ADD38C,0.750000*%
%ADD39RoundRect,0.050000X-0.300000X-0.725000X0.300000X-0.725000X0.300000X0.725000X-0.300000X0.725000X0*%
%ADD40RoundRect,0.050000X-0.150000X-0.725000X0.150000X-0.725000X0.150000X0.725000X-0.150000X0.725000X0*%
%ADD41O,1.100000X1.700000*%
%ADD42O,1.100000X2.200000*%
%ADD43R,0.700000X1.000000*%
%ADD44R,0.700000X0.600000*%
%ADD45R,1.700000X1.700000*%
%ADD46O,1.700000X1.700000*%
%ADD47RoundRect,0.135000X-0.135000X-0.185000X0.135000X-0.185000X0.135000X0.185000X-0.135000X0.185000X0*%
%ADD48RoundRect,0.140000X-0.170000X0.140000X-0.170000X-0.140000X0.170000X-0.140000X0.170000X0.140000X0*%
G04 APERTURE END LIST*
D10*
X194143208Y-90052523D02*
X193831341Y-88585301D01*
X193565029Y-89737272D01*
X192853193Y-88793213D01*
X193165061Y-90260434D01*
X46358682Y-83423347D02*
X45358682Y-83423347D01*
X46358682Y-84923347D01*
X45358682Y-84923347D01*
X123640617Y-118208031D02*
X124479029Y-118386241D01*
X124059823Y-118297136D02*
X124371690Y-116829915D01*
X124466873Y-117069220D01*
X124576907Y-117238657D01*
X124701791Y-117338226D01*
X123041509Y-117934638D02*
X122956791Y-117989655D01*
X123011807Y-118074374D01*
X123096526Y-118019357D01*
X123041509Y-117934638D01*
X123011807Y-118074374D01*
X122665164Y-116613230D02*
X122610147Y-116528512D01*
X122485263Y-116428942D01*
X122135924Y-116354688D01*
X121981338Y-116394854D01*
X121896620Y-116449871D01*
X121797050Y-116574756D01*
X121767349Y-116714491D01*
X121792664Y-116938945D01*
X122452866Y-117955567D01*
X121544586Y-117762506D01*
X120528968Y-116013119D02*
X121227644Y-116161627D01*
X121149004Y-116875155D01*
X121093987Y-116790437D01*
X120969102Y-116690867D01*
X120619764Y-116616613D01*
X120465178Y-116656779D01*
X120380459Y-116711796D01*
X120280890Y-116836680D01*
X120206636Y-117186019D01*
X120246802Y-117340605D01*
X120301819Y-117425324D01*
X120426703Y-117524893D01*
X120776041Y-117599147D01*
X120930628Y-117558981D01*
X121015346Y-117503964D01*
X119097526Y-116220027D02*
X118889614Y-117198175D01*
X119726335Y-116353684D02*
X119562976Y-117122229D01*
X119463406Y-117247114D01*
X119308820Y-117287280D01*
X119099217Y-117242727D01*
X118974332Y-117143158D01*
X118919316Y-117058439D01*
X130783540Y-119726309D02*
X131621952Y-119904519D01*
X131202746Y-119815414D02*
X131514613Y-118348193D01*
X131609796Y-118587498D01*
X131719830Y-118756935D01*
X131844714Y-118856504D01*
X130184432Y-119452916D02*
X130099714Y-119507933D01*
X130154730Y-119592652D01*
X130239449Y-119537635D01*
X130184432Y-119452916D01*
X130154730Y-119592652D01*
X129488450Y-117917519D02*
X129348715Y-117887817D01*
X129194129Y-117927983D01*
X129109410Y-117983000D01*
X129009841Y-118107884D01*
X128880570Y-118372504D01*
X128806316Y-118721843D01*
X128816780Y-119016164D01*
X128856946Y-119170751D01*
X128911963Y-119255469D01*
X129036847Y-119355038D01*
X129176583Y-119384740D01*
X129331169Y-119344574D01*
X129415888Y-119289557D01*
X129515457Y-119164673D01*
X129644728Y-118900053D01*
X129718982Y-118550714D01*
X129708518Y-118256393D01*
X129668352Y-118101807D01*
X129613335Y-118017088D01*
X129488450Y-117917519D01*
X128091097Y-117620502D02*
X127951361Y-117590800D01*
X127796775Y-117630966D01*
X127712057Y-117685983D01*
X127612487Y-117810868D01*
X127483216Y-118075488D01*
X127408962Y-118424826D01*
X127419426Y-118719148D01*
X127459592Y-118873734D01*
X127514609Y-118958452D01*
X127639494Y-119058022D01*
X127779229Y-119087723D01*
X127933815Y-119047557D01*
X128018534Y-118992541D01*
X128118103Y-118867656D01*
X128247374Y-118603036D01*
X128321628Y-118253698D01*
X128311164Y-117959376D01*
X128270998Y-117804790D01*
X128215981Y-117720071D01*
X128091097Y-117620502D01*
X126240449Y-117738305D02*
X126032537Y-118716453D01*
X126869258Y-117871962D02*
X126705899Y-118640507D01*
X126606329Y-118765392D01*
X126451743Y-118805558D01*
X126242140Y-118761005D01*
X126117255Y-118661436D01*
X126062239Y-118576717D01*
X128584370Y-39828396D02*
X128863841Y-39887799D01*
X128988726Y-39987368D01*
X129043742Y-40072087D01*
X129138925Y-40311392D01*
X129149390Y-40605713D01*
X129030583Y-41164655D01*
X128931014Y-41289539D01*
X128846295Y-41344556D01*
X128691709Y-41384722D01*
X128412238Y-41325319D01*
X128287354Y-41225749D01*
X128232337Y-41141031D01*
X128192171Y-40986445D01*
X128266425Y-40637106D01*
X128365994Y-40512222D01*
X128450713Y-40457205D01*
X128605299Y-40417039D01*
X128884770Y-40476442D01*
X129009654Y-40576012D01*
X129064671Y-40660730D01*
X129104837Y-40815316D01*
X9297950Y-104142428D02*
X10012236Y-104142428D01*
X10012236Y-102642428D01*
X7940807Y-103999571D02*
X8012236Y-104070999D01*
X8226522Y-104142428D01*
X8369379Y-104142428D01*
X8583664Y-104070999D01*
X8726522Y-103928142D01*
X8797950Y-103785285D01*
X8869379Y-103499571D01*
X8869379Y-103285285D01*
X8797950Y-102999571D01*
X8726522Y-102856714D01*
X8583664Y-102713857D01*
X8369379Y-102642428D01*
X8226522Y-102642428D01*
X8012236Y-102713857D01*
X7940807Y-102785285D01*
X7512236Y-103142428D02*
X6940807Y-103142428D01*
X7297950Y-102642428D02*
X7297950Y-103928142D01*
X7226522Y-104070999D01*
X7083664Y-104142428D01*
X6940807Y-104142428D01*
X6440807Y-104142428D02*
X6440807Y-103142428D01*
X6440807Y-103428142D02*
X6369379Y-103285285D01*
X6297950Y-103213857D01*
X6155093Y-103142428D01*
X6012236Y-103142428D01*
X5297950Y-104142428D02*
X5440807Y-104070999D01*
X5512236Y-103928142D01*
X5512236Y-102642428D01*
X214303525Y-25735436D02*
X214163789Y-25765138D01*
X214038905Y-25864707D01*
X213983888Y-25949426D01*
X213943722Y-26104012D01*
X213933257Y-26398334D01*
X214007512Y-26747672D01*
X214136783Y-27012292D01*
X214236352Y-27137176D01*
X214321071Y-27192193D01*
X214475657Y-27232359D01*
X214615392Y-27202658D01*
X214740277Y-27103088D01*
X214795294Y-27018370D01*
X214835460Y-26863784D01*
X214845924Y-26569462D01*
X214771670Y-26220124D01*
X214642399Y-25955504D01*
X214542829Y-25830619D01*
X214458111Y-25775602D01*
X214303525Y-25735436D01*
X16877945Y-26831717D02*
X16377945Y-26831717D01*
X16163659Y-27617431D02*
X16877945Y-27617431D01*
X16877945Y-26117431D01*
X16163659Y-26117431D01*
X15592231Y-27546002D02*
X15449374Y-27617431D01*
X15163659Y-27617431D01*
X15020802Y-27546002D01*
X14949374Y-27403145D01*
X14949374Y-27331717D01*
X15020802Y-27188860D01*
X15163659Y-27117431D01*
X15377945Y-27117431D01*
X15520802Y-27046002D01*
X15592231Y-26903145D01*
X15592231Y-26831717D01*
X15520802Y-26688860D01*
X15377945Y-26617431D01*
X15163659Y-26617431D01*
X15020802Y-26688860D01*
X13663659Y-27546002D02*
X13806516Y-27617431D01*
X14092231Y-27617431D01*
X14235088Y-27546002D01*
X14306516Y-27474574D01*
X14377945Y-27331717D01*
X14377945Y-26903145D01*
X14306516Y-26760288D01*
X14235088Y-26688860D01*
X14092231Y-26617431D01*
X13806516Y-26617431D01*
X13663659Y-26688860D01*
X95995987Y-53845125D02*
X96633569Y-53250404D01*
X96834399Y-54023335D02*
X97146266Y-52556114D01*
X96587325Y-52437307D01*
X96432739Y-52477473D01*
X96348020Y-52532490D01*
X96248451Y-52657374D01*
X96203898Y-52866977D01*
X96244064Y-53021564D01*
X96299081Y-53106282D01*
X96423966Y-53205852D01*
X96982907Y-53324658D01*
X217410402Y-65702208D02*
X218109079Y-65553700D01*
X217797212Y-64086478D01*
X158771034Y-37554505D02*
X157792886Y-37762417D01*
X158733563Y-39095981D01*
X97422157Y-72728457D02*
X97911230Y-72832413D01*
X97747871Y-73600958D02*
X98059739Y-72133736D01*
X97361062Y-71985228D01*
X303589019Y-84821180D02*
X304446161Y-84821180D01*
X304017590Y-84821180D02*
X304017590Y-83321180D01*
X304160447Y-83535466D01*
X304303304Y-83678323D01*
X304446161Y-83749751D01*
X302303304Y-83821180D02*
X302303304Y-84821180D01*
X302946161Y-83821180D02*
X302946161Y-84606894D01*
X302874733Y-84749751D01*
X302731876Y-84821180D01*
X302517590Y-84821180D01*
X302374733Y-84749751D01*
X302303304Y-84678323D01*
X103595480Y-92702357D02*
X102794539Y-94065623D01*
X102617332Y-92494445D01*
X94155566Y-110543572D02*
X94100549Y-110458854D01*
X93975664Y-110359284D01*
X93626326Y-110285030D01*
X93471740Y-110325196D01*
X93387021Y-110380213D01*
X93287452Y-110505098D01*
X93257750Y-110644833D01*
X93283065Y-110869287D01*
X93943268Y-111885909D01*
X93034988Y-111692848D01*
X92435880Y-111419455D02*
X92351162Y-111474472D01*
X92406178Y-111559191D01*
X92490897Y-111504174D01*
X92435880Y-111419455D01*
X92406178Y-111559191D01*
X91739898Y-109884058D02*
X91600163Y-109854356D01*
X91445577Y-109894522D01*
X91360858Y-109949539D01*
X91261289Y-110074423D01*
X91132018Y-110339043D01*
X91057764Y-110688382D01*
X91068228Y-110982703D01*
X91108394Y-111137290D01*
X91163411Y-111222008D01*
X91288295Y-111321577D01*
X91428031Y-111351279D01*
X91582617Y-111311113D01*
X91667336Y-111256096D01*
X91766905Y-111131212D01*
X91896176Y-110866592D01*
X91970430Y-110517253D01*
X91959966Y-110222932D01*
X91919800Y-110068346D01*
X91864783Y-109983627D01*
X91739898Y-109884058D01*
X90342545Y-109587041D02*
X90202809Y-109557339D01*
X90048223Y-109597505D01*
X89963505Y-109652522D01*
X89863935Y-109777407D01*
X89734664Y-110042027D01*
X89660410Y-110391365D01*
X89670874Y-110685687D01*
X89711040Y-110840273D01*
X89766057Y-110924991D01*
X89890942Y-111024561D01*
X90030677Y-111054262D01*
X90185263Y-111014096D01*
X90269982Y-110959080D01*
X90369551Y-110834195D01*
X90498822Y-110569575D01*
X90573076Y-110220237D01*
X90562612Y-109925915D01*
X90522446Y-109771329D01*
X90467429Y-109686610D01*
X90342545Y-109587041D01*
X88491897Y-109704844D02*
X88283985Y-110682992D01*
X89120706Y-109838501D02*
X88957347Y-110607046D01*
X88857777Y-110731931D01*
X88703191Y-110772097D01*
X88493588Y-110727544D01*
X88368703Y-110627975D01*
X88313687Y-110543256D01*
X272769318Y-28001187D02*
X273626461Y-28001187D01*
X273197889Y-28001187D02*
X273197889Y-26501187D01*
X273340746Y-26715473D01*
X273483604Y-26858330D01*
X273626461Y-26929758D01*
X272126461Y-27858330D02*
X272055032Y-27929758D01*
X272126461Y-28001187D01*
X272197889Y-27929758D01*
X272126461Y-27858330D01*
X272126461Y-28001187D01*
X271126461Y-26501187D02*
X270983604Y-26501187D01*
X270840746Y-26572616D01*
X270769318Y-26644044D01*
X270697889Y-26786901D01*
X270626461Y-27072616D01*
X270626461Y-27429758D01*
X270697889Y-27715473D01*
X270769318Y-27858330D01*
X270840746Y-27929758D01*
X270983604Y-28001187D01*
X271126461Y-28001187D01*
X271269318Y-27929758D01*
X271340746Y-27858330D01*
X271412175Y-27715473D01*
X271483604Y-27429758D01*
X271483604Y-27072616D01*
X271412175Y-26786901D01*
X271340746Y-26644044D01*
X271269318Y-26572616D01*
X271126461Y-26501187D01*
X269697889Y-26501187D02*
X269555032Y-26501187D01*
X269412175Y-26572616D01*
X269340746Y-26644044D01*
X269269318Y-26786901D01*
X269197889Y-27072616D01*
X269197889Y-27429758D01*
X269269318Y-27715473D01*
X269340746Y-27858330D01*
X269412175Y-27929758D01*
X269555032Y-28001187D01*
X269697889Y-28001187D01*
X269840746Y-27929758D01*
X269912175Y-27858330D01*
X269983604Y-27715473D01*
X270055032Y-27429758D01*
X270055032Y-27072616D01*
X269983604Y-26786901D01*
X269912175Y-26644044D01*
X269840746Y-26572616D01*
X269697889Y-26501187D01*
X267912175Y-27001187D02*
X267912175Y-28001187D01*
X268555032Y-27001187D02*
X268555032Y-27786901D01*
X268483604Y-27929758D01*
X268340746Y-28001187D01*
X268126461Y-28001187D01*
X267983604Y-27929758D01*
X267912175Y-27858330D01*
X179915093Y-72170454D02*
X180137855Y-73218469D01*
X180252276Y-73413221D01*
X180421713Y-73523255D01*
X180646166Y-73548570D01*
X180785902Y-73518868D01*
X83816388Y-89878638D02*
X83871405Y-89963356D01*
X84066157Y-90077776D01*
X84205893Y-90107478D01*
X84430347Y-90082163D01*
X84599784Y-89972129D01*
X84699353Y-89847245D01*
X84828624Y-89582625D01*
X84873177Y-89373022D01*
X84862712Y-89078700D01*
X84822546Y-88924114D01*
X84712512Y-88754677D01*
X84517760Y-88640257D01*
X84378025Y-88610555D01*
X84153571Y-88635870D01*
X84068852Y-88690887D01*
X101298493Y-112061849D02*
X101243476Y-111977131D01*
X101118591Y-111877561D01*
X100769253Y-111803307D01*
X100614667Y-111843473D01*
X100529948Y-111898490D01*
X100430379Y-112023375D01*
X100400677Y-112163110D01*
X100425992Y-112387564D01*
X101086195Y-113404186D01*
X100177915Y-113211125D01*
X99578807Y-112937732D02*
X99494089Y-112992749D01*
X99549105Y-113077468D01*
X99633824Y-113022451D01*
X99578807Y-112937732D01*
X99549105Y-113077468D01*
X99202462Y-111616324D02*
X99147445Y-111531606D01*
X99022561Y-111432036D01*
X98673222Y-111357782D01*
X98518636Y-111397948D01*
X98433918Y-111452965D01*
X98334348Y-111577850D01*
X98304647Y-111717585D01*
X98329962Y-111942039D01*
X98990164Y-112958661D01*
X98081884Y-112765600D01*
X97066266Y-111016213D02*
X97764942Y-111164721D01*
X97686302Y-111878249D01*
X97631285Y-111793531D01*
X97506400Y-111693961D01*
X97157062Y-111619707D01*
X97002476Y-111659873D01*
X96917757Y-111714890D01*
X96818188Y-111839774D01*
X96743934Y-112189113D01*
X96784100Y-112343699D01*
X96839117Y-112428418D01*
X96964001Y-112527987D01*
X97313339Y-112602241D01*
X97467926Y-112562075D01*
X97552644Y-112507058D01*
X95634824Y-111223121D02*
X95426912Y-112201269D01*
X96263633Y-111356778D02*
X96100274Y-112125323D01*
X96000704Y-112250208D01*
X95846118Y-112290374D01*
X95636515Y-112245821D01*
X95511630Y-112146252D01*
X95456614Y-112061533D01*
X78374180Y-49309212D02*
X77885107Y-49205256D01*
X77512144Y-49929248D02*
X78210821Y-50077756D01*
X78522689Y-48610535D01*
X77824012Y-48462027D01*
X290964382Y-45272078D02*
X289678667Y-47200649D01*
X285311794Y-26281639D02*
X285240365Y-26210211D01*
X285097508Y-26138782D01*
X284740365Y-26138782D01*
X284597508Y-26210211D01*
X284526079Y-26281639D01*
X284454651Y-26424496D01*
X284454651Y-26567353D01*
X284526079Y-26781639D01*
X285383222Y-27638782D01*
X284454651Y-27638782D01*
X283811794Y-27495925D02*
X283740365Y-27567353D01*
X283811794Y-27638782D01*
X283883222Y-27567353D01*
X283811794Y-27495925D01*
X283811794Y-27638782D01*
X282811794Y-26138782D02*
X282668937Y-26138782D01*
X282526079Y-26210211D01*
X282454651Y-26281639D01*
X282383222Y-26424496D01*
X282311794Y-26710211D01*
X282311794Y-27067353D01*
X282383222Y-27353068D01*
X282454651Y-27495925D01*
X282526079Y-27567353D01*
X282668937Y-27638782D01*
X282811794Y-27638782D01*
X282954651Y-27567353D01*
X283026079Y-27495925D01*
X283097508Y-27353068D01*
X283168937Y-27067353D01*
X283168937Y-26710211D01*
X283097508Y-26424496D01*
X283026079Y-26281639D01*
X282954651Y-26210211D01*
X282811794Y-26138782D01*
X281383222Y-26138782D02*
X281240365Y-26138782D01*
X281097508Y-26210211D01*
X281026079Y-26281639D01*
X280954651Y-26424496D01*
X280883222Y-26710211D01*
X280883222Y-27067353D01*
X280954651Y-27353068D01*
X281026079Y-27495925D01*
X281097508Y-27567353D01*
X281240365Y-27638782D01*
X281383222Y-27638782D01*
X281526079Y-27567353D01*
X281597508Y-27495925D01*
X281668937Y-27353068D01*
X281740365Y-27067353D01*
X281740365Y-26710211D01*
X281668937Y-26424496D01*
X281597508Y-26281639D01*
X281526079Y-26210211D01*
X281383222Y-26138782D01*
X279597508Y-26638782D02*
X279597508Y-27638782D01*
X280240365Y-26638782D02*
X280240365Y-27424496D01*
X280168937Y-27567353D01*
X280026079Y-27638782D01*
X279811794Y-27638782D01*
X279668937Y-27567353D01*
X279597508Y-27495925D01*
X162302052Y-77444738D02*
X161990184Y-75977516D01*
X162138692Y-76676193D02*
X161300280Y-76854403D01*
X161463639Y-77622948D02*
X161151772Y-76155726D01*
X293032234Y-28001190D02*
X293889377Y-28001190D01*
X293460805Y-28001190D02*
X293460805Y-26501190D01*
X293603662Y-26715476D01*
X293746520Y-26858333D01*
X293889377Y-26929761D01*
X292389377Y-27858333D02*
X292317948Y-27929761D01*
X292389377Y-28001190D01*
X292460805Y-27929761D01*
X292389377Y-27858333D01*
X292389377Y-28001190D01*
X291389377Y-26501190D02*
X291246520Y-26501190D01*
X291103662Y-26572619D01*
X291032234Y-26644047D01*
X290960805Y-26786904D01*
X290889377Y-27072619D01*
X290889377Y-27429761D01*
X290960805Y-27715476D01*
X291032234Y-27858333D01*
X291103662Y-27929761D01*
X291246520Y-28001190D01*
X291389377Y-28001190D01*
X291532234Y-27929761D01*
X291603662Y-27858333D01*
X291675091Y-27715476D01*
X291746520Y-27429761D01*
X291746520Y-27072619D01*
X291675091Y-26786904D01*
X291603662Y-26644047D01*
X291532234Y-26572619D01*
X291389377Y-26501190D01*
X289960805Y-26501190D02*
X289817948Y-26501190D01*
X289675091Y-26572619D01*
X289603662Y-26644047D01*
X289532234Y-26786904D01*
X289460805Y-27072619D01*
X289460805Y-27429761D01*
X289532234Y-27715476D01*
X289603662Y-27858333D01*
X289675091Y-27929761D01*
X289817948Y-28001190D01*
X289960805Y-28001190D01*
X290103662Y-27929761D01*
X290175091Y-27858333D01*
X290246520Y-27715476D01*
X290317948Y-27429761D01*
X290317948Y-27072619D01*
X290246520Y-26786904D01*
X290175091Y-26644047D01*
X290103662Y-26572619D01*
X289960805Y-26501190D01*
X288175091Y-27001190D02*
X288175091Y-28001190D01*
X288817948Y-27001190D02*
X288817948Y-27786904D01*
X288746520Y-27929761D01*
X288603662Y-28001190D01*
X288389377Y-28001190D01*
X288246520Y-27929761D01*
X288175091Y-27858333D01*
X231272596Y-83527431D02*
X232415453Y-83956002D01*
X231272596Y-84384574D01*
X15644020Y-64731716D02*
X16144020Y-64731716D01*
X16144020Y-65517430D02*
X16144020Y-64017430D01*
X15429734Y-64017430D01*
X14215448Y-64517430D02*
X14215448Y-65517430D01*
X14858305Y-64517430D02*
X14858305Y-65303144D01*
X14786877Y-65446001D01*
X14644020Y-65517430D01*
X14429734Y-65517430D01*
X14286877Y-65446001D01*
X14215448Y-65374573D01*
X13286877Y-65517430D02*
X13429734Y-65446001D01*
X13501162Y-65303144D01*
X13501162Y-64017430D01*
X12501162Y-65517430D02*
X12644020Y-65446001D01*
X12715448Y-65303144D01*
X12715448Y-64017430D01*
X78978397Y-69646503D02*
X79290264Y-68179282D01*
X78940926Y-68105028D01*
X78716472Y-68130343D01*
X78547035Y-68240376D01*
X78447466Y-68365261D01*
X78318195Y-68629881D01*
X78273642Y-68839484D01*
X78284106Y-69133805D01*
X78324272Y-69288392D01*
X78434306Y-69457829D01*
X78629058Y-69572249D01*
X78978397Y-69646503D01*
X178189748Y-113172849D02*
X178530313Y-112370216D01*
X179028160Y-112994639D02*
X178716292Y-111527418D01*
X178157351Y-111646224D01*
X178032466Y-111745794D01*
X177977449Y-111830512D01*
X177937283Y-111985098D01*
X177981836Y-112194702D01*
X178081405Y-112319586D01*
X178166124Y-112374603D01*
X178320710Y-112414769D01*
X178879651Y-112295962D01*
X177615955Y-113221788D02*
X177421203Y-113336208D01*
X177071865Y-113410463D01*
X176917278Y-113370296D01*
X176832560Y-113315280D01*
X176732990Y-113190395D01*
X176703289Y-113050660D01*
X176743455Y-112896074D01*
X176798472Y-112811355D01*
X176923356Y-112711786D01*
X177187976Y-112582515D01*
X177312861Y-112482945D01*
X177367877Y-112398227D01*
X177408044Y-112243641D01*
X177378342Y-112103905D01*
X177278772Y-111979021D01*
X177194054Y-111924004D01*
X177039468Y-111883838D01*
X176690129Y-111958092D01*
X176495377Y-112072512D01*
X175955673Y-112625376D02*
X176267540Y-114092597D01*
X175970524Y-112695243D02*
X175815938Y-112655077D01*
X175536467Y-112714481D01*
X175411582Y-112814050D01*
X175356565Y-112898769D01*
X175316399Y-113053355D01*
X175405504Y-113472561D01*
X175505074Y-113597446D01*
X175589792Y-113652462D01*
X175744379Y-113692628D01*
X176023849Y-113633225D01*
X176148734Y-113533656D01*
X174192439Y-113949479D02*
X174347025Y-113989645D01*
X174626496Y-113930242D01*
X174751380Y-113830672D01*
X174806397Y-113745954D01*
X174846563Y-113591368D01*
X174757458Y-113172162D01*
X174657889Y-113047277D01*
X174573170Y-112992260D01*
X174418584Y-112952094D01*
X174139113Y-113011497D01*
X174014229Y-113111067D01*
X296605451Y-104122433D02*
X297105451Y-103408147D01*
X297462594Y-104122433D02*
X297462594Y-102622433D01*
X296891165Y-102622433D01*
X296748308Y-102693862D01*
X296676880Y-102765290D01*
X296605451Y-102908147D01*
X296605451Y-103122433D01*
X296676880Y-103265290D01*
X296748308Y-103336719D01*
X296891165Y-103408147D01*
X297462594Y-103408147D01*
X295105451Y-103979576D02*
X295176880Y-104051004D01*
X295391165Y-104122433D01*
X295534023Y-104122433D01*
X295748308Y-104051004D01*
X295891165Y-103908147D01*
X295962594Y-103765290D01*
X296034023Y-103479576D01*
X296034023Y-103265290D01*
X295962594Y-102979576D01*
X295891165Y-102836719D01*
X295748308Y-102693862D01*
X295534023Y-102622433D01*
X295391165Y-102622433D01*
X295176880Y-102693862D01*
X295105451Y-102765290D01*
X294676880Y-103122433D02*
X294105451Y-103122433D01*
X294462594Y-102622433D02*
X294462594Y-103908147D01*
X294391165Y-104051004D01*
X294248308Y-104122433D01*
X294105451Y-104122433D01*
X293605451Y-104122433D02*
X293605451Y-103122433D01*
X293605451Y-103408147D02*
X293534023Y-103265290D01*
X293462594Y-103193862D01*
X293319737Y-103122433D01*
X293176880Y-103122433D01*
X292462594Y-104122433D02*
X292605451Y-104051004D01*
X292676880Y-103908147D01*
X292676880Y-102622433D01*
X109930788Y-35862838D02*
X110629465Y-36011346D01*
X110550824Y-36724874D01*
X110495807Y-36640155D01*
X110370922Y-36540586D01*
X110021584Y-36466332D01*
X109866998Y-36506498D01*
X109782279Y-36561515D01*
X109682710Y-36686399D01*
X109608456Y-37035738D01*
X109648622Y-37190324D01*
X109703639Y-37275042D01*
X109828523Y-37374612D01*
X110177862Y-37448866D01*
X110332448Y-37408700D01*
X110417166Y-37353683D01*
X116055479Y-56570265D02*
X115217067Y-56392055D01*
X115324406Y-57948382D02*
X115636273Y-56481160D01*
X247627238Y-47394933D02*
X247270095Y-47394933D01*
X247270095Y-45252076D01*
X247627238Y-45252076D01*
X212502862Y-84808240D02*
X211474084Y-85465060D01*
X212681072Y-85646652D01*
X266005807Y-47414933D02*
X266362950Y-47414933D01*
X266362950Y-45272076D01*
X266005807Y-45272076D01*
X196261289Y-31118827D02*
X195981818Y-31178231D01*
X195827232Y-31138064D01*
X195742514Y-31083048D01*
X195558226Y-30903146D01*
X195428955Y-30638526D01*
X195310148Y-30079585D01*
X195350314Y-29924999D01*
X195405331Y-29840280D01*
X195530216Y-29740711D01*
X195809686Y-29681307D01*
X195964272Y-29721473D01*
X196048991Y-29776490D01*
X196148560Y-29901375D01*
X196222815Y-30250713D01*
X196182649Y-30405299D01*
X196127632Y-30490018D01*
X196002747Y-30589587D01*
X195723276Y-30648991D01*
X195568690Y-30608825D01*
X195483972Y-30553808D01*
X195384402Y-30428923D01*
X66187487Y-84744909D02*
X64897472Y-86004219D01*
X65209339Y-84536997D02*
X65875619Y-86212130D01*
X53589759Y-23804046D02*
X53518330Y-23732618D01*
X53375473Y-23661189D01*
X53018330Y-23661189D01*
X52875473Y-23732618D01*
X52804045Y-23804046D01*
X52732616Y-23946903D01*
X52732616Y-24089760D01*
X52804045Y-24304046D01*
X53661188Y-25161189D01*
X52732616Y-25161189D01*
X39304757Y-46740286D02*
X39447614Y-46668858D01*
X39590471Y-46526000D01*
X39804757Y-46311715D01*
X39947614Y-46240286D01*
X40090471Y-46240286D01*
X40019043Y-46597429D02*
X40161900Y-46526000D01*
X40304757Y-46383143D01*
X40376186Y-46097429D01*
X40376186Y-45597429D01*
X40304757Y-45311715D01*
X40161900Y-45168858D01*
X40019043Y-45097429D01*
X39733328Y-45097429D01*
X39590471Y-45168858D01*
X39447614Y-45311715D01*
X39376186Y-45597429D01*
X39376186Y-46097429D01*
X39447614Y-46383143D01*
X39590471Y-46526000D01*
X39733328Y-46597429D01*
X40019043Y-46597429D01*
X289721879Y-83781534D02*
X289650450Y-83710106D01*
X289507593Y-83638677D01*
X289150450Y-83638677D01*
X289007593Y-83710106D01*
X288936164Y-83781534D01*
X288864736Y-83924391D01*
X288864736Y-84067248D01*
X288936164Y-84281534D01*
X289793307Y-85138677D01*
X288864736Y-85138677D01*
X288221879Y-84995820D02*
X288150450Y-85067248D01*
X288221879Y-85138677D01*
X288293307Y-85067248D01*
X288221879Y-84995820D01*
X288221879Y-85138677D01*
X287650450Y-83638677D02*
X286650450Y-83638677D01*
X287293307Y-85138677D01*
X285364736Y-83638677D02*
X286079022Y-83638677D01*
X286150450Y-84352963D01*
X286079022Y-84281534D01*
X285936164Y-84210106D01*
X285579022Y-84210106D01*
X285436164Y-84281534D01*
X285364736Y-84352963D01*
X285293307Y-84495820D01*
X285293307Y-84852963D01*
X285364736Y-84995820D01*
X285436164Y-85067248D01*
X285579022Y-85138677D01*
X285936164Y-85138677D01*
X286079022Y-85067248D01*
X286150450Y-84995820D01*
X284007593Y-84138677D02*
X284007593Y-85138677D01*
X284650450Y-84138677D02*
X284650450Y-84924391D01*
X284579022Y-85067248D01*
X284436164Y-85138677D01*
X284221879Y-85138677D01*
X284079022Y-85067248D01*
X284007593Y-84995820D01*
X60323378Y-44706650D02*
X59662172Y-46099617D01*
X59605464Y-44992198D01*
X59103231Y-45980810D01*
X59065760Y-44439335D01*
X60504473Y-65603351D02*
X60280019Y-65628666D01*
X59930680Y-65554412D01*
X59805796Y-65454842D01*
X59750779Y-65370124D01*
X59710613Y-65215538D01*
X59740314Y-65075802D01*
X59839884Y-64950918D01*
X59924602Y-64895901D01*
X60079189Y-64855735D01*
X60373510Y-64845271D01*
X60528096Y-64805105D01*
X60612815Y-64750088D01*
X60712384Y-64625203D01*
X60742086Y-64485468D01*
X60701920Y-64330882D01*
X60646903Y-64246163D01*
X60522018Y-64146594D01*
X60172680Y-64072340D01*
X59948226Y-64097655D01*
X177089057Y-34326843D02*
X177213941Y-34227273D01*
X177268958Y-34142555D01*
X177309124Y-33987969D01*
X177294273Y-33918101D01*
X177194704Y-33793216D01*
X177109985Y-33738199D01*
X176955399Y-33698033D01*
X176675929Y-33757437D01*
X176551044Y-33857006D01*
X176496027Y-33941725D01*
X176455861Y-34096311D01*
X176470712Y-34166179D01*
X176570281Y-34291063D01*
X176655000Y-34346080D01*
X176809586Y-34386246D01*
X177089057Y-34326843D01*
X177243643Y-34367009D01*
X177328362Y-34422025D01*
X177427931Y-34546910D01*
X177487334Y-34826381D01*
X177447168Y-34980967D01*
X177392151Y-35065685D01*
X177267267Y-35165255D01*
X176987796Y-35224658D01*
X176833210Y-35184492D01*
X176748491Y-35129475D01*
X176648922Y-35004591D01*
X176589519Y-34725120D01*
X176629685Y-34570534D01*
X176684702Y-34485815D01*
X176809586Y-34386246D01*
X175529630Y-94028094D02*
X175217762Y-92560872D01*
X174691217Y-94206304D01*
X174379350Y-92739082D01*
X40868331Y-65145106D02*
X40154046Y-65145106D01*
X41011189Y-65573677D02*
X40511189Y-64073677D01*
X40011189Y-65573677D01*
X34070123Y-27617433D02*
X34927266Y-27617433D01*
X34498695Y-27617433D02*
X34498695Y-26117433D01*
X34641552Y-26331719D01*
X34784409Y-26474576D01*
X34927266Y-26546004D01*
X190435641Y-52033081D02*
X190123774Y-50565859D01*
X289692234Y-65103667D02*
X289192234Y-65103667D01*
X288977948Y-65889381D02*
X289692234Y-65889381D01*
X289692234Y-64389381D01*
X288977948Y-64389381D01*
X288335091Y-64889381D02*
X288335091Y-65889381D01*
X288335091Y-65032238D02*
X288263662Y-64960810D01*
X288120805Y-64889381D01*
X287906520Y-64889381D01*
X287763662Y-64960810D01*
X287692234Y-65103667D01*
X287692234Y-65889381D01*
X287192234Y-64889381D02*
X286620805Y-64889381D01*
X286977948Y-64389381D02*
X286977948Y-65675095D01*
X286906520Y-65817952D01*
X286763662Y-65889381D01*
X286620805Y-65889381D01*
X285549377Y-65817952D02*
X285692234Y-65889381D01*
X285977948Y-65889381D01*
X286120805Y-65817952D01*
X286192234Y-65675095D01*
X286192234Y-65103667D01*
X286120805Y-64960810D01*
X285977948Y-64889381D01*
X285692234Y-64889381D01*
X285549377Y-64960810D01*
X285477948Y-65103667D01*
X285477948Y-65246524D01*
X286192234Y-65389381D01*
X284835091Y-65889381D02*
X284835091Y-64889381D01*
X284835091Y-65175095D02*
X284763662Y-65032238D01*
X284692234Y-64960810D01*
X284549377Y-64889381D01*
X284406520Y-64889381D01*
X234647953Y-24585287D02*
X233505096Y-24585287D01*
X61707351Y-106657167D02*
X62406028Y-106805676D01*
X62717896Y-105338454D01*
X61377250Y-106148856D02*
X60678573Y-106000348D01*
X61427880Y-106597764D02*
X61250674Y-105026587D01*
X60449733Y-106389852D01*
X59751056Y-106241344D02*
X59905642Y-106201178D01*
X60005212Y-106076293D01*
X60272527Y-104818675D01*
X59609629Y-105188942D02*
X59050688Y-105070135D01*
X59503982Y-104655316D02*
X59236667Y-105912934D01*
X59137098Y-106037819D01*
X58982511Y-106077985D01*
X58842776Y-106048283D01*
X251172954Y-84722070D02*
X251101526Y-84793498D01*
X251172954Y-84864927D01*
X251244383Y-84793498D01*
X251172954Y-84722070D01*
X251172954Y-84864927D01*
X251458668Y-83436356D02*
X251315811Y-83364927D01*
X250958668Y-83364927D01*
X250815811Y-83436356D01*
X250744383Y-83579213D01*
X250744383Y-83722070D01*
X250815811Y-83864927D01*
X250887240Y-83936356D01*
X251030097Y-84007784D01*
X251101526Y-84079213D01*
X251172954Y-84222070D01*
X251172954Y-84293498D01*
X237150098Y-65168504D02*
X237150098Y-65239933D01*
X237221527Y-65382790D01*
X237292955Y-65454219D01*
X237221527Y-64311362D02*
X237150098Y-64382790D01*
X237221527Y-64454219D01*
X237292955Y-64382790D01*
X237221527Y-64311362D01*
X237221527Y-64454219D01*
X256784734Y-64364921D02*
X256784734Y-64650635D01*
X256213305Y-64364921D02*
X256213305Y-64650635D01*
X16814383Y-85147983D02*
X17528668Y-85147983D01*
X17528668Y-83647983D01*
X16385811Y-85076554D02*
X16171526Y-85147983D01*
X15814383Y-85147983D01*
X15671526Y-85076554D01*
X15600097Y-85005126D01*
X15528668Y-84862269D01*
X15528668Y-84719412D01*
X15600097Y-84576554D01*
X15671526Y-84505126D01*
X15814383Y-84433697D01*
X16100097Y-84362269D01*
X16242954Y-84290840D01*
X16314383Y-84219412D01*
X16385811Y-84076554D01*
X16385811Y-83933697D01*
X16314383Y-83790840D01*
X16242954Y-83719412D01*
X16100097Y-83647983D01*
X15742954Y-83647983D01*
X15528668Y-83719412D01*
X14885811Y-85147983D02*
X14885811Y-83647983D01*
X14242954Y-85147983D02*
X14242954Y-84362269D01*
X14314383Y-84219412D01*
X14457240Y-84147983D01*
X14671526Y-84147983D01*
X14814383Y-84219412D01*
X14885811Y-84290840D01*
X13528668Y-85147983D02*
X13528668Y-84147983D01*
X13528668Y-83647983D02*
X13600097Y-83719412D01*
X13528668Y-83790840D01*
X13457240Y-83719412D01*
X13528668Y-83647983D01*
X13528668Y-83790840D01*
X13028668Y-84147983D02*
X12457240Y-84147983D01*
X12814383Y-85147983D02*
X12814383Y-83862269D01*
X12742954Y-83719412D01*
X12600097Y-83647983D01*
X12457240Y-83647983D01*
X12171526Y-84147983D02*
X11600097Y-84147983D01*
X11957240Y-83647983D02*
X11957240Y-84933697D01*
X11885811Y-85076554D01*
X11742954Y-85147983D01*
X11600097Y-85147983D01*
X209113267Y-46565219D02*
X208833797Y-46624623D01*
X208708912Y-46724192D01*
X208598878Y-46893629D01*
X208588414Y-47187951D01*
X208692370Y-47677025D01*
X208821641Y-47941644D01*
X208991078Y-48051678D01*
X209145664Y-48091844D01*
X209425135Y-48032441D01*
X209550019Y-47932871D01*
X209660053Y-47763434D01*
X209670517Y-47469113D01*
X209566562Y-46980039D01*
X209437291Y-46715419D01*
X209267853Y-46605385D01*
X209113267Y-46565219D01*
X171994757Y-54443266D02*
X172247221Y-55631017D01*
X172207055Y-55785603D01*
X172152038Y-55870321D01*
X172027154Y-55969891D01*
X171747683Y-56029294D01*
X171593097Y-55989128D01*
X171508378Y-55934111D01*
X171408809Y-55809227D01*
X171156345Y-54621476D01*
X229061876Y-45654930D02*
X229061876Y-44154930D01*
X228490447Y-44154930D01*
X228347590Y-44226359D01*
X228276161Y-44297787D01*
X228204733Y-44440644D01*
X228204733Y-44654930D01*
X228276161Y-44797787D01*
X228347590Y-44869216D01*
X228490447Y-44940644D01*
X229061876Y-44940644D01*
X155967986Y-97367648D02*
X155773233Y-97482068D01*
X155718217Y-97566787D01*
X155678051Y-97721373D01*
X155722603Y-97930976D01*
X155822172Y-98055861D01*
X155906891Y-98110878D01*
X156061477Y-98151044D01*
X156620419Y-98032237D01*
X156308551Y-96565016D01*
X155819477Y-96668971D01*
X155694593Y-96768541D01*
X155639576Y-96853259D01*
X155599410Y-97007845D01*
X155629112Y-97147581D01*
X155728681Y-97272465D01*
X155813400Y-97327482D01*
X155967986Y-97367648D01*
X156457060Y-97263692D01*
X17717234Y-45107422D02*
X16860091Y-45107422D01*
X17288662Y-46607422D02*
X17288662Y-45107422D01*
X15717234Y-46607422D02*
X15717234Y-45821708D01*
X15788662Y-45678851D01*
X15931520Y-45607422D01*
X16217234Y-45607422D01*
X16360091Y-45678851D01*
X15717234Y-46535993D02*
X15860091Y-46607422D01*
X16217234Y-46607422D01*
X16360091Y-46535993D01*
X16431520Y-46393136D01*
X16431520Y-46250279D01*
X16360091Y-46107422D01*
X16217234Y-46035993D01*
X15860091Y-46035993D01*
X15717234Y-45964565D01*
X15002948Y-46607422D02*
X15002948Y-45107422D01*
X15002948Y-45678851D02*
X14860091Y-45607422D01*
X14574377Y-45607422D01*
X14431519Y-45678851D01*
X14360091Y-45750279D01*
X14288662Y-45893136D01*
X14288662Y-46321708D01*
X14360091Y-46464565D01*
X14431519Y-46535993D01*
X14574377Y-46607422D01*
X14860091Y-46607422D01*
X15002948Y-46535993D01*
X199374536Y-69550731D02*
X199062668Y-68083510D01*
X198536123Y-69728941D02*
X198986723Y-68756871D01*
X198224256Y-68261720D02*
X199240878Y-68921922D01*
X153163580Y-59264098D02*
X153312088Y-59962775D01*
X153489295Y-58391597D02*
X153163580Y-59264098D01*
X152511147Y-58599509D01*
X115924854Y-75993234D02*
X116079440Y-75953068D01*
X116289043Y-75997621D01*
X116483795Y-76112041D01*
X116593829Y-76281478D01*
X116633995Y-76436064D01*
X116644460Y-76730386D01*
X116599907Y-76939989D01*
X116470636Y-77204609D01*
X116371067Y-77329493D01*
X116201630Y-77439527D01*
X115977176Y-77464842D01*
X115837440Y-77435140D01*
X115642688Y-77320720D01*
X115587671Y-77236002D01*
X115691627Y-76746928D01*
X115971098Y-76806331D01*
X10317595Y-65446007D02*
X10103309Y-65517436D01*
X9746166Y-65517436D01*
X9603309Y-65446007D01*
X9531881Y-65374579D01*
X9460452Y-65231722D01*
X9460452Y-65088865D01*
X9531881Y-64946007D01*
X9603309Y-64874579D01*
X9746166Y-64803150D01*
X10031881Y-64731722D01*
X10174738Y-64660293D01*
X10246166Y-64588865D01*
X10317595Y-64446007D01*
X10317595Y-64303150D01*
X10246166Y-64160293D01*
X10174738Y-64088865D01*
X10031881Y-64017436D01*
X9674738Y-64017436D01*
X9460452Y-64088865D01*
X9031881Y-64517436D02*
X8460452Y-64517436D01*
X8817595Y-64017436D02*
X8817595Y-65303150D01*
X8746166Y-65446007D01*
X8603309Y-65517436D01*
X8460452Y-65517436D01*
X7389023Y-65446007D02*
X7531881Y-65517436D01*
X7817595Y-65517436D01*
X7960452Y-65446007D01*
X8031881Y-65303150D01*
X8031881Y-64731722D01*
X7960452Y-64588865D01*
X7817595Y-64517436D01*
X7531881Y-64517436D01*
X7389023Y-64588865D01*
X7317595Y-64731722D01*
X7317595Y-64874579D01*
X8031881Y-65017436D01*
X6674738Y-64517436D02*
X6674738Y-66017436D01*
X6674738Y-64588865D02*
X6531881Y-64517436D01*
X6246166Y-64517436D01*
X6103309Y-64588865D01*
X6031881Y-64660293D01*
X5960452Y-64803150D01*
X5960452Y-65231722D01*
X6031881Y-65374579D01*
X6103309Y-65446007D01*
X6246166Y-65517436D01*
X6531881Y-65517436D01*
X6674738Y-65446007D01*
X5317595Y-64517436D02*
X5317595Y-66017436D01*
X5317595Y-64588865D02*
X5174738Y-64517436D01*
X4889023Y-64517436D01*
X4746166Y-64588865D01*
X4674738Y-64660293D01*
X4603309Y-64803150D01*
X4603309Y-65231722D01*
X4674738Y-65374579D01*
X4746166Y-65446007D01*
X4889023Y-65517436D01*
X5174738Y-65517436D01*
X5317595Y-65446007D01*
X3389023Y-65446007D02*
X3531881Y-65517436D01*
X3817595Y-65517436D01*
X3960452Y-65446007D01*
X4031881Y-65303150D01*
X4031881Y-64731722D01*
X3960452Y-64588865D01*
X3817595Y-64517436D01*
X3531881Y-64517436D01*
X3389023Y-64588865D01*
X3317595Y-64731722D01*
X3317595Y-64874579D01*
X4031881Y-65017436D01*
X2031881Y-65517436D02*
X2031881Y-64017436D01*
X2031881Y-65446007D02*
X2174738Y-65517436D01*
X2460452Y-65517436D01*
X2603309Y-65446007D01*
X2674738Y-65374579D01*
X2746166Y-65231722D01*
X2746166Y-64803150D01*
X2674738Y-64660293D01*
X2603309Y-64588865D01*
X2460452Y-64517436D01*
X2174738Y-64517436D01*
X2031881Y-64588865D01*
X279339735Y-85138677D02*
X280196878Y-85138677D01*
X279768306Y-85138677D02*
X279768306Y-83638677D01*
X279911163Y-83852963D01*
X280054021Y-83995820D01*
X280196878Y-84067248D01*
X278696878Y-84995820D02*
X278625449Y-85067248D01*
X278696878Y-85138677D01*
X278768306Y-85067248D01*
X278696878Y-84995820D01*
X278696878Y-85138677D01*
X278125449Y-83638677D02*
X277125449Y-83638677D01*
X277768306Y-85138677D01*
X275839735Y-83638677D02*
X276554021Y-83638677D01*
X276625449Y-84352963D01*
X276554021Y-84281534D01*
X276411163Y-84210106D01*
X276054021Y-84210106D01*
X275911163Y-84281534D01*
X275839735Y-84352963D01*
X275768306Y-84495820D01*
X275768306Y-84852963D01*
X275839735Y-84995820D01*
X275911163Y-85067248D01*
X276054021Y-85138677D01*
X276411163Y-85138677D01*
X276554021Y-85067248D01*
X276625449Y-84995820D01*
X274482592Y-84138677D02*
X274482592Y-85138677D01*
X275125449Y-84138677D02*
X275125449Y-84924391D01*
X275054021Y-85067248D01*
X274911163Y-85138677D01*
X274696878Y-85138677D01*
X274554021Y-85067248D01*
X274482592Y-84995820D01*
X73381225Y-28093596D02*
X72472945Y-27900535D01*
X72843212Y-28563432D01*
X72633609Y-28518880D01*
X72479023Y-28559046D01*
X72394304Y-28614063D01*
X72294735Y-28738947D01*
X72220481Y-29088286D01*
X72260647Y-29242872D01*
X72315664Y-29327590D01*
X72440548Y-29427160D01*
X72859754Y-29516265D01*
X73014341Y-29476099D01*
X73099059Y-29421082D01*
X218077886Y-105982348D02*
X218418451Y-105179715D01*
X218916298Y-105804138D02*
X218604431Y-104336916D01*
X218045489Y-104455723D01*
X217920605Y-104555292D01*
X217865588Y-104640011D01*
X217825422Y-104794597D01*
X217869974Y-105004200D01*
X217969544Y-105129085D01*
X218054262Y-105184102D01*
X218208848Y-105224268D01*
X218767790Y-105105461D01*
X217429840Y-105681948D02*
X216731163Y-105830457D01*
X217658680Y-106071453D02*
X216857739Y-104708187D01*
X216680532Y-106279365D01*
X215981855Y-106427873D02*
X216106740Y-106328304D01*
X216146906Y-106173717D01*
X215879591Y-104916099D01*
X215424605Y-105523979D02*
X214865664Y-105642786D01*
X215111046Y-105079458D02*
X215378361Y-106337076D01*
X215338195Y-106491663D01*
X215213311Y-106591232D01*
X215073576Y-106620934D01*
X121406808Y-97215526D02*
X121182354Y-97240841D01*
X121097636Y-97295858D01*
X120998066Y-97420742D01*
X120953514Y-97630345D01*
X120993680Y-97784932D01*
X121048697Y-97869650D01*
X121173581Y-97969219D01*
X121732523Y-98088026D01*
X122044390Y-96620805D01*
X121555317Y-96516849D01*
X121400730Y-96557015D01*
X121316012Y-96612032D01*
X121216442Y-96736916D01*
X121186741Y-96876652D01*
X121226907Y-97031238D01*
X121281924Y-97115956D01*
X121406808Y-97215526D01*
X121895882Y-97319482D01*
X91372989Y-32426040D02*
X91165077Y-33404187D01*
X91841134Y-31941352D02*
X91967710Y-33063622D01*
X91059430Y-32870561D01*
X253280453Y-26831718D02*
X252137596Y-26831718D01*
X252137596Y-27260289D02*
X253280453Y-27260289D01*
D11*
%TO.C,C_VDDA1*%
X138460777Y-81989757D02*
X138508396Y-82037376D01*
X138651254Y-82084995D01*
X138746492Y-82084995D01*
X138889349Y-82037376D01*
X138984587Y-81942138D01*
X139032206Y-81846900D01*
X139079825Y-81656424D01*
X139079825Y-81513567D01*
X139032206Y-81323091D01*
X138984587Y-81227853D01*
X138889349Y-81132615D01*
X138746492Y-81084995D01*
X138651254Y-81084995D01*
X138508396Y-81132615D01*
X138460777Y-81180234D01*
X138270301Y-82180234D02*
X137508396Y-82180234D01*
X137413158Y-81084995D02*
X137079825Y-82084995D01*
X136746492Y-81084995D01*
X136413158Y-82084995D02*
X136413158Y-81084995D01*
X136175063Y-81084995D01*
X136032206Y-81132615D01*
X135936968Y-81227853D01*
X135889349Y-81323091D01*
X135841730Y-81513567D01*
X135841730Y-81656424D01*
X135889349Y-81846900D01*
X135936968Y-81942138D01*
X136032206Y-82037376D01*
X136175063Y-82084995D01*
X136413158Y-82084995D01*
X135413158Y-82084995D02*
X135413158Y-81084995D01*
X135175063Y-81084995D01*
X135032206Y-81132615D01*
X134936968Y-81227853D01*
X134889349Y-81323091D01*
X134841730Y-81513567D01*
X134841730Y-81656424D01*
X134889349Y-81846900D01*
X134936968Y-81942138D01*
X135032206Y-82037376D01*
X135175063Y-82084995D01*
X135413158Y-82084995D01*
X134460777Y-81799281D02*
X133984587Y-81799281D01*
X134556016Y-82084995D02*
X134222682Y-81084995D01*
X133889349Y-82084995D01*
X133032206Y-82084995D02*
X133603635Y-82084995D01*
X133317920Y-82084995D02*
X133317920Y-81084995D01*
X133413158Y-81227853D01*
X133508396Y-81323091D01*
X133603635Y-81370710D01*
%TO.C,U_Power1*%
X145503154Y-56644999D02*
X145503154Y-57454523D01*
X145455535Y-57549761D01*
X145407916Y-57597380D01*
X145312678Y-57644999D01*
X145122202Y-57644999D01*
X145026964Y-57597380D01*
X144979345Y-57549761D01*
X144931726Y-57454523D01*
X144931726Y-56644999D01*
X144693631Y-57740238D02*
X143931726Y-57740238D01*
X143693631Y-57644999D02*
X143693631Y-56644999D01*
X143312678Y-56644999D01*
X143217440Y-56692619D01*
X143169821Y-56740238D01*
X143122202Y-56835476D01*
X143122202Y-56978333D01*
X143169821Y-57073571D01*
X143217440Y-57121190D01*
X143312678Y-57168809D01*
X143693631Y-57168809D01*
X142550773Y-57644999D02*
X142646012Y-57597380D01*
X142693631Y-57549761D01*
X142741250Y-57454523D01*
X142741250Y-57168809D01*
X142693631Y-57073571D01*
X142646012Y-57025952D01*
X142550773Y-56978333D01*
X142407916Y-56978333D01*
X142312678Y-57025952D01*
X142265059Y-57073571D01*
X142217440Y-57168809D01*
X142217440Y-57454523D01*
X142265059Y-57549761D01*
X142312678Y-57597380D01*
X142407916Y-57644999D01*
X142550773Y-57644999D01*
X141884107Y-56978333D02*
X141693631Y-57644999D01*
X141503154Y-57168809D01*
X141312678Y-57644999D01*
X141122202Y-56978333D01*
X140360297Y-57597380D02*
X140455535Y-57644999D01*
X140646012Y-57644999D01*
X140741250Y-57597380D01*
X140788869Y-57502142D01*
X140788869Y-57121190D01*
X140741250Y-57025952D01*
X140646012Y-56978333D01*
X140455535Y-56978333D01*
X140360297Y-57025952D01*
X140312678Y-57121190D01*
X140312678Y-57216428D01*
X140788869Y-57311666D01*
X139884107Y-57644999D02*
X139884107Y-56978333D01*
X139884107Y-57168809D02*
X139836488Y-57073571D01*
X139788869Y-57025952D01*
X139693631Y-56978333D01*
X139598392Y-56978333D01*
X138741250Y-57644999D02*
X139312678Y-57644999D01*
X139026964Y-57644999D02*
X139026964Y-56644999D01*
X139122202Y-56787857D01*
X139217440Y-56883095D01*
X139312678Y-56930714D01*
%TO.C,C_VDDA2*%
X138460768Y-83069759D02*
X138508387Y-83117378D01*
X138651245Y-83164997D01*
X138746483Y-83164997D01*
X138889340Y-83117378D01*
X138984578Y-83022140D01*
X139032197Y-82926902D01*
X139079816Y-82736426D01*
X139079816Y-82593569D01*
X139032197Y-82403093D01*
X138984578Y-82307855D01*
X138889340Y-82212617D01*
X138746483Y-82164997D01*
X138651245Y-82164997D01*
X138508387Y-82212617D01*
X138460768Y-82260236D01*
X138270292Y-83260236D02*
X137508387Y-83260236D01*
X137413149Y-82164997D02*
X137079816Y-83164997D01*
X136746483Y-82164997D01*
X136413149Y-83164997D02*
X136413149Y-82164997D01*
X136175054Y-82164997D01*
X136032197Y-82212617D01*
X135936959Y-82307855D01*
X135889340Y-82403093D01*
X135841721Y-82593569D01*
X135841721Y-82736426D01*
X135889340Y-82926902D01*
X135936959Y-83022140D01*
X136032197Y-83117378D01*
X136175054Y-83164997D01*
X136413149Y-83164997D01*
X135413149Y-83164997D02*
X135413149Y-82164997D01*
X135175054Y-82164997D01*
X135032197Y-82212617D01*
X134936959Y-82307855D01*
X134889340Y-82403093D01*
X134841721Y-82593569D01*
X134841721Y-82736426D01*
X134889340Y-82926902D01*
X134936959Y-83022140D01*
X135032197Y-83117378D01*
X135175054Y-83164997D01*
X135413149Y-83164997D01*
X134460768Y-82879283D02*
X133984578Y-82879283D01*
X134556007Y-83164997D02*
X134222673Y-82164997D01*
X133889340Y-83164997D01*
X133603626Y-82260236D02*
X133556007Y-82212617D01*
X133460768Y-82164997D01*
X133222673Y-82164997D01*
X133127435Y-82212617D01*
X133079816Y-82260236D01*
X133032197Y-82355474D01*
X133032197Y-82450712D01*
X133079816Y-82593569D01*
X133651245Y-83164997D01*
X133032197Y-83164997D01*
%TO.C,R_LED2*%
X-21344311Y-99546348D02*
X-21010977Y-99070158D01*
X-20772882Y-99546348D02*
X-20772882Y-98546348D01*
X-21153834Y-98546348D01*
X-21249073Y-98593968D01*
X-21296692Y-98641587D01*
X-21344311Y-98736825D01*
X-21344311Y-98879682D01*
X-21296692Y-98974920D01*
X-21249073Y-99022539D01*
X-21153834Y-99070158D01*
X-20772882Y-99070158D01*
X-21534787Y-99641587D02*
X-22296692Y-99641587D01*
X-23010977Y-99546348D02*
X-22534787Y-99546348D01*
X-22534787Y-98546348D01*
X-23344311Y-99022539D02*
X-23677644Y-99022539D01*
X-23820501Y-99546348D02*
X-23344311Y-99546348D01*
X-23344311Y-98546348D01*
X-23820501Y-98546348D01*
X-24249073Y-99546348D02*
X-24249073Y-98546348D01*
X-24487168Y-98546348D01*
X-24630025Y-98593968D01*
X-24725263Y-98689206D01*
X-24772882Y-98784444D01*
X-24820501Y-98974920D01*
X-24820501Y-99117777D01*
X-24772882Y-99308253D01*
X-24725263Y-99403491D01*
X-24630025Y-99498729D01*
X-24487168Y-99546348D01*
X-24249073Y-99546348D01*
X-25201453Y-98641587D02*
X-25249073Y-98593968D01*
X-25344311Y-98546348D01*
X-25582406Y-98546348D01*
X-25677644Y-98593968D01*
X-25725263Y-98641587D01*
X-25772882Y-98736825D01*
X-25772882Y-98832063D01*
X-25725263Y-98974920D01*
X-25153834Y-99546348D01*
X-25772882Y-99546348D01*
%TO.C,R_Shield1*%
X154788063Y-12916356D02*
X155121397Y-12440166D01*
X155359492Y-12916356D02*
X155359492Y-11916356D01*
X154978540Y-11916356D01*
X154883301Y-11963976D01*
X154835682Y-12011595D01*
X154788063Y-12106833D01*
X154788063Y-12249690D01*
X154835682Y-12344928D01*
X154883301Y-12392547D01*
X154978540Y-12440166D01*
X155359492Y-12440166D01*
X154597587Y-13011595D02*
X153835682Y-13011595D01*
X153645206Y-12868737D02*
X153502349Y-12916356D01*
X153264254Y-12916356D01*
X153169016Y-12868737D01*
X153121397Y-12821118D01*
X153073778Y-12725880D01*
X153073778Y-12630642D01*
X153121397Y-12535404D01*
X153169016Y-12487785D01*
X153264254Y-12440166D01*
X153454730Y-12392547D01*
X153549968Y-12344928D01*
X153597587Y-12297309D01*
X153645206Y-12202071D01*
X153645206Y-12106833D01*
X153597587Y-12011595D01*
X153549968Y-11963976D01*
X153454730Y-11916356D01*
X153216635Y-11916356D01*
X153073778Y-11963976D01*
X152645206Y-12916356D02*
X152645206Y-11916356D01*
X152216635Y-12916356D02*
X152216635Y-12392547D01*
X152264254Y-12297309D01*
X152359492Y-12249690D01*
X152502349Y-12249690D01*
X152597587Y-12297309D01*
X152645206Y-12344928D01*
X151740444Y-12916356D02*
X151740444Y-12249690D01*
X151740444Y-11916356D02*
X151788063Y-11963976D01*
X151740444Y-12011595D01*
X151692825Y-11963976D01*
X151740444Y-11916356D01*
X151740444Y-12011595D01*
X150883301Y-12868737D02*
X150978540Y-12916356D01*
X151169016Y-12916356D01*
X151264254Y-12868737D01*
X151311873Y-12773499D01*
X151311873Y-12392547D01*
X151264254Y-12297309D01*
X151169016Y-12249690D01*
X150978540Y-12249690D01*
X150883301Y-12297309D01*
X150835682Y-12392547D01*
X150835682Y-12487785D01*
X151311873Y-12583023D01*
X150264254Y-12916356D02*
X150359492Y-12868737D01*
X150407111Y-12773499D01*
X150407111Y-11916356D01*
X149454730Y-12916356D02*
X149454730Y-11916356D01*
X149454730Y-12868737D02*
X149549968Y-12916356D01*
X149740444Y-12916356D01*
X149835682Y-12868737D01*
X149883301Y-12821118D01*
X149930921Y-12725880D01*
X149930921Y-12440166D01*
X149883301Y-12344928D01*
X149835682Y-12297309D01*
X149740444Y-12249690D01*
X149549968Y-12249690D01*
X149454730Y-12297309D01*
X148454730Y-12916356D02*
X149026159Y-12916356D01*
X148740444Y-12916356D02*
X148740444Y-11916356D01*
X148835682Y-12059214D01*
X148930921Y-12154452D01*
X149026159Y-12202071D01*
%TO.C,RESET1*%
X143694585Y-80785001D02*
X144027918Y-80308811D01*
X144266014Y-80785001D02*
X144266014Y-79785001D01*
X143885061Y-79785001D01*
X143789823Y-79832621D01*
X143742204Y-79880240D01*
X143694585Y-79975478D01*
X143694585Y-80118335D01*
X143742204Y-80213573D01*
X143789823Y-80261192D01*
X143885061Y-80308811D01*
X144266014Y-80308811D01*
X143266014Y-80261192D02*
X142932680Y-80261192D01*
X142789823Y-80785001D02*
X143266014Y-80785001D01*
X143266014Y-79785001D01*
X142789823Y-79785001D01*
X142408871Y-80737382D02*
X142266014Y-80785001D01*
X142027918Y-80785001D01*
X141932680Y-80737382D01*
X141885061Y-80689763D01*
X141837442Y-80594525D01*
X141837442Y-80499287D01*
X141885061Y-80404049D01*
X141932680Y-80356430D01*
X142027918Y-80308811D01*
X142218394Y-80261192D01*
X142313633Y-80213573D01*
X142361252Y-80165954D01*
X142408871Y-80070716D01*
X142408871Y-79975478D01*
X142361252Y-79880240D01*
X142313633Y-79832621D01*
X142218394Y-79785001D01*
X141980299Y-79785001D01*
X141837442Y-79832621D01*
X141408871Y-80261192D02*
X141075537Y-80261192D01*
X140932680Y-80785001D02*
X141408871Y-80785001D01*
X141408871Y-79785001D01*
X140932680Y-79785001D01*
X140646966Y-79785001D02*
X140075537Y-79785001D01*
X140361252Y-80785001D02*
X140361252Y-79785001D01*
X139218394Y-80785001D02*
X139789823Y-80785001D01*
X139504109Y-80785001D02*
X139504109Y-79785001D01*
X139599347Y-79927859D01*
X139694585Y-80023097D01*
X139789823Y-80070716D01*
%TO.C,U_MCU1*%
X142508392Y-69944518D02*
X143317916Y-69944518D01*
X143413154Y-69992137D01*
X143460773Y-70039756D01*
X143508392Y-70134994D01*
X143508392Y-70325471D01*
X143460773Y-70420709D01*
X143413154Y-70468328D01*
X143317916Y-70515947D01*
X142508392Y-70515947D01*
X143603631Y-70754042D02*
X143603631Y-71515947D01*
X143508392Y-71754042D02*
X142508392Y-71754042D01*
X143222678Y-72087375D01*
X142508392Y-72420709D01*
X143508392Y-72420709D01*
X143413154Y-73468328D02*
X143460773Y-73420709D01*
X143508392Y-73277852D01*
X143508392Y-73182614D01*
X143460773Y-73039756D01*
X143365535Y-72944518D01*
X143270297Y-72896899D01*
X143079821Y-72849280D01*
X142936964Y-72849280D01*
X142746488Y-72896899D01*
X142651250Y-72944518D01*
X142556012Y-73039756D01*
X142508392Y-73182614D01*
X142508392Y-73277852D01*
X142556012Y-73420709D01*
X142603631Y-73468328D01*
X142508392Y-73896899D02*
X143317916Y-73896899D01*
X143413154Y-73944518D01*
X143460773Y-73992137D01*
X143508392Y-74087375D01*
X143508392Y-74277852D01*
X143460773Y-74373090D01*
X143413154Y-74420709D01*
X143317916Y-74468328D01*
X142508392Y-74468328D01*
X143508392Y-75468328D02*
X143508392Y-74896899D01*
X143508392Y-75182614D02*
X142508392Y-75182614D01*
X142651250Y-75087375D01*
X142746488Y-74992137D01*
X142794107Y-74896899D01*
%TO.C,R_BOOT1*%
X147008397Y-73936426D02*
X146532207Y-73603093D01*
X147008397Y-73364997D02*
X146008397Y-73364997D01*
X146008397Y-73745950D01*
X146056017Y-73841188D01*
X146103636Y-73888807D01*
X146198874Y-73936426D01*
X146341731Y-73936426D01*
X146436969Y-73888807D01*
X146484588Y-73841188D01*
X146532207Y-73745950D01*
X146532207Y-73364997D01*
X147103636Y-74126902D02*
X147103636Y-74888807D01*
X146484588Y-75460236D02*
X146532207Y-75603093D01*
X146579826Y-75650712D01*
X146675064Y-75698331D01*
X146817921Y-75698331D01*
X146913159Y-75650712D01*
X146960778Y-75603093D01*
X147008397Y-75507855D01*
X147008397Y-75126902D01*
X146008397Y-75126902D01*
X146008397Y-75460236D01*
X146056017Y-75555474D01*
X146103636Y-75603093D01*
X146198874Y-75650712D01*
X146294112Y-75650712D01*
X146389350Y-75603093D01*
X146436969Y-75555474D01*
X146484588Y-75460236D01*
X146484588Y-75126902D01*
X146008397Y-76317378D02*
X146008397Y-76507855D01*
X146056017Y-76603093D01*
X146151255Y-76698331D01*
X146341731Y-76745950D01*
X146675064Y-76745950D01*
X146865540Y-76698331D01*
X146960778Y-76603093D01*
X147008397Y-76507855D01*
X147008397Y-76317378D01*
X146960778Y-76222140D01*
X146865540Y-76126902D01*
X146675064Y-76079283D01*
X146341731Y-76079283D01*
X146151255Y-76126902D01*
X146056017Y-76222140D01*
X146008397Y-76317378D01*
X146008397Y-77364997D02*
X146008397Y-77555474D01*
X146056017Y-77650712D01*
X146151255Y-77745950D01*
X146341731Y-77793569D01*
X146675064Y-77793569D01*
X146865540Y-77745950D01*
X146960778Y-77650712D01*
X147008397Y-77555474D01*
X147008397Y-77364997D01*
X146960778Y-77269759D01*
X146865540Y-77174521D01*
X146675064Y-77126902D01*
X146341731Y-77126902D01*
X146151255Y-77174521D01*
X146056017Y-77269759D01*
X146008397Y-77364997D01*
X146008397Y-78079283D02*
X146008397Y-78650712D01*
X147008397Y-78364997D02*
X146008397Y-78364997D01*
X147008397Y-79507855D02*
X147008397Y-78936426D01*
X147008397Y-79222140D02*
X146008397Y-79222140D01*
X146151255Y-79126902D01*
X146246493Y-79031664D01*
X146294112Y-78936426D01*
%TO.C,BOOT1*%
X152469346Y-86326184D02*
X152326489Y-86373803D01*
X152278870Y-86421422D01*
X152231251Y-86516660D01*
X152231251Y-86659517D01*
X152278870Y-86754755D01*
X152326489Y-86802374D01*
X152421727Y-86849993D01*
X152802679Y-86849993D01*
X152802679Y-85849993D01*
X152469346Y-85849993D01*
X152374108Y-85897613D01*
X152326489Y-85945232D01*
X152278870Y-86040470D01*
X152278870Y-86135708D01*
X152326489Y-86230946D01*
X152374108Y-86278565D01*
X152469346Y-86326184D01*
X152802679Y-86326184D01*
X151612203Y-85849993D02*
X151421727Y-85849993D01*
X151326489Y-85897613D01*
X151231251Y-85992851D01*
X151183632Y-86183327D01*
X151183632Y-86516660D01*
X151231251Y-86707136D01*
X151326489Y-86802374D01*
X151421727Y-86849993D01*
X151612203Y-86849993D01*
X151707441Y-86802374D01*
X151802679Y-86707136D01*
X151850298Y-86516660D01*
X151850298Y-86183327D01*
X151802679Y-85992851D01*
X151707441Y-85897613D01*
X151612203Y-85849993D01*
X150564584Y-85849993D02*
X150374108Y-85849993D01*
X150278870Y-85897613D01*
X150183632Y-85992851D01*
X150136013Y-86183327D01*
X150136013Y-86516660D01*
X150183632Y-86707136D01*
X150278870Y-86802374D01*
X150374108Y-86849993D01*
X150564584Y-86849993D01*
X150659822Y-86802374D01*
X150755060Y-86707136D01*
X150802679Y-86516660D01*
X150802679Y-86183327D01*
X150755060Y-85992851D01*
X150659822Y-85897613D01*
X150564584Y-85849993D01*
X149850298Y-85849993D02*
X149278870Y-85849993D01*
X149564584Y-86849993D02*
X149564584Y-85849993D01*
X148421727Y-86849993D02*
X148993155Y-86849993D01*
X148707441Y-86849993D02*
X148707441Y-85849993D01*
X148802679Y-85992851D01*
X148897917Y-86088089D01*
X148993155Y-86135708D01*
%TO.C,C_VDD2*%
X145513154Y-73556426D02*
X145560773Y-73508807D01*
X145608392Y-73365950D01*
X145608392Y-73270712D01*
X145560773Y-73127855D01*
X145465535Y-73032617D01*
X145370297Y-72984997D01*
X145179821Y-72937378D01*
X145036964Y-72937378D01*
X144846488Y-72984997D01*
X144751250Y-73032617D01*
X144656012Y-73127855D01*
X144608392Y-73270712D01*
X144608392Y-73365950D01*
X144656012Y-73508807D01*
X144703631Y-73556426D01*
X145703631Y-73746902D02*
X145703631Y-74508807D01*
X144608392Y-74604045D02*
X145608392Y-74937378D01*
X144608392Y-75270712D01*
X145608392Y-75604045D02*
X144608392Y-75604045D01*
X144608392Y-75842140D01*
X144656012Y-75984997D01*
X144751250Y-76080236D01*
X144846488Y-76127855D01*
X145036964Y-76175474D01*
X145179821Y-76175474D01*
X145370297Y-76127855D01*
X145465535Y-76080236D01*
X145560773Y-75984997D01*
X145608392Y-75842140D01*
X145608392Y-75604045D01*
X145608392Y-76604045D02*
X144608392Y-76604045D01*
X144608392Y-76842140D01*
X144656012Y-76984997D01*
X144751250Y-77080236D01*
X144846488Y-77127855D01*
X145036964Y-77175474D01*
X145179821Y-77175474D01*
X145370297Y-77127855D01*
X145465535Y-77080236D01*
X145560773Y-76984997D01*
X145608392Y-76842140D01*
X145608392Y-76604045D01*
X144703631Y-77556426D02*
X144656012Y-77604045D01*
X144608392Y-77699283D01*
X144608392Y-77937378D01*
X144656012Y-78032617D01*
X144703631Y-78080236D01*
X144798869Y-78127855D01*
X144894107Y-78127855D01*
X145036964Y-78080236D01*
X145608392Y-77508807D01*
X145608392Y-78127855D01*
%TO.C,D_PWR1*%
X153711403Y-18136348D02*
X153711403Y-17136348D01*
X153473307Y-17136348D01*
X153330450Y-17183968D01*
X153235212Y-17279206D01*
X153187593Y-17374444D01*
X153139974Y-17564920D01*
X153139974Y-17707777D01*
X153187593Y-17898253D01*
X153235212Y-17993491D01*
X153330450Y-18088729D01*
X153473307Y-18136348D01*
X153711403Y-18136348D01*
X152949498Y-18231587D02*
X152187593Y-18231587D01*
X151949498Y-18136348D02*
X151949498Y-17136348D01*
X151568546Y-17136348D01*
X151473307Y-17183968D01*
X151425688Y-17231587D01*
X151378069Y-17326825D01*
X151378069Y-17469682D01*
X151425688Y-17564920D01*
X151473307Y-17612539D01*
X151568546Y-17660158D01*
X151949498Y-17660158D01*
X151044736Y-17136348D02*
X150806641Y-18136348D01*
X150616165Y-17422063D01*
X150425688Y-18136348D01*
X150187593Y-17136348D01*
X149235212Y-18136348D02*
X149568546Y-17660158D01*
X149806641Y-18136348D02*
X149806641Y-17136348D01*
X149425688Y-17136348D01*
X149330450Y-17183968D01*
X149282831Y-17231587D01*
X149235212Y-17326825D01*
X149235212Y-17469682D01*
X149282831Y-17564920D01*
X149330450Y-17612539D01*
X149425688Y-17660158D01*
X149806641Y-17660158D01*
X148282831Y-18136348D02*
X148854260Y-18136348D01*
X148568546Y-18136348D02*
X148568546Y-17136348D01*
X148663784Y-17279206D01*
X148759022Y-17374444D01*
X148854260Y-17422063D01*
%TO.C,D_SW_6*%
X135223144Y-36384496D02*
X134244996Y-36176585D01*
X134195493Y-36409477D01*
X134212370Y-36559113D01*
X134285726Y-36672071D01*
X134368982Y-36738450D01*
X134545395Y-36824631D01*
X134685131Y-36854333D01*
X134881345Y-36847357D01*
X134984403Y-36820579D01*
X135097361Y-36747223D01*
X135173641Y-36617389D01*
X135223144Y-36384496D01*
X135157892Y-37149553D02*
X134999483Y-37894808D01*
X134820145Y-38051420D02*
X134837022Y-38201056D01*
X134787519Y-38433948D01*
X134721140Y-38517205D01*
X134664661Y-38553883D01*
X134561603Y-38580660D01*
X134468446Y-38560859D01*
X134385190Y-38494479D01*
X134348512Y-38438000D01*
X134321735Y-38334943D01*
X134314758Y-38138728D01*
X134287981Y-38035671D01*
X134251303Y-37979192D01*
X134168047Y-37912812D01*
X134074890Y-37893011D01*
X133971832Y-37919789D01*
X133915353Y-37956467D01*
X133848974Y-38039723D01*
X133799471Y-38272615D01*
X133816348Y-38422251D01*
X133700465Y-38738400D02*
X134629110Y-39179204D01*
X133890831Y-39217009D01*
X134549906Y-39551831D01*
X133522255Y-39576812D01*
X134563858Y-39944260D02*
X134405449Y-40689516D01*
X133195537Y-41113901D02*
X133235139Y-40927587D01*
X133301519Y-40844331D01*
X133357998Y-40807653D01*
X133517534Y-40744198D01*
X133713749Y-40737222D01*
X134086376Y-40816426D01*
X134169633Y-40882806D01*
X134206311Y-40939285D01*
X134233088Y-41042342D01*
X134193486Y-41228656D01*
X134127106Y-41311912D01*
X134070627Y-41348590D01*
X133967570Y-41375367D01*
X133734677Y-41325865D01*
X133651421Y-41259485D01*
X133614743Y-41203006D01*
X133587966Y-41099949D01*
X133627568Y-40913635D01*
X133693948Y-40830378D01*
X133750427Y-40793701D01*
X133853484Y-40766923D01*
%TO.C,F1*%
X145589492Y-18250636D02*
X145589492Y-17917303D01*
X146113301Y-17917303D02*
X145113301Y-17917303D01*
X145113301Y-18393493D01*
X146113301Y-19298255D02*
X146113301Y-18726827D01*
X146113301Y-19012541D02*
X145113301Y-19012541D01*
X145256159Y-18917303D01*
X145351397Y-18822065D01*
X145399016Y-18726827D01*
%TO.C,C_VDDIO2*%
X143204113Y-64959759D02*
X143251732Y-65007378D01*
X143394589Y-65054997D01*
X143489827Y-65054997D01*
X143632684Y-65007378D01*
X143727922Y-64912140D01*
X143775541Y-64816902D01*
X143823160Y-64626426D01*
X143823160Y-64483569D01*
X143775541Y-64293093D01*
X143727922Y-64197855D01*
X143632684Y-64102617D01*
X143489827Y-64054997D01*
X143394589Y-64054997D01*
X143251732Y-64102617D01*
X143204113Y-64150236D01*
X143013637Y-65150236D02*
X142251732Y-65150236D01*
X142156494Y-64054997D02*
X141823160Y-65054997D01*
X141489827Y-64054997D01*
X141156494Y-65054997D02*
X141156494Y-64054997D01*
X140918398Y-64054997D01*
X140775541Y-64102617D01*
X140680303Y-64197855D01*
X140632684Y-64293093D01*
X140585065Y-64483569D01*
X140585065Y-64626426D01*
X140632684Y-64816902D01*
X140680303Y-64912140D01*
X140775541Y-65007378D01*
X140918398Y-65054997D01*
X141156494Y-65054997D01*
X140156494Y-65054997D02*
X140156494Y-64054997D01*
X139918398Y-64054997D01*
X139775541Y-64102617D01*
X139680303Y-64197855D01*
X139632684Y-64293093D01*
X139585065Y-64483569D01*
X139585065Y-64626426D01*
X139632684Y-64816902D01*
X139680303Y-64912140D01*
X139775541Y-65007378D01*
X139918398Y-65054997D01*
X140156494Y-65054997D01*
X139156494Y-65054997D02*
X139156494Y-64054997D01*
X138489827Y-64054997D02*
X138299351Y-64054997D01*
X138204113Y-64102617D01*
X138108875Y-64197855D01*
X138061256Y-64388331D01*
X138061256Y-64721664D01*
X138108875Y-64912140D01*
X138204113Y-65007378D01*
X138299351Y-65054997D01*
X138489827Y-65054997D01*
X138585065Y-65007378D01*
X138680303Y-64912140D01*
X138727922Y-64721664D01*
X138727922Y-64388331D01*
X138680303Y-64197855D01*
X138585065Y-64102617D01*
X138489827Y-64054997D01*
X137680303Y-64150236D02*
X137632684Y-64102617D01*
X137537446Y-64054997D01*
X137299351Y-64054997D01*
X137204113Y-64102617D01*
X137156494Y-64150236D01*
X137108875Y-64245474D01*
X137108875Y-64340712D01*
X137156494Y-64483569D01*
X137727922Y-65054997D01*
X137108875Y-65054997D01*
%TO.C,R_LDO2*%
X147388393Y-57616423D02*
X146912203Y-57283090D01*
X147388393Y-57044994D02*
X146388393Y-57044994D01*
X146388393Y-57425947D01*
X146436013Y-57521185D01*
X146483632Y-57568804D01*
X146578870Y-57616423D01*
X146721727Y-57616423D01*
X146816965Y-57568804D01*
X146864584Y-57521185D01*
X146912203Y-57425947D01*
X146912203Y-57044994D01*
X147483632Y-57806899D02*
X147483632Y-58568804D01*
X147388393Y-59283090D02*
X147388393Y-58806899D01*
X146388393Y-58806899D01*
X147388393Y-59616423D02*
X146388393Y-59616423D01*
X146388393Y-59854518D01*
X146436013Y-59997375D01*
X146531251Y-60092614D01*
X146626489Y-60140233D01*
X146816965Y-60187852D01*
X146959822Y-60187852D01*
X147150298Y-60140233D01*
X147245536Y-60092614D01*
X147340774Y-59997375D01*
X147388393Y-59854518D01*
X147388393Y-59616423D01*
X146388393Y-60806899D02*
X146388393Y-60997375D01*
X146436013Y-61092614D01*
X146531251Y-61187852D01*
X146721727Y-61235471D01*
X147055060Y-61235471D01*
X147245536Y-61187852D01*
X147340774Y-61092614D01*
X147388393Y-60997375D01*
X147388393Y-60806899D01*
X147340774Y-60711661D01*
X147245536Y-60616423D01*
X147055060Y-60568804D01*
X146721727Y-60568804D01*
X146531251Y-60616423D01*
X146436013Y-60711661D01*
X146388393Y-60806899D01*
X146483632Y-61616423D02*
X146436013Y-61664042D01*
X146388393Y-61759280D01*
X146388393Y-61997375D01*
X146436013Y-62092614D01*
X146483632Y-62140233D01*
X146578870Y-62187852D01*
X146674108Y-62187852D01*
X146816965Y-62140233D01*
X147388393Y-61568804D01*
X147388393Y-62187852D01*
%TO.C,USB1*%
X145521399Y-13005872D02*
X145521399Y-13653491D01*
X145483303Y-13729682D01*
X145445208Y-13767777D01*
X145369018Y-13805872D01*
X145216637Y-13805872D01*
X145140446Y-13767777D01*
X145102351Y-13729682D01*
X145064256Y-13653491D01*
X145064256Y-13005872D01*
X144721399Y-13767777D02*
X144607113Y-13805872D01*
X144416637Y-13805872D01*
X144340446Y-13767777D01*
X144302351Y-13729682D01*
X144264256Y-13653491D01*
X144264256Y-13577301D01*
X144302351Y-13501110D01*
X144340446Y-13463015D01*
X144416637Y-13424920D01*
X144569018Y-13386825D01*
X144645208Y-13348729D01*
X144683303Y-13310634D01*
X144721399Y-13234444D01*
X144721399Y-13158253D01*
X144683303Y-13082063D01*
X144645208Y-13043968D01*
X144569018Y-13005872D01*
X144378542Y-13005872D01*
X144264256Y-13043968D01*
X143654732Y-13386825D02*
X143540446Y-13424920D01*
X143502351Y-13463015D01*
X143464256Y-13539206D01*
X143464256Y-13653491D01*
X143502351Y-13729682D01*
X143540446Y-13767777D01*
X143616637Y-13805872D01*
X143921399Y-13805872D01*
X143921399Y-13005872D01*
X143654732Y-13005872D01*
X143578542Y-13043968D01*
X143540446Y-13082063D01*
X143502351Y-13158253D01*
X143502351Y-13234444D01*
X143540446Y-13310634D01*
X143578542Y-13348729D01*
X143654732Y-13386825D01*
X143921399Y-13386825D01*
X142702351Y-13805872D02*
X143159494Y-13805872D01*
X142930923Y-13805872D02*
X142930923Y-13005872D01*
X143007113Y-13120158D01*
X143083303Y-13196348D01*
X143159494Y-13234444D01*
%TO.C,C_LDO2*%
X146143151Y-57616425D02*
X146190770Y-57568806D01*
X146238389Y-57425949D01*
X146238389Y-57330711D01*
X146190770Y-57187854D01*
X146095532Y-57092616D01*
X146000294Y-57044996D01*
X145809818Y-56997377D01*
X145666961Y-56997377D01*
X145476485Y-57044996D01*
X145381247Y-57092616D01*
X145286009Y-57187854D01*
X145238389Y-57330711D01*
X145238389Y-57425949D01*
X145286009Y-57568806D01*
X145333628Y-57616425D01*
X146333628Y-57806901D02*
X146333628Y-58568806D01*
X146238389Y-59283092D02*
X146238389Y-58806901D01*
X145238389Y-58806901D01*
X146238389Y-59616425D02*
X145238389Y-59616425D01*
X145238389Y-59854520D01*
X145286009Y-59997377D01*
X145381247Y-60092616D01*
X145476485Y-60140235D01*
X145666961Y-60187854D01*
X145809818Y-60187854D01*
X146000294Y-60140235D01*
X146095532Y-60092616D01*
X146190770Y-59997377D01*
X146238389Y-59854520D01*
X146238389Y-59616425D01*
X145238389Y-60806901D02*
X145238389Y-60997377D01*
X145286009Y-61092616D01*
X145381247Y-61187854D01*
X145571723Y-61235473D01*
X145905056Y-61235473D01*
X146095532Y-61187854D01*
X146190770Y-61092616D01*
X146238389Y-60997377D01*
X146238389Y-60806901D01*
X146190770Y-60711663D01*
X146095532Y-60616425D01*
X145905056Y-60568806D01*
X145571723Y-60568806D01*
X145381247Y-60616425D01*
X145286009Y-60711663D01*
X145238389Y-60806901D01*
X145333628Y-61616425D02*
X145286009Y-61664044D01*
X145238389Y-61759282D01*
X145238389Y-61997377D01*
X145286009Y-62092616D01*
X145333628Y-62140235D01*
X145428866Y-62187854D01*
X145524104Y-62187854D01*
X145666961Y-62140235D01*
X146238389Y-61568806D01*
X146238389Y-62187854D01*
%TO.C,D_ESD1*%
X146668551Y-14676351D02*
X146668551Y-13676351D01*
X146430455Y-13676351D01*
X146287598Y-13723971D01*
X146192360Y-13819209D01*
X146144741Y-13914447D01*
X146097122Y-14104923D01*
X146097122Y-14247780D01*
X146144741Y-14438256D01*
X146192360Y-14533494D01*
X146287598Y-14628732D01*
X146430455Y-14676351D01*
X146668551Y-14676351D01*
X145906646Y-14771590D02*
X145144741Y-14771590D01*
X144906646Y-14152542D02*
X144573312Y-14152542D01*
X144430455Y-14676351D02*
X144906646Y-14676351D01*
X144906646Y-13676351D01*
X144430455Y-13676351D01*
X144049503Y-14628732D02*
X143906646Y-14676351D01*
X143668551Y-14676351D01*
X143573312Y-14628732D01*
X143525693Y-14581113D01*
X143478074Y-14485875D01*
X143478074Y-14390637D01*
X143525693Y-14295399D01*
X143573312Y-14247780D01*
X143668551Y-14200161D01*
X143859027Y-14152542D01*
X143954265Y-14104923D01*
X144001884Y-14057304D01*
X144049503Y-13962066D01*
X144049503Y-13866828D01*
X144001884Y-13771590D01*
X143954265Y-13723971D01*
X143859027Y-13676351D01*
X143620932Y-13676351D01*
X143478074Y-13723971D01*
X143049503Y-14676351D02*
X143049503Y-13676351D01*
X142811408Y-13676351D01*
X142668551Y-13723971D01*
X142573312Y-13819209D01*
X142525693Y-13914447D01*
X142478074Y-14104923D01*
X142478074Y-14247780D01*
X142525693Y-14438256D01*
X142573312Y-14533494D01*
X142668551Y-14628732D01*
X142811408Y-14676351D01*
X143049503Y-14676351D01*
X141525693Y-14676351D02*
X142097122Y-14676351D01*
X141811408Y-14676351D02*
X141811408Y-13676351D01*
X141906646Y-13819209D01*
X142001884Y-13914447D01*
X142097122Y-13962066D01*
%TO.C,C_Shield1*%
X154788073Y-13911117D02*
X154835692Y-13958736D01*
X154978550Y-14006355D01*
X155073788Y-14006355D01*
X155216645Y-13958736D01*
X155311883Y-13863498D01*
X155359502Y-13768260D01*
X155407121Y-13577784D01*
X155407121Y-13434927D01*
X155359502Y-13244451D01*
X155311883Y-13149213D01*
X155216645Y-13053975D01*
X155073788Y-13006355D01*
X154978550Y-13006355D01*
X154835692Y-13053975D01*
X154788073Y-13101594D01*
X154597597Y-14101594D02*
X153835692Y-14101594D01*
X153645216Y-13958736D02*
X153502359Y-14006355D01*
X153264264Y-14006355D01*
X153169026Y-13958736D01*
X153121407Y-13911117D01*
X153073788Y-13815879D01*
X153073788Y-13720641D01*
X153121407Y-13625403D01*
X153169026Y-13577784D01*
X153264264Y-13530165D01*
X153454740Y-13482546D01*
X153549978Y-13434927D01*
X153597597Y-13387308D01*
X153645216Y-13292070D01*
X153645216Y-13196832D01*
X153597597Y-13101594D01*
X153549978Y-13053975D01*
X153454740Y-13006355D01*
X153216645Y-13006355D01*
X153073788Y-13053975D01*
X152645216Y-14006355D02*
X152645216Y-13006355D01*
X152216645Y-14006355D02*
X152216645Y-13482546D01*
X152264264Y-13387308D01*
X152359502Y-13339689D01*
X152502359Y-13339689D01*
X152597597Y-13387308D01*
X152645216Y-13434927D01*
X151740454Y-14006355D02*
X151740454Y-13339689D01*
X151740454Y-13006355D02*
X151788073Y-13053975D01*
X151740454Y-13101594D01*
X151692835Y-13053975D01*
X151740454Y-13006355D01*
X151740454Y-13101594D01*
X150883311Y-13958736D02*
X150978550Y-14006355D01*
X151169026Y-14006355D01*
X151264264Y-13958736D01*
X151311883Y-13863498D01*
X151311883Y-13482546D01*
X151264264Y-13387308D01*
X151169026Y-13339689D01*
X150978550Y-13339689D01*
X150883311Y-13387308D01*
X150835692Y-13482546D01*
X150835692Y-13577784D01*
X151311883Y-13673022D01*
X150264264Y-14006355D02*
X150359502Y-13958736D01*
X150407121Y-13863498D01*
X150407121Y-13006355D01*
X149454740Y-14006355D02*
X149454740Y-13006355D01*
X149454740Y-13958736D02*
X149549978Y-14006355D01*
X149740454Y-14006355D01*
X149835692Y-13958736D01*
X149883311Y-13911117D01*
X149930931Y-13815879D01*
X149930931Y-13530165D01*
X149883311Y-13434927D01*
X149835692Y-13387308D01*
X149740454Y-13339689D01*
X149549978Y-13339689D01*
X149454740Y-13387308D01*
X148454740Y-14006355D02*
X149026169Y-14006355D01*
X148740454Y-14006355D02*
X148740454Y-13006355D01*
X148835692Y-13149213D01*
X148930931Y-13244451D01*
X149026169Y-13292070D01*
%TO.C,R_LED3*%
X-21344316Y-104046347D02*
X-21010982Y-103570157D01*
X-20772887Y-104046347D02*
X-20772887Y-103046347D01*
X-21153839Y-103046347D01*
X-21249078Y-103093967D01*
X-21296697Y-103141586D01*
X-21344316Y-103236824D01*
X-21344316Y-103379681D01*
X-21296697Y-103474919D01*
X-21249078Y-103522538D01*
X-21153839Y-103570157D01*
X-20772887Y-103570157D01*
X-21534792Y-104141586D02*
X-22296697Y-104141586D01*
X-23010982Y-104046347D02*
X-22534792Y-104046347D01*
X-22534792Y-103046347D01*
X-23344316Y-103522538D02*
X-23677649Y-103522538D01*
X-23820506Y-104046347D02*
X-23344316Y-104046347D01*
X-23344316Y-103046347D01*
X-23820506Y-103046347D01*
X-24249078Y-104046347D02*
X-24249078Y-103046347D01*
X-24487173Y-103046347D01*
X-24630030Y-103093967D01*
X-24725268Y-103189205D01*
X-24772887Y-103284443D01*
X-24820506Y-103474919D01*
X-24820506Y-103617776D01*
X-24772887Y-103808252D01*
X-24725268Y-103903490D01*
X-24630030Y-103998728D01*
X-24487173Y-104046347D01*
X-24249078Y-104046347D01*
X-25153839Y-103046347D02*
X-25772887Y-103046347D01*
X-25439554Y-103427300D01*
X-25582411Y-103427300D01*
X-25677649Y-103474919D01*
X-25725268Y-103522538D01*
X-25772887Y-103617776D01*
X-25772887Y-103855871D01*
X-25725268Y-103951109D01*
X-25677649Y-103998728D01*
X-25582411Y-104046347D01*
X-25296697Y-104046347D01*
X-25201458Y-103998728D01*
X-25153839Y-103951109D01*
%TO.C,R_LED1*%
X-21344314Y-94616356D02*
X-21010980Y-94140166D01*
X-20772885Y-94616356D02*
X-20772885Y-93616356D01*
X-21153837Y-93616356D01*
X-21249076Y-93663976D01*
X-21296695Y-93711595D01*
X-21344314Y-93806833D01*
X-21344314Y-93949690D01*
X-21296695Y-94044928D01*
X-21249076Y-94092547D01*
X-21153837Y-94140166D01*
X-20772885Y-94140166D01*
X-21534790Y-94711595D02*
X-22296695Y-94711595D01*
X-23010980Y-94616356D02*
X-22534790Y-94616356D01*
X-22534790Y-93616356D01*
X-23344314Y-94092547D02*
X-23677647Y-94092547D01*
X-23820504Y-94616356D02*
X-23344314Y-94616356D01*
X-23344314Y-93616356D01*
X-23820504Y-93616356D01*
X-24249076Y-94616356D02*
X-24249076Y-93616356D01*
X-24487171Y-93616356D01*
X-24630028Y-93663976D01*
X-24725266Y-93759214D01*
X-24772885Y-93854452D01*
X-24820504Y-94044928D01*
X-24820504Y-94187785D01*
X-24772885Y-94378261D01*
X-24725266Y-94473499D01*
X-24630028Y-94568737D01*
X-24487171Y-94616356D01*
X-24249076Y-94616356D01*
X-25772885Y-94616356D02*
X-25201456Y-94616356D01*
X-25487171Y-94616356D02*
X-25487171Y-93616356D01*
X-25391933Y-93759214D01*
X-25296695Y-93854452D01*
X-25201456Y-93902071D01*
%TO.C,J_SWD1*%
X145703398Y-89769462D02*
X146417684Y-89769462D01*
X146560541Y-89721843D01*
X146655779Y-89626605D01*
X146703398Y-89483747D01*
X146703398Y-89388509D01*
X146798637Y-90007557D02*
X146798637Y-90769462D01*
X146655779Y-90959938D02*
X146703398Y-91102795D01*
X146703398Y-91340890D01*
X146655779Y-91436128D01*
X146608160Y-91483747D01*
X146512922Y-91531367D01*
X146417684Y-91531367D01*
X146322446Y-91483747D01*
X146274827Y-91436128D01*
X146227208Y-91340890D01*
X146179589Y-91150414D01*
X146131970Y-91055176D01*
X146084351Y-91007557D01*
X145989113Y-90959938D01*
X145893875Y-90959938D01*
X145798637Y-91007557D01*
X145751018Y-91055176D01*
X145703398Y-91150414D01*
X145703398Y-91388509D01*
X145751018Y-91531367D01*
X145703398Y-91864700D02*
X146703398Y-92102795D01*
X145989113Y-92293271D01*
X146703398Y-92483747D01*
X145703398Y-92721843D01*
X146703398Y-93102795D02*
X145703398Y-93102795D01*
X145703398Y-93340890D01*
X145751018Y-93483747D01*
X145846256Y-93578986D01*
X145941494Y-93626605D01*
X146131970Y-93674224D01*
X146274827Y-93674224D01*
X146465303Y-93626605D01*
X146560541Y-93578986D01*
X146655779Y-93483747D01*
X146703398Y-93340890D01*
X146703398Y-93102795D01*
X146703398Y-94626605D02*
X146703398Y-94055176D01*
X146703398Y-94340890D02*
X145703398Y-94340890D01*
X145846256Y-94245652D01*
X145941494Y-94150414D01*
X145989113Y-94055176D01*
%TO.C,D_LDO1*%
X145123630Y-65024999D02*
X145123630Y-64024999D01*
X144885534Y-64024999D01*
X144742677Y-64072619D01*
X144647439Y-64167857D01*
X144599820Y-64263095D01*
X144552201Y-64453571D01*
X144552201Y-64596428D01*
X144599820Y-64786904D01*
X144647439Y-64882142D01*
X144742677Y-64977380D01*
X144885534Y-65024999D01*
X145123630Y-65024999D01*
X144361725Y-65120238D02*
X143599820Y-65120238D01*
X142885534Y-65024999D02*
X143361725Y-65024999D01*
X143361725Y-64024999D01*
X142552201Y-65024999D02*
X142552201Y-64024999D01*
X142314106Y-64024999D01*
X142171249Y-64072619D01*
X142076011Y-64167857D01*
X142028391Y-64263095D01*
X141980772Y-64453571D01*
X141980772Y-64596428D01*
X142028391Y-64786904D01*
X142076011Y-64882142D01*
X142171249Y-64977380D01*
X142314106Y-65024999D01*
X142552201Y-65024999D01*
X141361725Y-64024999D02*
X141171249Y-64024999D01*
X141076011Y-64072619D01*
X140980772Y-64167857D01*
X140933153Y-64358333D01*
X140933153Y-64691666D01*
X140980772Y-64882142D01*
X141076011Y-64977380D01*
X141171249Y-65024999D01*
X141361725Y-65024999D01*
X141456963Y-64977380D01*
X141552201Y-64882142D01*
X141599820Y-64691666D01*
X141599820Y-64358333D01*
X141552201Y-64167857D01*
X141456963Y-64072619D01*
X141361725Y-64024999D01*
X139980772Y-65024999D02*
X140552201Y-65024999D01*
X140266487Y-65024999D02*
X140266487Y-64024999D01*
X140361725Y-64167857D01*
X140456963Y-64263095D01*
X140552201Y-64310714D01*
%TO.C,J_RGB1*%
X131320302Y-53874999D02*
X131320302Y-54589285D01*
X131367921Y-54732142D01*
X131463159Y-54827380D01*
X131606017Y-54874999D01*
X131701255Y-54874999D01*
X131082207Y-54970238D02*
X130320302Y-54970238D01*
X129510778Y-54874999D02*
X129844112Y-54398809D01*
X130082207Y-54874999D02*
X130082207Y-53874999D01*
X129701255Y-53874999D01*
X129606017Y-53922619D01*
X129558397Y-53970238D01*
X129510778Y-54065476D01*
X129510778Y-54208333D01*
X129558397Y-54303571D01*
X129606017Y-54351190D01*
X129701255Y-54398809D01*
X130082207Y-54398809D01*
X128558397Y-53922619D02*
X128653636Y-53874999D01*
X128796493Y-53874999D01*
X128939350Y-53922619D01*
X129034588Y-54017857D01*
X129082207Y-54113095D01*
X129129826Y-54303571D01*
X129129826Y-54446428D01*
X129082207Y-54636904D01*
X129034588Y-54732142D01*
X128939350Y-54827380D01*
X128796493Y-54874999D01*
X128701255Y-54874999D01*
X128558397Y-54827380D01*
X128510778Y-54779761D01*
X128510778Y-54446428D01*
X128701255Y-54446428D01*
X127748874Y-54351190D02*
X127606017Y-54398809D01*
X127558397Y-54446428D01*
X127510778Y-54541666D01*
X127510778Y-54684523D01*
X127558397Y-54779761D01*
X127606017Y-54827380D01*
X127701255Y-54874999D01*
X128082207Y-54874999D01*
X128082207Y-53874999D01*
X127748874Y-53874999D01*
X127653636Y-53922619D01*
X127606017Y-53970238D01*
X127558397Y-54065476D01*
X127558397Y-54160714D01*
X127606017Y-54255952D01*
X127653636Y-54303571D01*
X127748874Y-54351190D01*
X128082207Y-54351190D01*
X126558397Y-54874999D02*
X127129826Y-54874999D01*
X126844112Y-54874999D02*
X126844112Y-53874999D01*
X126939350Y-54017857D01*
X127034588Y-54113095D01*
X127129826Y-54160714D01*
%TO.C,C_LDO1*%
X144122203Y-58829753D02*
X144169822Y-58877372D01*
X144312679Y-58924991D01*
X144407917Y-58924991D01*
X144550774Y-58877372D01*
X144646013Y-58782134D01*
X144693632Y-58686896D01*
X144741251Y-58496420D01*
X144741251Y-58353563D01*
X144693632Y-58163087D01*
X144646013Y-58067849D01*
X144550774Y-57972611D01*
X144407917Y-57924991D01*
X144312679Y-57924991D01*
X144169822Y-57972611D01*
X144122203Y-58020230D01*
X143931727Y-59020230D02*
X143169822Y-59020230D01*
X142455536Y-58924991D02*
X142931727Y-58924991D01*
X142931727Y-57924991D01*
X142122203Y-58924991D02*
X142122203Y-57924991D01*
X141884108Y-57924991D01*
X141741251Y-57972611D01*
X141646013Y-58067849D01*
X141598393Y-58163087D01*
X141550774Y-58353563D01*
X141550774Y-58496420D01*
X141598393Y-58686896D01*
X141646013Y-58782134D01*
X141741251Y-58877372D01*
X141884108Y-58924991D01*
X142122203Y-58924991D01*
X140931727Y-57924991D02*
X140741251Y-57924991D01*
X140646013Y-57972611D01*
X140550774Y-58067849D01*
X140503155Y-58258325D01*
X140503155Y-58591658D01*
X140550774Y-58782134D01*
X140646013Y-58877372D01*
X140741251Y-58924991D01*
X140931727Y-58924991D01*
X141026965Y-58877372D01*
X141122203Y-58782134D01*
X141169822Y-58591658D01*
X141169822Y-58258325D01*
X141122203Y-58067849D01*
X141026965Y-57972611D01*
X140931727Y-57924991D01*
X139550774Y-58924991D02*
X140122203Y-58924991D01*
X139836489Y-58924991D02*
X139836489Y-57924991D01*
X139931727Y-58067849D01*
X140026965Y-58163087D01*
X140122203Y-58210706D01*
%TO.C,R_USB2*%
X141758543Y-13616353D02*
X142091876Y-13140163D01*
X142329971Y-13616353D02*
X142329971Y-12616353D01*
X141949019Y-12616353D01*
X141853781Y-12663973D01*
X141806162Y-12711592D01*
X141758543Y-12806830D01*
X141758543Y-12949687D01*
X141806162Y-13044925D01*
X141853781Y-13092544D01*
X141949019Y-13140163D01*
X142329971Y-13140163D01*
X141568066Y-13711592D02*
X140806162Y-13711592D01*
X140568066Y-12616353D02*
X140568066Y-13425877D01*
X140520447Y-13521115D01*
X140472828Y-13568734D01*
X140377590Y-13616353D01*
X140187114Y-13616353D01*
X140091876Y-13568734D01*
X140044257Y-13521115D01*
X139996638Y-13425877D01*
X139996638Y-12616353D01*
X139568066Y-13568734D02*
X139425209Y-13616353D01*
X139187114Y-13616353D01*
X139091876Y-13568734D01*
X139044257Y-13521115D01*
X138996638Y-13425877D01*
X138996638Y-13330639D01*
X139044257Y-13235401D01*
X139091876Y-13187782D01*
X139187114Y-13140163D01*
X139377590Y-13092544D01*
X139472828Y-13044925D01*
X139520447Y-12997306D01*
X139568066Y-12902068D01*
X139568066Y-12806830D01*
X139520447Y-12711592D01*
X139472828Y-12663973D01*
X139377590Y-12616353D01*
X139139495Y-12616353D01*
X138996638Y-12663973D01*
X138234733Y-13092544D02*
X138091876Y-13140163D01*
X138044257Y-13187782D01*
X137996638Y-13283020D01*
X137996638Y-13425877D01*
X138044257Y-13521115D01*
X138091876Y-13568734D01*
X138187114Y-13616353D01*
X138568066Y-13616353D01*
X138568066Y-12616353D01*
X138234733Y-12616353D01*
X138139495Y-12663973D01*
X138091876Y-12711592D01*
X138044257Y-12806830D01*
X138044257Y-12902068D01*
X138091876Y-12997306D01*
X138139495Y-13044925D01*
X138234733Y-13092544D01*
X138568066Y-13092544D01*
X137615685Y-12711592D02*
X137568066Y-12663973D01*
X137472828Y-12616353D01*
X137234733Y-12616353D01*
X137139495Y-12663973D01*
X137091876Y-12711592D01*
X137044257Y-12806830D01*
X137044257Y-12902068D01*
X137091876Y-13044925D01*
X137663304Y-13616353D01*
X137044257Y-13616353D01*
%TO.C,R_USB1*%
X151308542Y-15956351D02*
X151641875Y-15480161D01*
X151879970Y-15956351D02*
X151879970Y-14956351D01*
X151499018Y-14956351D01*
X151403780Y-15003971D01*
X151356161Y-15051590D01*
X151308542Y-15146828D01*
X151308542Y-15289685D01*
X151356161Y-15384923D01*
X151403780Y-15432542D01*
X151499018Y-15480161D01*
X151879970Y-15480161D01*
X151118065Y-16051590D02*
X150356161Y-16051590D01*
X150118065Y-14956351D02*
X150118065Y-15765875D01*
X150070446Y-15861113D01*
X150022827Y-15908732D01*
X149927589Y-15956351D01*
X149737113Y-15956351D01*
X149641875Y-15908732D01*
X149594256Y-15861113D01*
X149546637Y-15765875D01*
X149546637Y-14956351D01*
X149118065Y-15908732D02*
X148975208Y-15956351D01*
X148737113Y-15956351D01*
X148641875Y-15908732D01*
X148594256Y-15861113D01*
X148546637Y-15765875D01*
X148546637Y-15670637D01*
X148594256Y-15575399D01*
X148641875Y-15527780D01*
X148737113Y-15480161D01*
X148927589Y-15432542D01*
X149022827Y-15384923D01*
X149070446Y-15337304D01*
X149118065Y-15242066D01*
X149118065Y-15146828D01*
X149070446Y-15051590D01*
X149022827Y-15003971D01*
X148927589Y-14956351D01*
X148689494Y-14956351D01*
X148546637Y-15003971D01*
X147784732Y-15432542D02*
X147641875Y-15480161D01*
X147594256Y-15527780D01*
X147546637Y-15623018D01*
X147546637Y-15765875D01*
X147594256Y-15861113D01*
X147641875Y-15908732D01*
X147737113Y-15956351D01*
X148118065Y-15956351D01*
X148118065Y-14956351D01*
X147784732Y-14956351D01*
X147689494Y-15003971D01*
X147641875Y-15051590D01*
X147594256Y-15146828D01*
X147594256Y-15242066D01*
X147641875Y-15337304D01*
X147689494Y-15384923D01*
X147784732Y-15432542D01*
X148118065Y-15432542D01*
X146594256Y-15956351D02*
X147165684Y-15956351D01*
X146879970Y-15956351D02*
X146879970Y-14956351D01*
X146975208Y-15099209D01*
X147070446Y-15194447D01*
X147165684Y-15242066D01*
%TO.C,C_VDDIO1*%
X143204104Y-66009757D02*
X143251723Y-66057376D01*
X143394580Y-66104995D01*
X143489818Y-66104995D01*
X143632675Y-66057376D01*
X143727913Y-65962138D01*
X143775532Y-65866900D01*
X143823151Y-65676424D01*
X143823151Y-65533567D01*
X143775532Y-65343091D01*
X143727913Y-65247853D01*
X143632675Y-65152615D01*
X143489818Y-65104995D01*
X143394580Y-65104995D01*
X143251723Y-65152615D01*
X143204104Y-65200234D01*
X143013628Y-66200234D02*
X142251723Y-66200234D01*
X142156485Y-65104995D02*
X141823151Y-66104995D01*
X141489818Y-65104995D01*
X141156485Y-66104995D02*
X141156485Y-65104995D01*
X140918389Y-65104995D01*
X140775532Y-65152615D01*
X140680294Y-65247853D01*
X140632675Y-65343091D01*
X140585056Y-65533567D01*
X140585056Y-65676424D01*
X140632675Y-65866900D01*
X140680294Y-65962138D01*
X140775532Y-66057376D01*
X140918389Y-66104995D01*
X141156485Y-66104995D01*
X140156485Y-66104995D02*
X140156485Y-65104995D01*
X139918389Y-65104995D01*
X139775532Y-65152615D01*
X139680294Y-65247853D01*
X139632675Y-65343091D01*
X139585056Y-65533567D01*
X139585056Y-65676424D01*
X139632675Y-65866900D01*
X139680294Y-65962138D01*
X139775532Y-66057376D01*
X139918389Y-66104995D01*
X140156485Y-66104995D01*
X139156485Y-66104995D02*
X139156485Y-65104995D01*
X138489818Y-65104995D02*
X138299342Y-65104995D01*
X138204104Y-65152615D01*
X138108866Y-65247853D01*
X138061247Y-65438329D01*
X138061247Y-65771662D01*
X138108866Y-65962138D01*
X138204104Y-66057376D01*
X138299342Y-66104995D01*
X138489818Y-66104995D01*
X138585056Y-66057376D01*
X138680294Y-65962138D01*
X138727913Y-65771662D01*
X138727913Y-65438329D01*
X138680294Y-65247853D01*
X138585056Y-65152615D01*
X138489818Y-65104995D01*
X137108866Y-66104995D02*
X137680294Y-66104995D01*
X137394580Y-66104995D02*
X137394580Y-65104995D01*
X137489818Y-65247853D01*
X137585056Y-65343091D01*
X137680294Y-65390710D01*
%TO.C,R_RGB1*%
X137588396Y-63764998D02*
X137112206Y-63431665D01*
X137588396Y-63193570D02*
X136588396Y-63193570D01*
X136588396Y-63574522D01*
X136636016Y-63669760D01*
X136683635Y-63717379D01*
X136778873Y-63764998D01*
X136921730Y-63764998D01*
X137016968Y-63717379D01*
X137064587Y-63669760D01*
X137112206Y-63574522D01*
X137112206Y-63193570D01*
X137683635Y-63955475D02*
X137683635Y-64717379D01*
X137588396Y-65526903D02*
X137112206Y-65193570D01*
X137588396Y-64955475D02*
X136588396Y-64955475D01*
X136588396Y-65336427D01*
X136636016Y-65431665D01*
X136683635Y-65479284D01*
X136778873Y-65526903D01*
X136921730Y-65526903D01*
X137016968Y-65479284D01*
X137064587Y-65431665D01*
X137112206Y-65336427D01*
X137112206Y-64955475D01*
X136636016Y-66479284D02*
X136588396Y-66384046D01*
X136588396Y-66241189D01*
X136636016Y-66098332D01*
X136731254Y-66003094D01*
X136826492Y-65955475D01*
X137016968Y-65907856D01*
X137159825Y-65907856D01*
X137350301Y-65955475D01*
X137445539Y-66003094D01*
X137540777Y-66098332D01*
X137588396Y-66241189D01*
X137588396Y-66336427D01*
X137540777Y-66479284D01*
X137493158Y-66526903D01*
X137159825Y-66526903D01*
X137159825Y-66336427D01*
X137064587Y-67288808D02*
X137112206Y-67431665D01*
X137159825Y-67479284D01*
X137255063Y-67526903D01*
X137397920Y-67526903D01*
X137493158Y-67479284D01*
X137540777Y-67431665D01*
X137588396Y-67336427D01*
X137588396Y-66955475D01*
X136588396Y-66955475D01*
X136588396Y-67288808D01*
X136636016Y-67384046D01*
X136683635Y-67431665D01*
X136778873Y-67479284D01*
X136874111Y-67479284D01*
X136969349Y-67431665D01*
X137016968Y-67384046D01*
X137064587Y-67288808D01*
X137064587Y-66955475D01*
X137588396Y-68479284D02*
X137588396Y-67907856D01*
X137588396Y-68193570D02*
X136588396Y-68193570D01*
X136731254Y-68098332D01*
X136826492Y-68003094D01*
X136874111Y-67907856D01*
%TO.C,R_LDO1*%
X144122201Y-57844995D02*
X144455534Y-57368805D01*
X144693630Y-57844995D02*
X144693630Y-56844995D01*
X144312677Y-56844995D01*
X144217439Y-56892615D01*
X144169820Y-56940234D01*
X144122201Y-57035472D01*
X144122201Y-57178329D01*
X144169820Y-57273567D01*
X144217439Y-57321186D01*
X144312677Y-57368805D01*
X144693630Y-57368805D01*
X143931725Y-57940234D02*
X143169820Y-57940234D01*
X142455534Y-57844995D02*
X142931725Y-57844995D01*
X142931725Y-56844995D01*
X142122201Y-57844995D02*
X142122201Y-56844995D01*
X141884106Y-56844995D01*
X141741249Y-56892615D01*
X141646011Y-56987853D01*
X141598391Y-57083091D01*
X141550772Y-57273567D01*
X141550772Y-57416424D01*
X141598391Y-57606900D01*
X141646011Y-57702138D01*
X141741249Y-57797376D01*
X141884106Y-57844995D01*
X142122201Y-57844995D01*
X140931725Y-56844995D02*
X140741249Y-56844995D01*
X140646011Y-56892615D01*
X140550772Y-56987853D01*
X140503153Y-57178329D01*
X140503153Y-57511662D01*
X140550772Y-57702138D01*
X140646011Y-57797376D01*
X140741249Y-57844995D01*
X140931725Y-57844995D01*
X141026963Y-57797376D01*
X141122201Y-57702138D01*
X141169820Y-57511662D01*
X141169820Y-57178329D01*
X141122201Y-56987853D01*
X141026963Y-56892615D01*
X140931725Y-56844995D01*
X139550772Y-57844995D02*
X140122201Y-57844995D01*
X139836487Y-57844995D02*
X139836487Y-56844995D01*
X139931725Y-56987853D01*
X140026963Y-57083091D01*
X140122201Y-57130710D01*
%TO.C,C_VDD3*%
X130663154Y-67846422D02*
X130710773Y-67798803D01*
X130758392Y-67655946D01*
X130758392Y-67560708D01*
X130710773Y-67417851D01*
X130615535Y-67322613D01*
X130520297Y-67274993D01*
X130329821Y-67227374D01*
X130186964Y-67227374D01*
X129996488Y-67274993D01*
X129901250Y-67322613D01*
X129806012Y-67417851D01*
X129758392Y-67560708D01*
X129758392Y-67655946D01*
X129806012Y-67798803D01*
X129853631Y-67846422D01*
X130853631Y-68036898D02*
X130853631Y-68798803D01*
X129758392Y-68894041D02*
X130758392Y-69227374D01*
X129758392Y-69560708D01*
X130758392Y-69894041D02*
X129758392Y-69894041D01*
X129758392Y-70132136D01*
X129806012Y-70274993D01*
X129901250Y-70370232D01*
X129996488Y-70417851D01*
X130186964Y-70465470D01*
X130329821Y-70465470D01*
X130520297Y-70417851D01*
X130615535Y-70370232D01*
X130710773Y-70274993D01*
X130758392Y-70132136D01*
X130758392Y-69894041D01*
X130758392Y-70894041D02*
X129758392Y-70894041D01*
X129758392Y-71132136D01*
X129806012Y-71274993D01*
X129901250Y-71370232D01*
X129996488Y-71417851D01*
X130186964Y-71465470D01*
X130329821Y-71465470D01*
X130520297Y-71417851D01*
X130615535Y-71370232D01*
X130710773Y-71274993D01*
X130758392Y-71132136D01*
X130758392Y-70894041D01*
X129758392Y-71798803D02*
X129758392Y-72417851D01*
X130139345Y-72084517D01*
X130139345Y-72227374D01*
X130186964Y-72322613D01*
X130234583Y-72370232D01*
X130329821Y-72417851D01*
X130567916Y-72417851D01*
X130663154Y-72370232D01*
X130710773Y-72322613D01*
X130758392Y-72227374D01*
X130758392Y-71941660D01*
X130710773Y-71846422D01*
X130663154Y-71798803D01*
%TO.C,C_VDD1*%
X144443156Y-73556421D02*
X144490775Y-73508802D01*
X144538394Y-73365945D01*
X144538394Y-73270707D01*
X144490775Y-73127850D01*
X144395537Y-73032612D01*
X144300299Y-72984992D01*
X144109823Y-72937373D01*
X143966966Y-72937373D01*
X143776490Y-72984992D01*
X143681252Y-73032612D01*
X143586014Y-73127850D01*
X143538394Y-73270707D01*
X143538394Y-73365945D01*
X143586014Y-73508802D01*
X143633633Y-73556421D01*
X144633633Y-73746897D02*
X144633633Y-74508802D01*
X143538394Y-74604040D02*
X144538394Y-74937373D01*
X143538394Y-75270707D01*
X144538394Y-75604040D02*
X143538394Y-75604040D01*
X143538394Y-75842135D01*
X143586014Y-75984992D01*
X143681252Y-76080231D01*
X143776490Y-76127850D01*
X143966966Y-76175469D01*
X144109823Y-76175469D01*
X144300299Y-76127850D01*
X144395537Y-76080231D01*
X144490775Y-75984992D01*
X144538394Y-75842135D01*
X144538394Y-75604040D01*
X144538394Y-76604040D02*
X143538394Y-76604040D01*
X143538394Y-76842135D01*
X143586014Y-76984992D01*
X143681252Y-77080231D01*
X143776490Y-77127850D01*
X143966966Y-77175469D01*
X144109823Y-77175469D01*
X144300299Y-77127850D01*
X144395537Y-77080231D01*
X144490775Y-76984992D01*
X144538394Y-76842135D01*
X144538394Y-76604040D01*
X144538394Y-78127850D02*
X144538394Y-77556421D01*
X144538394Y-77842135D02*
X143538394Y-77842135D01*
X143681252Y-77746897D01*
X143776490Y-77651659D01*
X143824109Y-77556421D01*
D12*
%TO.C,C_VDDA1*%
X135948180Y-80832615D02*
X136163852Y-80832615D01*
X135948180Y-80112615D02*
X136163852Y-80112615D01*
%TO.C,U_Power1*%
X142146012Y-61152619D02*
X142796012Y-61152619D01*
X142146012Y-61152619D02*
X141496012Y-61152619D01*
X142146012Y-58032619D02*
X141496012Y-58032619D01*
X142146012Y-58032619D02*
X143821012Y-58032619D01*
%TO.C,D_SW_LSft1*%
X16956019Y-83451924D02*
X16956019Y-79551924D01*
X18956019Y-83451924D02*
X18956019Y-79551924D01*
X18956019Y-83451924D02*
X16956019Y-83451924D01*
%TO.C,D_SW_Comm1*%
X216061928Y-84090263D02*
X214105633Y-84506087D01*
X216061928Y-84090263D02*
X215251072Y-80275488D01*
X214105633Y-84506087D02*
X213294777Y-80691311D01*
%TO.C,C_VDDA2*%
X135948171Y-81192617D02*
X136163843Y-81192617D01*
X135948171Y-81912617D02*
X136163843Y-81912617D01*
%TO.C,D_SW_B2*%
X160146252Y-95974391D02*
X159335396Y-92159616D01*
X158189957Y-96390215D02*
X157379101Y-92575439D01*
X160146252Y-95974391D02*
X158189957Y-96390215D01*
%TO.C,D_SW_W1*%
X61675051Y-45125527D02*
X62485907Y-41310752D01*
X63631346Y-45541351D02*
X61675051Y-45125527D01*
X63631346Y-45541351D02*
X64442202Y-41726575D01*
D13*
%TO.C,D_LED_Scroll1*%
X-25077876Y-103783973D02*
X-25077876Y-101243973D01*
X-25077271Y-103835494D02*
G75*
G03*
X-25077876Y-101193173I1574195J1321521D01*
G01*
D12*
%TO.C,D_SW_PP2*%
X275446017Y-27807720D02*
X273446017Y-27807720D01*
X273446017Y-27807720D02*
X273446017Y-23907720D01*
X275446017Y-27807720D02*
X275446017Y-23907720D01*
%TO.C,R_LED2*%
X-23095432Y-100643968D02*
X-23402714Y-100643968D01*
X-23095432Y-99883968D02*
X-23402714Y-99883968D01*
%TO.C,D_SW_L1*%
X219469146Y-63874412D02*
X218658290Y-60059636D01*
X221425441Y-63458588D02*
X219469146Y-63874412D01*
X221425441Y-63458588D02*
X220614585Y-59643813D01*
%TO.C,R_Shield1*%
X152084562Y-13253976D02*
X151777280Y-13253976D01*
X152084562Y-14013976D02*
X151777280Y-14013976D01*
%TO.C,D_SW_1*%
X36476023Y-26296369D02*
X36476023Y-22396369D01*
X38476023Y-26296369D02*
X38476023Y-22396369D01*
X38476023Y-26296369D02*
X36476023Y-26296369D01*
%TO.C,D_SW_LCtl1*%
X9826014Y-102516366D02*
X9826014Y-98616366D01*
X11826014Y-102516366D02*
X9826014Y-102516366D01*
X11826014Y-102516366D02*
X11826014Y-98616366D01*
%TO.C,RESET1*%
X140066014Y-86382621D02*
X140516014Y-86832621D01*
X143016014Y-81332621D02*
X140516014Y-81332621D01*
X144516014Y-83082621D02*
X144516014Y-85082621D01*
X143016014Y-86832621D02*
X140516014Y-86832621D01*
X139016014Y-83082621D02*
X139016014Y-85082621D01*
X140066014Y-81782621D02*
X140516014Y-81332621D01*
X143466014Y-86382621D02*
X143016014Y-86832621D01*
X143466014Y-81782621D02*
X143016014Y-81332621D01*
%TO.C,U_MCU1*%
X133596012Y-76292614D02*
X134046012Y-76292614D01*
X140366012Y-76292614D02*
X140366012Y-77582614D01*
X140816012Y-76292614D02*
X140366012Y-76292614D01*
X140816012Y-69072614D02*
X140366012Y-69072614D01*
X140816012Y-69522614D02*
X140816012Y-69072614D01*
X140816012Y-75842614D02*
X140816012Y-76292614D01*
X133596012Y-75842614D02*
X133596012Y-76292614D01*
X133596012Y-69522614D02*
X133596012Y-69072614D01*
X133596012Y-69072614D02*
X134046012Y-69072614D01*
%TO.C,R_BOOT1*%
X147346017Y-76258976D02*
X147346017Y-76566258D01*
X148106017Y-76258976D02*
X148106017Y-76566258D01*
%TO.C,BOOT1*%
X147786013Y-81467613D02*
X153486013Y-81467613D01*
X147186013Y-83267613D02*
X147186013Y-82477613D01*
X150536013Y-80177613D02*
X150536013Y-81467613D01*
X150536013Y-80177613D02*
X150336013Y-79967613D01*
X149436013Y-79967613D02*
X150336013Y-79967613D01*
X154086013Y-82477613D02*
X154086013Y-83267613D01*
X149236013Y-81467613D02*
X149236013Y-80177613D01*
X149036013Y-84317613D02*
X150736013Y-84317613D01*
X149236013Y-80177613D02*
X149436013Y-79967613D01*
X152036013Y-84317613D02*
X152236013Y-84317613D01*
%TO.C,C_VDD2*%
X144356012Y-75640453D02*
X144356012Y-75424781D01*
X143636012Y-75640453D02*
X143636012Y-75424781D01*
%TO.C,D_SW_Del1*%
X-3569071Y-24167722D02*
X-3569071Y-20267722D01*
X-5569071Y-24167722D02*
X-5569071Y-20267722D01*
X-3569071Y-24167722D02*
X-5569071Y-24167722D01*
%TO.C,D_PWR1*%
X153270927Y-18683968D02*
X149370927Y-18683968D01*
X153270927Y-18683968D02*
X153270927Y-20683968D01*
X153270927Y-20683968D02*
X149370927Y-20683968D01*
%TO.C,D_SW_Esc1*%
X19446005Y-26296364D02*
X19446005Y-22396364D01*
X19446005Y-26296364D02*
X17446005Y-26296364D01*
X17446005Y-26296364D02*
X17446005Y-22396364D01*
%TO.C,D_SW_6*%
X130848725Y-40359486D02*
X131659581Y-36544711D01*
X132805020Y-40775310D02*
X133615876Y-36960534D01*
X132805020Y-40775310D02*
X130848725Y-40359486D01*
%TO.C,F1*%
X146600921Y-18325392D02*
X146600921Y-18842548D01*
X148020921Y-18325392D02*
X148020921Y-18842548D01*
%TO.C,D_SW_4*%
X95529234Y-32858322D02*
X93572939Y-32442498D01*
X95529234Y-32858322D02*
X96340090Y-29043546D01*
X93572939Y-32442498D02*
X94383795Y-28627723D01*
%TO.C,D_SW_Quot1*%
X258406016Y-64396362D02*
X258406016Y-60496362D01*
X260406016Y-64396362D02*
X258406016Y-64396362D01*
X260406016Y-64396362D02*
X260406016Y-60496362D01*
%TO.C,D_SW_F1*%
X101580951Y-73105775D02*
X99624656Y-72689951D01*
X101580951Y-73105775D02*
X102391807Y-69290999D01*
X99624656Y-72689951D02*
X100435512Y-68875176D01*
%TO.C,D_SW_J1*%
X182185441Y-71831197D02*
X181374585Y-68016421D01*
X184141736Y-71415373D02*
X183330880Y-67600598D01*
X184141736Y-71415373D02*
X182185441Y-71831197D01*
%TO.C,D_SW_A1*%
X42556015Y-64412617D02*
X42556015Y-60512617D01*
X44556015Y-64412617D02*
X44556015Y-60512617D01*
X44556015Y-64412617D02*
X42556015Y-64412617D01*
%TO.C,D_SW_8*%
X180880491Y-33157853D02*
X180069635Y-29343078D01*
X180880491Y-33157853D02*
X178924196Y-33573677D01*
X178924196Y-33573677D02*
X178113340Y-29758901D01*
%TO.C,D_SW_H1*%
X165511856Y-75382508D02*
X163555561Y-75798332D01*
X163555561Y-75798332D02*
X162744705Y-71983556D01*
X165511856Y-75382508D02*
X164701000Y-71567733D01*
%TO.C,D_SW_Tab1*%
X20046016Y-45366370D02*
X20046016Y-41466370D01*
X18046016Y-45366370D02*
X18046016Y-41466370D01*
X20046016Y-45366370D02*
X18046016Y-45366370D01*
%TO.C,D_SW_7*%
X160319946Y-37509167D02*
X159509090Y-33694391D01*
X162276241Y-37093343D02*
X161465385Y-33278568D01*
X162276241Y-37093343D02*
X160319946Y-37509167D01*
%TO.C,D_SW_Slsh1*%
X255026021Y-83476367D02*
X255026021Y-79576367D01*
X255026021Y-83476367D02*
X253026021Y-83476367D01*
X253026021Y-83476367D02*
X253026021Y-79576367D01*
D13*
%TO.C,D_LED_Layer1*%
X-25077872Y-108293980D02*
X-25077872Y-105753980D01*
X-25077267Y-108345501D02*
G75*
G03*
X-25077872Y-105703180I1574195J1321521D01*
G01*
D12*
%TO.C,C_VDDIO2*%
X140573854Y-65402617D02*
X140358182Y-65402617D01*
X140573854Y-66122617D02*
X140358182Y-66122617D01*
%TO.C,D_SW_Rsft1*%
X290756015Y-83432616D02*
X288756015Y-83432616D01*
X290756015Y-83432616D02*
X290756015Y-79532616D01*
X288756015Y-83432616D02*
X288756015Y-79532616D01*
%TO.C,R_LDO2*%
X146146013Y-59746255D02*
X146146013Y-59438973D01*
X145386013Y-59746255D02*
X145386013Y-59438973D01*
%TO.C,D_SW_Enter1*%
X291356017Y-64410825D02*
X289356017Y-64410825D01*
X291356017Y-64410825D02*
X291356017Y-60510825D01*
X289356017Y-64410825D02*
X289356017Y-60510825D01*
%TO.C,D_SW_Back1*%
X292866014Y-26317723D02*
X292866014Y-22417723D01*
X294866014Y-26317723D02*
X292866014Y-26317723D01*
X294866014Y-26317723D02*
X294866014Y-22417723D01*
%TO.C,D_SW_S1*%
X64337022Y-65181076D02*
X65147878Y-61366300D01*
X64337022Y-65181076D02*
X62380727Y-64765252D01*
X62380727Y-64765252D02*
X63191583Y-60950477D01*
%TO.C,D_SW_R1*%
X100865050Y-53478139D02*
X101675906Y-49663363D01*
X98908755Y-53062315D02*
X99719611Y-49247540D01*
X100865050Y-53478139D02*
X98908755Y-53062315D01*
%TO.C,D_SW_Y1*%
X154946645Y-58122916D02*
X154135789Y-54308140D01*
X156902940Y-57707092D02*
X156092084Y-53892317D01*
X156902940Y-57707092D02*
X154946645Y-58122916D01*
%TO.C,D_SW_X1*%
X67704680Y-85372772D02*
X68515536Y-81557997D01*
X69660975Y-85788596D02*
X70471831Y-81973820D01*
X69660975Y-85788596D02*
X67704680Y-85372772D01*
%TO.C,D_SW_M1*%
X197419962Y-88047623D02*
X195463667Y-88463447D01*
X195463667Y-88463447D02*
X194652811Y-84648671D01*
X197419962Y-88047623D02*
X196609106Y-84232848D01*
D13*
%TO.C,D_LED_Caps1*%
X-25077873Y-99293975D02*
X-25077873Y-96753975D01*
X-25077268Y-99345496D02*
G75*
G03*
X-25077873Y-96703175I1574195J1321521D01*
G01*
D12*
%TO.C,C_LDO2*%
X144266009Y-59700452D02*
X144266009Y-59484780D01*
X144986009Y-59700452D02*
X144986009Y-59484780D01*
%TO.C,D_SW_Caps1*%
X18396015Y-64356369D02*
X18396015Y-60456369D01*
X18396015Y-64356369D02*
X16396015Y-64356369D01*
X16396015Y-64356369D02*
X16396015Y-60456369D01*
%TO.C,D_SW_9*%
X199519958Y-29176559D02*
X198709102Y-25361784D01*
X199519958Y-29176559D02*
X197563663Y-29592383D01*
X197563663Y-29592383D02*
X196752807Y-25777607D01*
%TO.C,D_SW_Scln1*%
X241356023Y-64396374D02*
X241356023Y-60496374D01*
X239356023Y-64396374D02*
X239356023Y-60496374D01*
X241356023Y-64396374D02*
X239356023Y-64396374D01*
%TO.C,D_SW_Ie*%
X194188725Y-49780094D02*
X193377869Y-45965319D01*
X192232430Y-50195918D02*
X191421574Y-46381142D01*
X194188725Y-49780094D02*
X192232430Y-50195918D01*
%TO.C,D_SW_3*%
X74931203Y-28483065D02*
X75742059Y-24668290D01*
X76887498Y-28898889D02*
X74931203Y-28483065D01*
X76887498Y-28898889D02*
X77698354Y-25084113D01*
%TO.C,D_SW_LSpc1*%
X104266637Y-112619481D02*
X102310342Y-112203657D01*
X102310342Y-112203657D02*
X103121198Y-108388882D01*
X104266637Y-112619481D02*
X105077493Y-108804705D01*
D11*
%TO.C,D_ESD1*%
X144770932Y-18123971D02*
X144770932Y-15223971D01*
X143470932Y-15223971D02*
X144770932Y-15223971D01*
X144770932Y-18123971D02*
X143470932Y-18123971D01*
X143470932Y-18123971D02*
X143470932Y-15223971D01*
D12*
%TO.C,D_SW_B1*%
X125552492Y-97692291D02*
X123596197Y-97276467D01*
X125552492Y-97692291D02*
X126363348Y-93877515D01*
X123596197Y-97276467D02*
X124407053Y-93461692D01*
%TO.C,C_Shield1*%
X152038767Y-15073975D02*
X151823095Y-15073975D01*
X152038767Y-14353975D02*
X151823095Y-14353975D01*
%TO.C,D_SW_Eql1*%
X254736018Y-26286372D02*
X254736018Y-22386372D01*
X256736018Y-26286372D02*
X254736018Y-26286372D01*
X256736018Y-26286372D02*
X256736018Y-22386372D01*
%TO.C,D_SW_LBrc1*%
X249376011Y-45336378D02*
X249376011Y-41436378D01*
X251376011Y-45336378D02*
X249376011Y-45336378D01*
X251376011Y-45336378D02*
X251376011Y-41436378D01*
%TO.C,R_LED3*%
X-23095437Y-105143967D02*
X-23402719Y-105143967D01*
X-23095437Y-104383967D02*
X-23402719Y-104383967D01*
%TO.C,D_SW_RSpc1*%
X178522488Y-111561132D02*
X177711632Y-107746356D01*
X180478783Y-111145308D02*
X178522488Y-111561132D01*
X180478783Y-111145308D02*
X179667927Y-107330533D01*
%TO.C,R_LED1*%
X-23095435Y-94953976D02*
X-23402717Y-94953976D01*
X-23095435Y-95713976D02*
X-23402717Y-95713976D01*
%TO.C,D_SW_RCtl1*%
X298966019Y-102546371D02*
X296966019Y-102546371D01*
X298966019Y-102546371D02*
X298966019Y-98646371D01*
X296966019Y-102546371D02*
X296966019Y-98646371D01*
%TO.C,D_SW_Fn1*%
X307496013Y-83432620D02*
X305496013Y-83432620D01*
X307496013Y-83432620D02*
X307496013Y-79532620D01*
X305496013Y-83432620D02*
X305496013Y-79532620D01*
%TO.C,D_SW_P1*%
X232726011Y-44296370D02*
X230726011Y-44296370D01*
X232726011Y-44296370D02*
X232726011Y-40396370D01*
X230726011Y-44296370D02*
X230726011Y-40396370D01*
%TO.C,J_SWD1*%
X143921018Y-94631367D02*
X145251018Y-94631367D01*
X132431018Y-94631367D02*
X132431018Y-89431367D01*
X145251018Y-94631367D02*
X145251018Y-93301367D01*
X142651018Y-94631367D02*
X142651018Y-92031367D01*
X145251018Y-92031367D02*
X145251018Y-89431367D01*
X142651018Y-92031367D02*
X145251018Y-92031367D01*
X145251018Y-89431367D02*
X132431018Y-89431367D01*
X142651018Y-94631367D02*
X132431018Y-94631367D01*
%TO.C,D_SW_RAlt1*%
X220861205Y-104084895D02*
X218904910Y-104500719D01*
X218904910Y-104500719D02*
X218094054Y-100685943D01*
X220861205Y-104084895D02*
X220050349Y-100270120D01*
%TO.C,D_SW_D1*%
X82931290Y-69166571D02*
X80974995Y-68750747D01*
X82931290Y-69166571D02*
X83742146Y-65351795D01*
X80974995Y-68750747D02*
X81785851Y-64935972D01*
%TO.C,D_SW_V1*%
X106922618Y-93725162D02*
X104966323Y-93309338D01*
X104966323Y-93309338D02*
X105777179Y-89494563D01*
X106922618Y-93725162D02*
X107733474Y-89910386D01*
%TO.C,D_SW_C1*%
X86334357Y-89341981D02*
X87145213Y-85527206D01*
X88290652Y-89757805D02*
X89101508Y-85943029D01*
X88290652Y-89757805D02*
X86334357Y-89341981D01*
%TO.C,D_LDO1*%
X140326011Y-63572619D02*
X144226011Y-63572619D01*
X140326011Y-61572619D02*
X144226011Y-61572619D01*
X140326011Y-63572619D02*
X140326011Y-61572619D01*
%TO.C,D_SW_Stop1*%
X235996017Y-83456371D02*
X233996017Y-83456371D01*
X235996017Y-83456371D02*
X235996017Y-79556371D01*
X233996017Y-83456371D02*
X233996017Y-79556371D01*
%TO.C,J_RGB1*%
X130436017Y-55422619D02*
X129106017Y-55422619D01*
X130436017Y-63162619D02*
X127776017Y-63162619D01*
X130436017Y-56752619D02*
X130436017Y-55422619D01*
X127776017Y-58022619D02*
X127776017Y-63162619D01*
X130436017Y-58022619D02*
X127776017Y-58022619D01*
X130436017Y-58022619D02*
X130436017Y-63162619D01*
%TO.C,D_SW_RBrc1*%
X268416011Y-45356365D02*
X268416011Y-41456365D01*
X270416011Y-45356365D02*
X268416011Y-45356365D01*
X270416011Y-45356365D02*
X270416011Y-41456365D01*
%TO.C,C_LDO1*%
X142038177Y-57672611D02*
X142253849Y-57672611D01*
X142038177Y-56952611D02*
X142253849Y-56952611D01*
%TO.C,D_SW_E1*%
X82233097Y-49530786D02*
X83043953Y-45716010D01*
X80276802Y-49114962D02*
X81087658Y-45300187D01*
X82233097Y-49530786D02*
X80276802Y-49114962D01*
%TO.C,D_SW_Q1*%
X43846013Y-45356367D02*
X43846013Y-41456367D01*
X43846013Y-45356367D02*
X41846013Y-45356367D01*
X41846013Y-45356367D02*
X41846013Y-41456367D01*
%TO.C,R_USB2*%
X139864565Y-13953973D02*
X139557283Y-13953973D01*
X139864565Y-14713973D02*
X139557283Y-14713973D01*
%TO.C,R_USB1*%
X149107282Y-13953971D02*
X149414564Y-13953971D01*
X149107282Y-14713971D02*
X149414564Y-14713971D01*
%TO.C,C_VDDIO1*%
X140573845Y-67172615D02*
X140358173Y-67172615D01*
X140573845Y-66452615D02*
X140358173Y-66452615D01*
%TO.C,D_SW_N1*%
X176841701Y-92440800D02*
X176030845Y-88626024D01*
X178797996Y-92024976D02*
X176841701Y-92440800D01*
X178797996Y-92024976D02*
X177987140Y-88210201D01*
%TO.C,R_RGB1*%
X136346016Y-65966259D02*
X136346016Y-65658977D01*
X135586016Y-65966259D02*
X135586016Y-65658977D01*
%TO.C,D_SW_U1*%
X173600470Y-54153277D02*
X172789614Y-50338501D01*
X175556765Y-53737453D02*
X173600470Y-54153277D01*
X175556765Y-53737453D02*
X174745909Y-49922678D01*
%TO.C,D_SW_Pipe1*%
X294236020Y-45366371D02*
X294236020Y-41466371D01*
X294236020Y-45366371D02*
X292236020Y-45366371D01*
X292236020Y-45366371D02*
X292236020Y-41466371D01*
%TO.C,D_SW_G1*%
X120212700Y-77055208D02*
X121023556Y-73240432D01*
X118256405Y-76639384D02*
X119067261Y-72824609D01*
X120212700Y-77055208D02*
X118256405Y-76639384D01*
%TO.C,D_SW_K1*%
X202771624Y-67428249D02*
X200815329Y-67844073D01*
X202771624Y-67428249D02*
X201960768Y-63613474D01*
X200815329Y-67844073D02*
X200004473Y-64029297D01*
%TO.C,D_SW_Up1*%
X-7733979Y-43206372D02*
X-9733979Y-43206372D01*
X-9733979Y-43206372D02*
X-9733979Y-39306372D01*
X-7733979Y-43206372D02*
X-7733979Y-39306372D01*
%TO.C,D_SW_5*%
X112194470Y-36404010D02*
X113005326Y-32589235D01*
X114150765Y-36819834D02*
X114961621Y-33005058D01*
X114150765Y-36819834D02*
X112194470Y-36404010D01*
%TO.C,R_LDO1*%
X141992370Y-55842615D02*
X142299652Y-55842615D01*
X141992370Y-56602615D02*
X142299652Y-56602615D01*
%TO.C,D_SW_Dn1*%
X-11793984Y-62266365D02*
X-13793984Y-62266365D01*
X-11793984Y-62266365D02*
X-11793984Y-58366365D01*
X-13793984Y-62266365D02*
X-13793984Y-58366365D01*
%TO.C,D_SW_LFn1*%
X132629861Y-118658041D02*
X133440717Y-114843266D01*
X134586156Y-119073865D02*
X135397012Y-115259089D01*
X134586156Y-119073865D02*
X132629861Y-118658041D01*
%TO.C,D_SW_Dash1*%
X238126019Y-24146366D02*
X238126019Y-20246366D01*
X238126019Y-24146366D02*
X236126019Y-24146366D01*
X236126019Y-24146366D02*
X236126019Y-20246366D01*
%TO.C,D_SW_Z1*%
X49886010Y-83456363D02*
X47886010Y-83456363D01*
X49886010Y-83456363D02*
X49886010Y-79556363D01*
X47886010Y-83456363D02*
X47886010Y-79556363D01*
%TO.C,D_SW_T1*%
X117560509Y-57021743D02*
X118371365Y-53206968D01*
X119516804Y-57437567D02*
X117560509Y-57021743D01*
X119516804Y-57437567D02*
X120327660Y-53622791D01*
%TO.C,C_VDD3*%
X131826012Y-69714777D02*
X131826012Y-69930449D01*
X131106012Y-69714777D02*
X131106012Y-69930449D01*
%TO.C,C_VDD1*%
X142566014Y-75640448D02*
X142566014Y-75424776D01*
X143286014Y-75640448D02*
X143286014Y-75424776D01*
%TO.C,D_SW_LAlt1*%
X64839631Y-105782993D02*
X65650487Y-101968217D01*
X64839631Y-105782993D02*
X62883336Y-105367169D01*
X62883336Y-105367169D02*
X63694192Y-101552394D01*
%TO.C,D_SW_0*%
X216217471Y-25622736D02*
X215406615Y-21807960D01*
X218173766Y-25206912D02*
X217362910Y-21392137D01*
X218173766Y-25206912D02*
X216217471Y-25622736D01*
%TO.C,D_SW_2*%
X57136003Y-24151711D02*
X57136003Y-20251711D01*
X57136003Y-24151711D02*
X55136003Y-24151711D01*
X55136003Y-24151711D02*
X55136003Y-20251711D01*
%TO.C,D_SW_O1*%
X212810473Y-45830670D02*
X211999617Y-42015895D01*
X212810473Y-45830670D02*
X210854178Y-46246494D01*
X210854178Y-46246494D02*
X210043322Y-42431718D01*
%TD*%
D14*
%TO.C,D_LED_Scroll1*%
X-21979076Y-102513973D03*
D15*
X-24519076Y-102513973D03*
%TD*%
D14*
%TO.C,D_LED_Layer1*%
X-21979072Y-107023980D03*
D15*
X-24519072Y-107023980D03*
%TD*%
D14*
%TO.C,D_LED_Caps1*%
X-21979073Y-98023975D03*
D15*
X-24519073Y-98023975D03*
%TD*%
%LPC*%
D16*
%TO.C,MX_Enter1*%
X292336013Y-61277067D03*
D17*
X287256013Y-61277067D03*
D18*
X299162263Y-68262067D03*
D16*
X282176013Y-61277067D03*
D17*
X299162263Y-53022067D03*
D18*
X275349763Y-68262067D03*
D17*
X275349763Y-53022067D03*
D19*
X283446013Y-58737067D03*
X289796013Y-56197067D03*
%TD*%
D17*
%TO.C,MX_Pipe1*%
X290136015Y-42232621D03*
D16*
X285056015Y-42232621D03*
X295216015Y-42232621D03*
D19*
X286326015Y-39692621D03*
X292676015Y-37152621D03*
%TD*%
D17*
%TO.C,MX_K1*%
X198116014Y-65212618D03*
D16*
X193147024Y-66268809D03*
X203085004Y-64156427D03*
D19*
X193861176Y-63520267D03*
X199544318Y-59715532D03*
%TD*%
D17*
%TO.C,MX_Back1*%
X281206014Y-23183966D03*
D16*
X276126014Y-23183966D03*
D18*
X293112264Y-16198966D03*
X269299764Y-16198966D03*
D17*
X293112264Y-31438966D03*
X269299764Y-31438966D03*
D16*
X286286014Y-23183966D03*
D19*
X277396014Y-20643966D03*
X283746014Y-18103966D03*
%TD*%
D16*
%TO.C,MX_RBrc1*%
X261236013Y-42222618D03*
X271396013Y-42222618D03*
D17*
X266316013Y-42222618D03*
D19*
X262506013Y-39682618D03*
X268856013Y-37142618D03*
%TD*%
D16*
%TO.C,MX-0*%
X208537019Y-24048811D03*
X218474999Y-21936429D03*
D17*
X213506009Y-22992620D03*
D19*
X209251171Y-21300269D03*
X214934313Y-17495534D03*
%TD*%
D16*
%TO.C,MX_U1*%
X165927025Y-52578810D03*
D17*
X170896015Y-51522619D03*
D16*
X175865005Y-50466428D03*
D19*
X166641177Y-49830268D03*
X172324319Y-46025533D03*
%TD*%
D16*
%TO.C,MX_D1*%
X74607024Y-64196426D03*
D17*
X79576014Y-65252617D03*
D16*
X84545004Y-66308808D03*
D19*
X76377367Y-61975979D03*
X83116700Y-60811723D03*
%TD*%
D16*
%TO.C,MX_N1*%
X169167021Y-90868809D03*
D17*
X174136011Y-89812618D03*
D16*
X179105001Y-88756427D03*
D19*
X169881173Y-88120267D03*
X175564315Y-84315532D03*
%TD*%
D17*
%TO.C,MX_E1*%
X78876012Y-45612618D03*
D16*
X83845002Y-46668809D03*
X73907022Y-44556427D03*
D19*
X75677365Y-42335980D03*
X82416698Y-41171724D03*
%TD*%
D17*
%TO.C,MX_M1*%
X192756014Y-85832621D03*
D16*
X187787024Y-86888812D03*
X197725004Y-84776430D03*
D19*
X188501176Y-84140270D03*
X194184318Y-80335535D03*
%TD*%
D16*
%TO.C,MX_B2*%
X150517025Y-94818810D03*
D17*
X155486015Y-93762619D03*
D16*
X160455005Y-92706428D03*
D19*
X151231177Y-92070268D03*
X156914319Y-88265533D03*
%TD*%
D16*
%TO.C,MX_Dn1*%
X-20973985Y-59132616D03*
X-10813985Y-59132616D03*
D17*
X-15893985Y-59132616D03*
D19*
X-19703985Y-56592616D03*
X-13353985Y-54052616D03*
%TD*%
D16*
%TO.C,MX_LFn2*%
X120047026Y-112776425D03*
D17*
X125016016Y-113832616D03*
D16*
X129985006Y-114888807D03*
D19*
X121817369Y-110555978D03*
X128556702Y-109391722D03*
%TD*%
D17*
%TO.C,MX_Caps1*%
X14296016Y-61222621D03*
D16*
X9216016Y-61222621D03*
X19376016Y-61222621D03*
D19*
X10486016Y-58682621D03*
X16836016Y-56142621D03*
%TD*%
D16*
%TO.C,MX_Esc1*%
X20426015Y-23162618D03*
D17*
X15346015Y-23162618D03*
D16*
X10266015Y-23162618D03*
D19*
X11536015Y-20622618D03*
X17886015Y-18082618D03*
%TD*%
D16*
%TO.C,MX_9*%
X189887025Y-28018811D03*
D17*
X194856015Y-26962620D03*
D16*
X199825005Y-25906429D03*
D19*
X190601177Y-25270269D03*
X196284319Y-21465534D03*
%TD*%
D16*
%TO.C,MX_Comm1*%
X216365009Y-80816426D03*
D17*
X211396019Y-81872617D03*
D16*
X206427029Y-82928808D03*
D19*
X207141181Y-80180266D03*
X212824323Y-76375531D03*
%TD*%
D16*
%TO.C,MX_LBrc1*%
X252356014Y-42202621D03*
X242196014Y-42202621D03*
D17*
X247276014Y-42202621D03*
D19*
X243466014Y-39662621D03*
X249816014Y-37122621D03*
%TD*%
D16*
%TO.C,MX_B1*%
X127165004Y-94828810D03*
D17*
X122196014Y-93772619D03*
D16*
X117227024Y-92716428D03*
D19*
X118997367Y-90495981D03*
X125736700Y-89331725D03*
%TD*%
D17*
%TO.C,MX_Z1*%
X45786012Y-80322613D03*
D16*
X50866012Y-80322613D03*
X40706012Y-80322613D03*
D19*
X41976012Y-77782613D03*
X48326012Y-75242613D03*
%TD*%
D16*
%TO.C,MX_W1*%
X55307024Y-40566425D03*
X65245004Y-42678807D03*
D17*
X60276014Y-41622616D03*
D19*
X57077367Y-38345978D03*
X63816700Y-37181722D03*
%TD*%
D16*
%TO.C,MX_Stop1*%
X226816014Y-80322620D03*
D17*
X231896014Y-80322620D03*
D16*
X236976014Y-80322620D03*
D19*
X228086014Y-77782620D03*
X234436014Y-75242620D03*
%TD*%
%TO.C,MX_R1*%
X101056700Y-45121726D03*
X94317367Y-46285982D03*
D16*
X102485004Y-50618811D03*
X92547024Y-48506429D03*
D17*
X97516014Y-49562620D03*
%TD*%
D16*
%TO.C,MX_RAlt1*%
X221175007Y-100816427D03*
X211237027Y-102928809D03*
D17*
X216206017Y-101872618D03*
D19*
X211951179Y-100180267D03*
X217634321Y-96375532D03*
%TD*%
D16*
%TO.C,MX_LAlt1*%
X66455006Y-102918806D03*
D17*
X61486016Y-101862615D03*
D16*
X56517026Y-100806424D03*
D19*
X58287369Y-98585977D03*
X65026702Y-97421721D03*
%TD*%
D17*
%TO.C,MX_X1*%
X66306014Y-81872620D03*
D16*
X61337024Y-80816429D03*
X71275004Y-82928811D03*
D19*
X63107367Y-78595982D03*
X69846700Y-77431726D03*
%TD*%
D16*
%TO.C,MX_RSft2*%
X282166016Y-80298874D03*
X272006016Y-80298874D03*
D17*
X277086016Y-80298874D03*
D19*
X273276016Y-77758874D03*
X279626016Y-75218874D03*
%TD*%
D17*
%TO.C,MX_Pipe2*%
X271636019Y-23183975D03*
D16*
X266556019Y-23183975D03*
X276716019Y-23183975D03*
D19*
X267826019Y-20643975D03*
X274176019Y-18103975D03*
%TD*%
D17*
%TO.C,MX_4*%
X92166014Y-28932617D03*
D16*
X87197024Y-27876426D03*
X97135004Y-29988808D03*
D19*
X88967367Y-25655979D03*
X95706700Y-24491723D03*
%TD*%
D16*
%TO.C,MX_F1*%
X103195005Y-70248811D03*
X93257025Y-68136429D03*
D17*
X98226015Y-69192620D03*
D19*
X95027368Y-65915982D03*
X101766701Y-64751726D03*
%TD*%
D16*
%TO.C,MX_RSpc1*%
X180785002Y-107876423D03*
D17*
X175816012Y-108932614D03*
D18*
X188914345Y-113289526D03*
D17*
X185745771Y-98382557D03*
X162453631Y-103333454D03*
D18*
X165622205Y-118240424D03*
D16*
X170847022Y-109988805D03*
D19*
X171561174Y-107240263D03*
X177244316Y-103435528D03*
%TD*%
D16*
%TO.C,MX_T1*%
X121125003Y-54578806D03*
D17*
X116156013Y-53522615D03*
D16*
X111187023Y-52466424D03*
D19*
X112957366Y-50245977D03*
X119696699Y-49081721D03*
%TD*%
D16*
%TO.C,MX_Slsh1*%
X256006008Y-80342619D03*
D17*
X250926008Y-80342619D03*
D16*
X245846008Y-80342619D03*
D19*
X247116008Y-77802619D03*
X253466008Y-75262619D03*
%TD*%
D16*
%TO.C,MX_Tab1*%
X10866015Y-42222621D03*
X21026015Y-42222621D03*
D17*
X15946015Y-42222621D03*
D19*
X12136015Y-39682621D03*
X18486015Y-37142621D03*
%TD*%
D17*
%TO.C,MX_RCtl1*%
X294866015Y-99412618D03*
D16*
X289786015Y-99412618D03*
X299946015Y-99412618D03*
D19*
X291056015Y-96872618D03*
X297406015Y-94332618D03*
%TD*%
D17*
%TO.C,MX_Up1*%
X-11833989Y-40072611D03*
D16*
X-16913989Y-40072611D03*
X-6753989Y-40072611D03*
D19*
X-15643989Y-37532611D03*
X-9293989Y-34992611D03*
%TD*%
D16*
%TO.C,MX_S1*%
X65945003Y-62318808D03*
D17*
X60976013Y-61262617D03*
D16*
X56007023Y-60206426D03*
D19*
X57777366Y-57985979D03*
X64516699Y-56821723D03*
%TD*%
D17*
%TO.C,MX_LSpc2*%
X94736014Y-107392620D03*
X84806255Y-96842563D03*
D18*
X104929821Y-116700430D03*
D16*
X99705004Y-108448811D03*
X89767024Y-106336429D03*
D18*
X81637681Y-111749532D03*
D17*
X108098395Y-101793460D03*
D19*
X91537367Y-104115982D03*
X98276700Y-102951726D03*
%TD*%
D16*
%TO.C,MX_3*%
X78505002Y-26038810D03*
D17*
X73536012Y-24982619D03*
D16*
X68567022Y-23926428D03*
D19*
X70337365Y-21705981D03*
X77076698Y-20541725D03*
%TD*%
D16*
%TO.C,MX_V1*%
X108535004Y-90858809D03*
D17*
X103566014Y-89802618D03*
D16*
X98597024Y-88746427D03*
D19*
X100367367Y-86525980D03*
X107106700Y-85361724D03*
%TD*%
D17*
%TO.C,MX_O1*%
X208146015Y-43612619D03*
D16*
X203177025Y-44668810D03*
X213115005Y-42556428D03*
D19*
X203891177Y-41920268D03*
X209574319Y-38115533D03*
%TD*%
D17*
%TO.C,MX_Dash1*%
X234026016Y-21012621D03*
D16*
X228946016Y-21012621D03*
X239106016Y-21012621D03*
D19*
X230216016Y-18472621D03*
X236566016Y-15932621D03*
%TD*%
D16*
%TO.C,MX_Eql1*%
X257716014Y-23152616D03*
D17*
X252636014Y-23152616D03*
D16*
X247556014Y-23152616D03*
D19*
X248826014Y-20612616D03*
X255176014Y-18072616D03*
%TD*%
D16*
%TO.C,MX_Scln1*%
X232176015Y-61262612D03*
X242336015Y-61262612D03*
D17*
X237256015Y-61262612D03*
D19*
X233446015Y-58722612D03*
X239796015Y-56182612D03*
%TD*%
%TO.C,MX_2*%
X55576016Y-15937963D03*
X49226016Y-18477963D03*
D16*
X58116016Y-21017963D03*
X47956016Y-21017963D03*
D17*
X53036016Y-21017963D03*
%TD*%
%TO.C,MX_LSpc1*%
X110398397Y-102283464D03*
D16*
X92067026Y-106826433D03*
D17*
X87106257Y-97332567D03*
D18*
X107229823Y-117190434D03*
D17*
X97036016Y-107882624D03*
D16*
X102005006Y-108938815D03*
D18*
X83937683Y-112239536D03*
D19*
X93837369Y-104605986D03*
X100576702Y-103441730D03*
%TD*%
D16*
%TO.C,MX_Q1*%
X44826013Y-42222620D03*
X34666013Y-42222620D03*
D17*
X39746013Y-42222620D03*
D19*
X35936013Y-39682620D03*
X42286013Y-37142620D03*
%TD*%
D16*
%TO.C,MX_I1*%
X194495006Y-46516425D03*
X184557026Y-48628807D03*
D17*
X189526016Y-47572616D03*
D19*
X185271178Y-45880265D03*
X190954320Y-42075530D03*
%TD*%
D17*
%TO.C,MX_Caps2*%
X9506014Y-61252614D03*
D16*
X4426014Y-61252614D03*
X14586014Y-61252614D03*
D19*
X5696014Y-58712614D03*
X12046014Y-56172614D03*
%TD*%
D16*
%TO.C,MX_5*%
X115755004Y-33958811D03*
D17*
X110786014Y-32902620D03*
D16*
X105817024Y-31846429D03*
D19*
X107587367Y-29625982D03*
X114326700Y-28461726D03*
%TD*%
D17*
%TO.C,MX_8*%
X176226014Y-30942617D03*
D16*
X171257024Y-31998808D03*
X181195004Y-29886426D03*
D19*
X171971176Y-29250266D03*
X177654318Y-25445531D03*
%TD*%
D16*
%TO.C,MX_Quot1*%
X251226015Y-61262618D03*
X261386015Y-61262618D03*
D17*
X256306015Y-61262618D03*
D19*
X252496015Y-58722618D03*
X258846015Y-56182618D03*
%TD*%
D16*
%TO.C,MX_C1*%
X89905004Y-86888807D03*
D17*
X84936014Y-85832616D03*
D16*
X79967024Y-84776425D03*
D19*
X81737367Y-82555978D03*
X88476700Y-81391722D03*
%TD*%
D16*
%TO.C,MX_6*%
X134415005Y-37918810D03*
D17*
X129446015Y-36862619D03*
D16*
X124477025Y-35806428D03*
D19*
X126247368Y-33585981D03*
X132986701Y-32421725D03*
%TD*%
D16*
%TO.C,MX_A1*%
X35376012Y-61278864D03*
X45536012Y-61278864D03*
D17*
X40456012Y-61278864D03*
D19*
X36646012Y-58738864D03*
X42996012Y-56198864D03*
%TD*%
D16*
%TO.C,MX_Back2*%
X295846015Y-23183966D03*
D17*
X290766015Y-23183966D03*
D16*
X285686015Y-23183966D03*
D19*
X286956015Y-20643966D03*
X293306015Y-18103966D03*
%TD*%
D17*
%TO.C,MX_H1*%
X160846016Y-73162620D03*
D16*
X165815006Y-72106429D03*
X155877026Y-74218811D03*
D19*
X156591178Y-71470269D03*
X162274320Y-67665534D03*
%TD*%
D16*
%TO.C,MX_Y1*%
X147277024Y-56548810D03*
D17*
X152246014Y-55492619D03*
D16*
X157215004Y-54436428D03*
D19*
X147991176Y-53800268D03*
X153674318Y-49995533D03*
%TD*%
D16*
%TO.C,MX_7*%
X152647024Y-35938807D03*
X162585004Y-33826425D03*
D17*
X157616014Y-34882616D03*
D19*
X153361176Y-33190265D03*
X159044318Y-29385530D03*
%TD*%
D16*
%TO.C,MX_P1*%
X233706013Y-41162616D03*
D17*
X228626013Y-41162616D03*
D16*
X223546013Y-41162616D03*
D19*
X224816013Y-38622616D03*
X231166013Y-36082616D03*
%TD*%
D17*
%TO.C,MX_Fn1*%
X303396014Y-80298868D03*
D16*
X298316014Y-80298868D03*
X308476014Y-80298868D03*
D19*
X299586014Y-77758868D03*
X305936014Y-75218868D03*
%TD*%
D18*
%TO.C,MX_RSft1*%
X274749762Y-73313866D03*
D17*
X274749762Y-88553866D03*
X298562262Y-88553866D03*
D18*
X298562262Y-73313866D03*
D16*
X291736012Y-80298866D03*
D17*
X286656012Y-80298866D03*
D16*
X281576012Y-80298866D03*
D19*
X282846012Y-77758866D03*
X289196012Y-75218866D03*
%TD*%
D16*
%TO.C,MX_G1*%
X111887019Y-72086427D03*
D17*
X116856009Y-73142618D03*
D16*
X121824999Y-74198809D03*
D19*
X113657362Y-69865980D03*
X120396695Y-68701724D03*
%TD*%
D17*
%TO.C,MX_LCtl1*%
X7726015Y-99382619D03*
D16*
X2646015Y-99382619D03*
X12806015Y-99382619D03*
D19*
X3916015Y-96842619D03*
X10266015Y-94302619D03*
%TD*%
D16*
%TO.C,MX_L1*%
X221735000Y-60186427D03*
X211797020Y-62298809D03*
D17*
X216766010Y-61242618D03*
D19*
X212511172Y-59550267D03*
X218194314Y-55745532D03*
%TD*%
D17*
%TO.C,MX_LSft1*%
X14856014Y-80318170D03*
D18*
X26762264Y-73333170D03*
D16*
X19936014Y-80318170D03*
X9776014Y-80318170D03*
D17*
X2949764Y-88573170D03*
X26762264Y-88573170D03*
D18*
X2949764Y-73333170D03*
D19*
X11046014Y-77778170D03*
X17396014Y-75238170D03*
%TD*%
D16*
%TO.C,MX_Del1*%
X-12749073Y-21033970D03*
D17*
X-7669073Y-21033970D03*
D16*
X-2589073Y-21033970D03*
D19*
X-11479073Y-18493970D03*
X-5129073Y-15953970D03*
%TD*%
D16*
%TO.C,MX_1*%
X39456014Y-23162619D03*
D17*
X34376014Y-23162619D03*
D16*
X29296014Y-23162619D03*
D19*
X30566014Y-20622619D03*
X36916014Y-18082619D03*
%TD*%
D17*
%TO.C,MX_J1*%
X179486015Y-69202618D03*
D16*
X184455005Y-68146427D03*
X174517025Y-70258809D03*
D19*
X175231177Y-67510267D03*
X180914319Y-63705532D03*
%TD*%
D16*
%TO.C,MX_LFn1*%
X132325001Y-115388813D03*
X122387021Y-113276431D03*
D17*
X127356011Y-114332622D03*
D19*
X124157364Y-111055984D03*
X130896697Y-109891728D03*
%TD*%
D20*
%TO.C,C_VDDA1*%
X135576016Y-80472615D03*
X136536016Y-80472615D03*
%TD*%
D21*
%TO.C,U_Power1*%
X143083512Y-58642619D03*
X143083512Y-60542619D03*
X141208512Y-59592619D03*
%TD*%
D22*
%TO.C,D_SW_LSft1*%
X17956019Y-82851924D03*
X17956019Y-79551924D03*
%TD*%
D23*
%TO.C,D_SW_Comm1*%
X214959033Y-83711287D03*
X214272925Y-80483399D03*
%TD*%
D20*
%TO.C,C_VDDA2*%
X135576007Y-81552617D03*
X136536007Y-81552617D03*
%TD*%
D23*
%TO.C,D_SW_B2*%
X159043357Y-95595415D03*
X158357249Y-92367527D03*
%TD*%
D24*
%TO.C,D_SW_W1*%
X62777946Y-44746551D03*
X63464054Y-41518663D03*
%TD*%
D14*
%TO.C,D_LED_Scroll1*%
X-21979076Y-102513973D03*
D15*
X-24519076Y-102513973D03*
%TD*%
D22*
%TO.C,D_SW_PP2*%
X274446017Y-27207720D03*
X274446017Y-23907720D03*
%TD*%
D25*
%TO.C,R_LED2*%
X-22739073Y-100263968D03*
X-23759073Y-100263968D03*
%TD*%
D23*
%TO.C,D_SW_L1*%
X220322546Y-63079612D03*
X219636438Y-59851724D03*
%TD*%
D25*
%TO.C,R_Shield1*%
X152440921Y-13633976D03*
X151420921Y-13633976D03*
%TD*%
D22*
%TO.C,D_SW_1*%
X37476023Y-25696369D03*
X37476023Y-22396369D03*
%TD*%
%TO.C,D_SW_LCtl1*%
X10826014Y-101916366D03*
X10826014Y-98616366D03*
%TD*%
D26*
%TO.C,RESET1*%
X144916014Y-82182621D03*
X138616014Y-82182621D03*
X138616014Y-85982621D03*
X144916014Y-85982621D03*
%TD*%
D27*
%TO.C,U_MCU1*%
X139956012Y-76845114D03*
X139456012Y-76845114D03*
X138956012Y-76845114D03*
X138456012Y-76845114D03*
X137956012Y-76845114D03*
X137456012Y-76845114D03*
X136956012Y-76845114D03*
X136456012Y-76845114D03*
X135956012Y-76845114D03*
X135456012Y-76845114D03*
X134956012Y-76845114D03*
X134456012Y-76845114D03*
D28*
X133043512Y-75432614D03*
X133043512Y-74932614D03*
X133043512Y-74432614D03*
X133043512Y-73932614D03*
X133043512Y-73432614D03*
X133043512Y-72932614D03*
X133043512Y-72432614D03*
X133043512Y-71932614D03*
X133043512Y-71432614D03*
X133043512Y-70932614D03*
X133043512Y-70432614D03*
X133043512Y-69932614D03*
D27*
X134456012Y-68520114D03*
X134956012Y-68520114D03*
X135456012Y-68520114D03*
X135956012Y-68520114D03*
X136456012Y-68520114D03*
X136956012Y-68520114D03*
X137456012Y-68520114D03*
X137956012Y-68520114D03*
X138456012Y-68520114D03*
X138956012Y-68520114D03*
X139456012Y-68520114D03*
X139956012Y-68520114D03*
D28*
X141368512Y-69932614D03*
X141368512Y-70432614D03*
X141368512Y-70932614D03*
X141368512Y-71432614D03*
X141368512Y-71932614D03*
X141368512Y-72432614D03*
X141368512Y-72932614D03*
X141368512Y-73432614D03*
X141368512Y-73932614D03*
X141368512Y-74432614D03*
X141368512Y-74932614D03*
X141368512Y-75432614D03*
%TD*%
D29*
%TO.C,R_BOOT1*%
X147726017Y-75902617D03*
X147726017Y-76922617D03*
%TD*%
D30*
%TO.C,BOOT1*%
X146986013Y-81767613D03*
X154286013Y-83977613D03*
D31*
X152136013Y-82867613D03*
D30*
X154286013Y-81767613D03*
D31*
X149136013Y-82867613D03*
D30*
X146986013Y-83977613D03*
D32*
X148386013Y-84627613D03*
X151386013Y-84627613D03*
X152886013Y-84627613D03*
%TD*%
D33*
%TO.C,C_VDD2*%
X143996012Y-76012617D03*
X143996012Y-75052617D03*
%TD*%
D22*
%TO.C,D_SW_Del1*%
X-4569071Y-23567722D03*
X-4569071Y-20267722D03*
%TD*%
D34*
%TO.C,D_PWR1*%
X152670927Y-19683968D03*
X149370927Y-19683968D03*
%TD*%
D22*
%TO.C,D_SW_Esc1*%
X18446005Y-25696364D03*
X18446005Y-22396364D03*
%TD*%
D24*
%TO.C,D_SW_6*%
X131951620Y-39980510D03*
X132637728Y-36752622D03*
%TD*%
D35*
%TO.C,F1*%
X147310921Y-17646470D03*
X147310921Y-19521470D03*
%TD*%
D24*
%TO.C,D_SW_4*%
X94675834Y-32063522D03*
X95361942Y-28835634D03*
%TD*%
D22*
%TO.C,D_SW_Quot1*%
X259406016Y-63796362D03*
X259406016Y-60496362D03*
%TD*%
D24*
%TO.C,D_SW_F1*%
X100727551Y-72310975D03*
X101413659Y-69083087D03*
%TD*%
D23*
%TO.C,D_SW_J1*%
X183038841Y-71036397D03*
X182352733Y-67808509D03*
%TD*%
D22*
%TO.C,D_SW_A1*%
X43556015Y-63812617D03*
X43556015Y-60512617D03*
%TD*%
D23*
%TO.C,D_SW_8*%
X179777596Y-32778877D03*
X179091488Y-29550989D03*
%TD*%
%TO.C,D_SW_H1*%
X164408961Y-75003532D03*
X163722853Y-71775644D03*
%TD*%
D22*
%TO.C,D_SW_Tab1*%
X19046016Y-44766370D03*
X19046016Y-41466370D03*
%TD*%
D23*
%TO.C,D_SW_7*%
X161173346Y-36714367D03*
X160487238Y-33486479D03*
%TD*%
D22*
%TO.C,D_SW_Slsh1*%
X254026021Y-82876367D03*
X254026021Y-79576367D03*
%TD*%
D14*
%TO.C,D_LED_Layer1*%
X-21979072Y-107023980D03*
D15*
X-24519072Y-107023980D03*
%TD*%
D36*
%TO.C,C_VDDIO2*%
X140946018Y-65762617D03*
X139986018Y-65762617D03*
%TD*%
D22*
%TO.C,D_SW_Rsft1*%
X289756015Y-82832616D03*
X289756015Y-79532616D03*
%TD*%
D37*
%TO.C,R_LDO2*%
X145766013Y-60102614D03*
X145766013Y-59082614D03*
%TD*%
D22*
%TO.C,D_SW_Enter1*%
X290356017Y-63810825D03*
X290356017Y-60510825D03*
%TD*%
%TO.C,D_SW_Back1*%
X293866014Y-25717723D03*
X293866014Y-22417723D03*
%TD*%
D24*
%TO.C,D_SW_S1*%
X63483622Y-64386276D03*
X64169730Y-61158388D03*
%TD*%
%TO.C,D_SW_R1*%
X100697758Y-49455451D03*
X100011650Y-52683339D03*
%TD*%
D38*
%TO.C,USB1*%
X147020923Y-10443968D03*
X141240923Y-10443968D03*
D39*
X140905923Y-11888968D03*
X141680923Y-11888968D03*
D40*
X142380923Y-11888968D03*
X142880923Y-11888968D03*
X143380923Y-11888968D03*
X143880923Y-11888968D03*
X144380923Y-11888968D03*
X144880923Y-11888968D03*
X145380923Y-11888968D03*
X145880923Y-11888968D03*
D39*
X146580923Y-11888968D03*
X147355923Y-11888968D03*
D41*
X139810923Y-6793968D03*
D42*
X148450923Y-10973968D03*
X139810923Y-10973968D03*
D41*
X148450923Y-6793968D03*
%TD*%
D23*
%TO.C,D_SW_Y1*%
X155800045Y-57328116D03*
X155113937Y-54100228D03*
%TD*%
D24*
%TO.C,D_SW_X1*%
X68807575Y-84993796D03*
X69493683Y-81765908D03*
%TD*%
D23*
%TO.C,D_SW_M1*%
X196317067Y-87668647D03*
X195630959Y-84440759D03*
%TD*%
D14*
%TO.C,D_LED_Caps1*%
X-21979073Y-98023975D03*
D15*
X-24519073Y-98023975D03*
%TD*%
D33*
%TO.C,C_LDO2*%
X144626009Y-60072616D03*
X144626009Y-59112616D03*
%TD*%
D22*
%TO.C,D_SW_Caps1*%
X17396015Y-63756369D03*
X17396015Y-60456369D03*
%TD*%
D23*
%TO.C,D_SW_9*%
X198417063Y-28797583D03*
X197730955Y-25569695D03*
%TD*%
D22*
%TO.C,D_SW_Scln1*%
X240356023Y-63796374D03*
X240356023Y-60496374D03*
%TD*%
D23*
%TO.C,D_SW_Ie*%
X193085830Y-49401118D03*
X192399722Y-46173230D03*
%TD*%
D24*
%TO.C,D_SW_3*%
X76034098Y-28104089D03*
X76720206Y-24876201D03*
%TD*%
%TO.C,D_SW_LSpc1*%
X103413237Y-111824681D03*
X104099345Y-108596793D03*
%TD*%
D43*
%TO.C,D_ESD1*%
X143120932Y-17423971D03*
D44*
X143120932Y-15723971D03*
X145120932Y-15723971D03*
X145120932Y-17623971D03*
%TD*%
D24*
%TO.C,D_SW_B1*%
X124699092Y-96897491D03*
X125385200Y-93669603D03*
%TD*%
D36*
%TO.C,C_Shield1*%
X152410931Y-14713975D03*
X151450931Y-14713975D03*
%TD*%
D22*
%TO.C,D_SW_Eql1*%
X255736018Y-25686372D03*
X255736018Y-22386372D03*
%TD*%
%TO.C,D_SW_LBrc1*%
X250376011Y-44736378D03*
X250376011Y-41436378D03*
%TD*%
D25*
%TO.C,R_LED3*%
X-22739078Y-104763967D03*
X-23759078Y-104763967D03*
%TD*%
D23*
%TO.C,D_SW_RSpc1*%
X179375888Y-110766332D03*
X178689780Y-107538444D03*
%TD*%
D25*
%TO.C,R_LED1*%
X-22739076Y-95333976D03*
X-23759076Y-95333976D03*
%TD*%
D22*
%TO.C,D_SW_RCtl1*%
X297966019Y-101946371D03*
X297966019Y-98646371D03*
%TD*%
%TO.C,D_SW_Fn1*%
X306496013Y-82832620D03*
X306496013Y-79532620D03*
%TD*%
%TO.C,D_SW_P1*%
X231726011Y-43696370D03*
X231726011Y-40396370D03*
%TD*%
D45*
%TO.C,J_SWD1*%
X143921018Y-93301367D03*
D46*
X143921018Y-90761367D03*
X141381018Y-93301367D03*
X141381018Y-90761367D03*
X138841018Y-93301367D03*
X138841018Y-90761367D03*
X136301018Y-93301367D03*
X136301018Y-90761367D03*
X133761018Y-93301367D03*
X133761018Y-90761367D03*
%TD*%
D23*
%TO.C,D_SW_RAlt1*%
X219758310Y-103705919D03*
X219072202Y-100478031D03*
%TD*%
D24*
%TO.C,D_SW_D1*%
X82077890Y-68371771D03*
X82763998Y-65143883D03*
%TD*%
%TO.C,D_SW_V1*%
X106069218Y-92930362D03*
X106755326Y-89702474D03*
%TD*%
%TO.C,D_SW_C1*%
X87437252Y-88963005D03*
X88123360Y-85735117D03*
%TD*%
D34*
%TO.C,D_LDO1*%
X140926011Y-62572619D03*
X144226011Y-62572619D03*
%TD*%
D22*
%TO.C,D_SW_Stop1*%
X234996017Y-82856371D03*
X234996017Y-79556371D03*
%TD*%
D45*
%TO.C,J_RGB1*%
X129106017Y-56752619D03*
D46*
X129106017Y-59292619D03*
X129106017Y-61832619D03*
%TD*%
D22*
%TO.C,D_SW_RBrc1*%
X269416011Y-44756365D03*
X269416011Y-41456365D03*
%TD*%
D20*
%TO.C,C_LDO1*%
X141666013Y-57312611D03*
X142626013Y-57312611D03*
%TD*%
D24*
%TO.C,D_SW_E1*%
X81379697Y-48735986D03*
X82065805Y-45508098D03*
%TD*%
D22*
%TO.C,D_SW_Q1*%
X42846013Y-44756367D03*
X42846013Y-41456367D03*
%TD*%
D25*
%TO.C,R_USB2*%
X140220924Y-14333973D03*
X139200924Y-14333973D03*
%TD*%
D47*
%TO.C,R_USB1*%
X148750923Y-14333971D03*
X149770923Y-14333971D03*
%TD*%
D36*
%TO.C,C_VDDIO1*%
X140946009Y-66812615D03*
X139986009Y-66812615D03*
%TD*%
D23*
%TO.C,D_SW_N1*%
X177695101Y-91646000D03*
X177008993Y-88418112D03*
%TD*%
D37*
%TO.C,R_RGB1*%
X135966016Y-66322618D03*
X135966016Y-65302618D03*
%TD*%
D23*
%TO.C,D_SW_U1*%
X174453870Y-53358477D03*
X173767762Y-50130589D03*
%TD*%
D22*
%TO.C,D_SW_Pipe1*%
X293236020Y-44766371D03*
X293236020Y-41466371D03*
%TD*%
D24*
%TO.C,D_SW_G1*%
X119359300Y-76260408D03*
X120045408Y-73032520D03*
%TD*%
D23*
%TO.C,D_SW_K1*%
X201668729Y-67049273D03*
X200982621Y-63821385D03*
%TD*%
D22*
%TO.C,D_SW_Up1*%
X-8733979Y-42606372D03*
X-8733979Y-39306372D03*
%TD*%
D24*
%TO.C,D_SW_5*%
X113297365Y-36025034D03*
X113983473Y-32797146D03*
%TD*%
D47*
%TO.C,R_LDO1*%
X141636011Y-56222615D03*
X142656011Y-56222615D03*
%TD*%
D22*
%TO.C,D_SW_Dn1*%
X-12793984Y-61666365D03*
X-12793984Y-58366365D03*
%TD*%
D24*
%TO.C,D_SW_LFn1*%
X133732756Y-118279065D03*
X134418864Y-115051177D03*
%TD*%
D22*
%TO.C,D_SW_Dash1*%
X237126019Y-23546366D03*
X237126019Y-20246366D03*
%TD*%
%TO.C,D_SW_Z1*%
X48886010Y-82856363D03*
X48886010Y-79556363D03*
%TD*%
D24*
%TO.C,D_SW_T1*%
X118663404Y-56642767D03*
X119349512Y-53414879D03*
%TD*%
D48*
%TO.C,C_VDD3*%
X131466012Y-69342613D03*
X131466012Y-70302613D03*
%TD*%
D33*
%TO.C,C_VDD1*%
X142926014Y-76012612D03*
X142926014Y-75052612D03*
%TD*%
D24*
%TO.C,D_SW_LAlt1*%
X63986231Y-104988193D03*
X64672339Y-101760305D03*
%TD*%
D23*
%TO.C,D_SW_0*%
X217070871Y-24827936D03*
X216384763Y-21600048D03*
%TD*%
D22*
%TO.C,D_SW_2*%
X56136003Y-20251711D03*
X56136003Y-23551711D03*
%TD*%
D23*
%TO.C,D_SW_O1*%
X211707578Y-45451694D03*
X211021470Y-42223806D03*
%TD*%
M02*
