M48
; DRILL file {KiCad (6.0.0)} date Tue Mar  8 04:10:18 2022
; FORMAT={-:-/ absolute / inch / decimal}
; #@! TF.CreationDate,2022-03-08T04:10:18+02:00
; #@! TF.GenerationSoftware,Kicad,Pcbnew,(6.0.0)
; #@! TF.FileFunction,NonPlated,1,2,NPTH
FMAT,2
INCH
; #@! TA.AperFunction,NonPlated,NPTH,ComponentDrill
T1C0.0256
; #@! TA.AperFunction,NonPlated,NPTH,ComponentDrill
T2C0.0354
; #@! TA.AperFunction,NonPlated,NPTH,ComponentDrill
T3C0.0689
; #@! TA.AperFunction,NonPlated,NPTH,ComponentDrill
T4C0.1200
; #@! TA.AperFunction,NonPlated,NPTH,ComponentDrill
T5C0.1570
%
G90
G05
T1
X5.5607Y-0.4112
X5.7882Y-0.4112
T2
X5.8715Y-3.2625
X5.9896Y-3.2625
T3
X-0.8257Y-2.3281
X-0.6659Y-1.5777
X-0.5019Y-0.8281
X-0.4257Y-2.3281
X-0.2659Y-1.5777
X-0.1019Y-0.8281
X0.1042Y-3.9127
X0.1743Y-2.4115
X0.3628Y-2.4103
X0.3849Y-3.1621
X0.4042Y-0.9119
X0.4278Y-1.6623
X0.5042Y-3.9127
X0.5743Y-2.4115
X0.7628Y-2.4103
X0.7849Y-3.1621
X0.8042Y-0.9119
X0.8278Y-1.6623
X1.1534Y-0.9119
X1.3648Y-1.6623
X1.3928Y-2.4126
X1.5534Y-0.9119
X1.6026Y-3.1623
X1.7648Y-1.6623
X1.7928Y-2.4126
X1.888Y-0.8275
X2.0026Y-3.1623
X2.1774Y-1.5971
X2.205Y-2.3703
X2.2251Y-3.9688
X2.288Y-0.8275
X2.4148Y-3.1817
X2.5687Y-1.6803
X2.5963Y-2.4535
X2.6163Y-4.0519
X2.6995Y-0.942
X2.8061Y-3.2649
X2.9097Y-1.7542
X2.9373Y-2.5274
X3.0907Y-1.0252
X3.1483Y-3.3377
X3.301Y-1.8374
X3.3285Y-2.6106
X3.433Y-1.0975
X3.5341Y-4.1865
X3.5396Y-3.4208
X3.6247Y-4.2058
X3.6436Y-1.9097
X3.6715Y-2.6825
X3.8242Y-1.1807
X3.8818Y-3.494
X3.9254Y-4.2696
X4.0159Y-4.2889
X4.0348Y-1.9929
X4.0628Y-2.7657
X4.166Y-1.2538
X4.273Y-3.5771
X4.3774Y-2.0656
X4.405Y-2.838
X4.5573Y-1.337
X4.6152Y-3.6503
X4.7263Y-4.44
X4.7687Y-2.1488
X4.7963Y-2.9212
X4.8184Y-4.4597
X4.9007Y-1.4097
X5.0065Y-3.7334
X5.1175Y-4.5232
X5.2096Y-4.5429
X5.2919Y-1.4929
X5.7983Y-2.2263
X5.9259Y-3.733
X6.0097Y-1.4149
X6.1369Y-2.922
X6.1896Y-2.1432
X6.3171Y-3.6499
X6.401Y-1.3317
X6.5281Y-2.8388
X6.5326Y-2.07
X6.6601Y-3.5775
X6.7263Y-4.3303
X6.7424Y-1.2598
X6.8707Y-2.7661
X6.9238Y-1.9869
X7.0514Y-3.4943
X7.1175Y-4.2471
X7.1337Y-1.1766
X7.262Y-2.6829
X7.266Y-1.9145
X7.3932Y-3.4208
X7.4759Y-1.1031
X7.6042Y-2.609
X7.6573Y-1.8314
X7.7844Y-3.3377
X7.8671Y-1.0199
X7.9955Y-2.5258
X7.9991Y-1.7586
X8.127Y-3.2649
X8.2101Y-0.9468
X8.3164Y-4.0523
X8.3385Y-2.4527
X8.3904Y-1.6754
X8.5183Y-3.1817
X8.6014Y-0.8636
X8.7077Y-3.9692
X8.7297Y-2.3695
X8.801Y-1.6206
X8.9298Y-3.1623
X9.0136Y-0.8273
X9.1408Y-2.4119
X9.201Y-1.6206
X9.3298Y-3.1623
X9.4136Y-0.8273
X9.5353Y-1.6615
X9.5408Y-2.4119
X9.679Y-3.1631
X9.7463Y-0.9115
X9.8908Y-2.4119
X9.9353Y-1.6615
X10.079Y-3.1631
X10.1463Y-0.9115
X10.2849Y-1.6623
X10.2908Y-2.4119
X10.4943Y-0.9128
X10.6849Y-1.6623
X10.7089Y-3.1614
X10.8711Y-0.9128
X10.8943Y-0.9128
X11.0857Y-3.1614
X11.1089Y-3.1614
X11.1093Y-2.4125
X11.2227Y-1.6627
X11.2475Y-0.9128
X11.2711Y-0.9128
X11.4089Y-3.9139
X11.4857Y-3.1614
X11.5093Y-2.4125
X11.6227Y-1.6627
X11.6475Y-0.9128
X11.7447Y-3.1614
X11.8089Y-3.9139
X12.1447Y-3.1614
T4
X0.1161Y-2.8871
X1.0536Y-2.8871
X3.2141Y-4.3996
X3.3046Y-4.4189
X4.1311Y-4.5945
X4.2216Y-4.6138
X6.5206Y-4.6551
X7.4376Y-4.4602
X10.6024Y-0.6378
X10.8169Y-2.8864
X10.8405Y-2.6875
X11.5399Y-0.6378
X11.7544Y-2.8864
X11.778Y-2.6875
T5
X-0.6257Y-2.3281
X-0.4659Y-1.5777
X-0.3019Y-0.8281
X0.1161Y-3.4871
X0.3042Y-3.9127
X0.3743Y-2.4115
X0.5628Y-2.4103
X0.5849Y-3.1621
X0.6042Y-0.9119
X0.6278Y-1.6623
X1.0536Y-3.4871
X1.3534Y-0.9119
X1.5648Y-1.6623
X1.5928Y-2.4126
X1.8026Y-3.1623
X2.088Y-0.8275
X2.3731Y-1.6387
X2.4006Y-2.4119
X2.4207Y-4.0103
X2.6105Y-3.2233
X2.8951Y-0.9836
X3.1054Y-1.7958
X3.1329Y-2.569
X3.3388Y-3.8127
X3.3439Y-3.3792
X3.4294Y-3.832
X3.6286Y-1.1391
X3.7298Y-4.2281
X3.8203Y-4.2473
X3.8392Y-1.9513
X3.8672Y-2.7241
X4.0774Y-3.5355
X4.2558Y-4.0076
X4.3464Y-4.0269
X4.3617Y-1.2954
X4.5731Y-2.1072
X4.6006Y-2.8796
X4.8109Y-3.6918
X4.9219Y-4.4816
X5.014Y-4.5013
X5.0963Y-1.4513
X5.9939Y-2.1847
X6.1215Y-3.6914
X6.2054Y-1.3733
X6.3325Y-2.8804
X6.3958Y-4.0682
X6.7282Y-2.0284
X6.8557Y-3.5359
X6.9219Y-4.2887
X6.938Y-1.2182
X7.0664Y-2.7245
X7.3128Y-3.8733
X7.4617Y-1.8729
X7.5888Y-3.3792
X7.6715Y-1.0615
X7.7998Y-2.5674
X8.1947Y-1.717
X8.3227Y-3.2233
X8.4057Y-0.9052
X8.512Y-4.0107
X8.5341Y-2.4111
X9.001Y-1.6206
X9.1298Y-3.1623
X9.2136Y-0.8273
X9.3408Y-2.4119
X9.7353Y-1.6615
X9.879Y-3.1631
X9.9463Y-0.9115
X10.0908Y-2.4119
X10.4849Y-1.6623
X10.6024Y-1.2378
X10.6943Y-0.9128
X10.8169Y-3.4864
X10.8405Y-2.0875
X10.9089Y-3.1614
X11.0711Y-0.9128
X11.2857Y-3.1614
X11.3093Y-2.4125
X11.4227Y-1.6627
X11.4475Y-0.9128
X11.5399Y-1.2378
X11.6089Y-3.9139
X11.7544Y-3.4864
X11.778Y-2.0875
X11.9447Y-3.1614
T0
M30
