%TF.GenerationSoftware,KiCad,Pcbnew,(6.0.0)*%
%TF.CreationDate,2022-03-14T10:16:23+02:00*%
%TF.ProjectId,Alice_PCB,416c6963-655f-4504-9342-2e6b69636164,rev?*%
%TF.SameCoordinates,Original*%
%TF.FileFunction,Profile,NP*%
%FSLAX46Y46*%
G04 Gerber Fmt 4.6, Leading zero omitted, Abs format (unit mm)*
G04 Created by KiCad (PCBNEW (6.0.0)) date 2022-03-14 10:16:23*
%MOMM*%
%LPD*%
G01*
G04 APERTURE LIST*
%TA.AperFunction,Profile*%
%ADD10C,0.100000*%
%TD*%
G04 APERTURE END LIST*
D10*
X138430000Y-41910000D02*
X-23108394Y-41902345D01*
X139065000Y-41275000D02*
X139065000Y-36512500D01*
X149860000Y-41910000D02*
X150564110Y-41902351D01*
X149225000Y-36512500D02*
X149225000Y-41275000D01*
X138430000Y-41910000D02*
G75*
G03*
X139065000Y-41275000I0J635000D01*
G01*
X149225000Y-41275000D02*
G75*
G03*
X149860000Y-41910000I635000J0D01*
G01*
X148590000Y-35877500D02*
X139700000Y-35877500D01*
X139700000Y-35877500D02*
G75*
G03*
X139065000Y-36512500I0J-635000D01*
G01*
X149225000Y-36512500D02*
G75*
G03*
X148590000Y-35877500I-635000J0D01*
G01*
X311811692Y-41908497D02*
X150881610Y-41902348D01*
X49656773Y-138741152D02*
X145045725Y-159016701D01*
X150564110Y-41902351D02*
X150881610Y-41902348D01*
X198189115Y-125404848D02*
G75*
G03*
X198189115Y-125404848I-1270003J0D01*
G01*
X49599110Y-138739846D02*
X49656773Y-138741152D01*
X313081692Y-43178494D02*
G75*
G03*
X311811692Y-41908497I-1269999J-2D01*
G01*
X186511698Y-46008496D02*
G75*
G03*
X186511698Y-46008496I-2600000J0D01*
G01*
X120084105Y-132707359D02*
G75*
G03*
X120084105Y-132707359I-1269999J0D01*
G01*
X105531701Y-47668498D02*
G75*
G03*
X105531701Y-47668498I-2600003J0D01*
G01*
X286454114Y-120324858D02*
G75*
G03*
X286454114Y-120324858I-1270006J0D01*
G01*
X36689101Y-116522959D02*
G75*
G03*
X36689101Y-116522959I-1270003J0D01*
G01*
X313081692Y-43178494D02*
X313081698Y-137468503D01*
X-24378386Y-43172354D02*
X-24378390Y-137152346D01*
X32079914Y-62613206D02*
G75*
G03*
X32079914Y-62613206I-1269999J0D01*
G01*
X145045725Y-159016701D02*
X240438908Y-138738458D01*
X110687963Y-72137809D02*
G75*
G03*
X110687963Y-72137809I-1270004J0D01*
G01*
X-24378390Y-137152346D02*
G75*
G03*
X-22790891Y-138739857I1587490J-21D01*
G01*
X240438908Y-138738458D02*
X311811696Y-138738498D01*
X-22790891Y-138739857D02*
X49599110Y-138739846D01*
X311811696Y-138738498D02*
G75*
G03*
X313081698Y-137468503I-2J1270004D01*
G01*
X-23108394Y-41902345D02*
G75*
G03*
X-24378386Y-43172354I17J-1270009D01*
G01*
X258683125Y-62619887D02*
G75*
G03*
X258683125Y-62619887I-1269997J0D01*
G01*
X170771982Y-72094698D02*
G75*
G03*
X170771982Y-72094698I-1270000J0D01*
G01*
M02*
