M48
; DRILL file {KiCad (6.0.0)} date Mon Mar 14 10:16:27 2022
; FORMAT={-:-/ absolute / inch / decimal}
; #@! TF.CreationDate,2022-03-14T10:16:27+02:00
; #@! TF.GenerationSoftware,Kicad,Pcbnew,(6.0.0)
; #@! TF.FileFunction,Plated,1,2,PTH
FMAT,2
INCH
; #@! TA.AperFunction,Plated,PTH,ViaDrill
T1C0.0157
; #@! TA.AperFunction,Plated,PTH,ComponentDrill
T2C0.0236
; #@! TA.AperFunction,Plated,PTH,ComponentDrill
T3C0.0390
; #@! TA.AperFunction,Plated,PTH,ComponentDrill
T4C0.0394
; #@! TA.AperFunction,Plated,PTH,ComponentDrill
T5C0.0579
%
G90
G05
T1
X0.5939Y-3.4447
X4.2412Y-3.8687
X4.7994Y-4.1887
X4.9343Y-2.6909
X5.0435Y-3.7876
X5.0585Y-3.9217
X5.1479Y-3.907
X5.2557Y-3.8731
X5.3368Y-3.4699
X5.3532Y-4.4836
X5.3639Y-3.4149
X5.3771Y-3.6987
X5.3943Y-4.5847
X5.4022Y-4.4305
X5.4092Y-3.4086
X5.4242Y-3.3651
X5.4827Y-1.6969
X5.5038Y-4.3254
X5.5158Y-3.7131
X5.5184Y-3.6302
X5.5392Y-3.2294
X5.5922Y-3.8656
X5.5953Y-1.7398
X5.6065Y-1.9794
X5.6231Y-3.7637
X5.6261Y-4.521
X5.6316Y-4.4548
X5.6369Y-1.7117
X5.6424Y-3.8954
X5.6528Y-1.7477
X5.661Y-2.773
X5.6654Y-4.521
X5.6709Y-4.4561
X5.6806Y-3.3106
X5.6921Y-1.7472
X5.7091Y-1.7118
X5.7309Y-3.8156
X5.7388Y-1.9487
X5.7389Y-4.1696
X5.7437Y-1.7305
X5.7538Y-4.3461
X5.7697Y-4.1273
X5.7715Y-2.7495
X5.7908Y-5.0457
X5.794Y-4.3449
X5.7984Y-1.8209
X5.8014Y-4.1024
X5.8175Y-5.8075
X5.8287Y-1.7047
X5.869Y-4.09
X5.8723Y-4.1292
X5.9375Y-4.1456
X6.0246Y-4.0168
X6.6872Y-3.9042
X10.403Y-3.2166
T3
X-0.9415Y-5.213
X-0.9415Y-5.0362
X-0.9415Y-5.3905
X-0.8415Y-5.213
X-0.8415Y-5.0362
X-0.8415Y-5.3905
T4
X5.1068Y-3.4114
X5.1068Y-3.5114
X5.1068Y-3.6114
X5.29Y-4.7503
X5.29Y-4.8503
X5.39Y-4.7503
X5.39Y-4.8503
X5.49Y-4.7503
X5.49Y-4.8503
X5.59Y-4.7503
X5.59Y-4.8503
X5.69Y-4.7503
X5.69Y-4.8503
T5
X-0.7519Y-3.4051
X-0.5921Y-2.6547
X-0.5019Y-3.3051
X-0.4281Y-1.9051
X-0.3421Y-2.5547
X-0.1781Y-1.8051
X0.178Y-4.9897
X0.2481Y-3.4885
X0.428Y-4.8897
X0.4367Y-3.4873
X0.4587Y-4.2391
X0.478Y-1.9889
X0.4981Y-3.3885
X0.5016Y-2.7393
X0.6867Y-3.3873
X0.7087Y-4.1391
X0.728Y-1.8889
X0.7516Y-2.6393
X1.2272Y-1.9889
X1.4386Y-2.7393
X1.4666Y-3.4896
X1.4772Y-1.8889
X1.6764Y-4.2393
X1.6886Y-2.6393
X1.7166Y-3.3896
X1.9264Y-4.1393
X1.9619Y-1.9045
X2.2119Y-1.8045
X2.271Y-2.6867
X2.2985Y-3.4599
X2.3186Y-5.0583
X2.5084Y-4.2713
X2.5363Y-2.6409
X2.5639Y-3.4141
X2.584Y-5.0125
X2.7737Y-4.2255
X2.793Y-2.0316
X3.0033Y-2.8438
X3.0308Y-3.617
X3.0584Y-1.9857
X3.2419Y-4.4272
X3.2686Y-2.7979
X3.2962Y-3.5712
X3.5072Y-4.3814
X3.5265Y-2.1871
X3.6277Y-5.2761
X3.7182Y-5.2953
X3.7371Y-2.9993
X3.7651Y-3.7721
X3.7918Y-2.1412
X3.893Y-5.2302
X3.9753Y-4.5835
X3.9836Y-5.2495
X4.0025Y-2.9534
X4.0304Y-3.7263
X4.2406Y-4.5377
X4.2596Y-2.3434
X4.471Y-3.1552
X4.4985Y-3.9276
X4.5249Y-2.2975
X4.7088Y-4.7398
X4.7363Y-3.1094
X4.7639Y-3.8818
X4.8198Y-5.5296
X4.9119Y-5.5493
X4.9741Y-4.694
X4.9942Y-2.4993
X5.0851Y-5.4838
X5.1773Y-5.5034
X5.2595Y-2.4534
X5.8503Y-3.2951
X5.9778Y-4.8018
X6.0617Y-2.4837
X6.074Y-3.1453
X6.1889Y-3.9908
X6.2016Y-4.652
X6.2854Y-2.3339
X6.4126Y-3.841
X6.5845Y-3.1388
X6.7121Y-4.6463
X6.7782Y-5.3991
X6.7944Y-2.3286
X6.8083Y-2.989
X6.9227Y-3.8349
X6.9358Y-4.4965
X7.002Y-5.2493
X7.0181Y-2.1788
X7.1465Y-3.6851
X7.318Y-2.9833
X7.4452Y-4.4896
X7.5278Y-2.1719
X7.5417Y-2.8335
X7.6562Y-3.6778
X7.6689Y-4.3398
X7.7516Y-2.0221
X7.8799Y-3.528
X8.0511Y-2.8274
X8.179Y-4.3337
X8.2621Y-2.0156
X8.2748Y-2.6776
X8.3684Y-5.1211
X8.3904Y-3.5215
X8.4028Y-4.1839
X8.4858Y-1.8658
X8.5921Y-4.9713
X8.6142Y-3.3717
X8.8749Y-2.6976
X9.0036Y-4.2393
X9.0875Y-1.9043
X9.1249Y-2.5976
X9.2146Y-3.4889
X9.2536Y-4.1393
X9.3375Y-1.8043
X9.4646Y-3.3889
X9.6091Y-2.7385
X9.7528Y-4.2401
X9.8201Y-1.9885
X9.8591Y-2.6385
X9.9646Y-3.4889
X10.0028Y-4.1401
X10.0701Y-1.8885
X10.2146Y-3.3889
X10.3587Y-2.7393
X10.5682Y-1.9898
X10.6087Y-2.6393
X10.7827Y-4.2384
X10.8182Y-1.8898
X10.9449Y-1.9898
X11.0327Y-4.1384
X11.1595Y-4.2384
X11.1831Y-3.4895
X11.1949Y-1.8898
X11.2965Y-2.7397
X11.3213Y-1.9898
X11.4095Y-4.1384
X11.4331Y-3.3895
X11.4827Y-4.9909
X11.5465Y-2.6397
X11.5713Y-1.8898
X11.7327Y-4.8909
X11.8186Y-4.2384
X12.0686Y-4.1384
T2
G00X5.5049Y-1.4628
M15
G01X5.5049Y-1.4392
M16
G05
G00X5.5049Y-1.6372
M15
G01X5.5049Y-1.5939
M16
G05
G00X5.8451Y-1.4628
M15
G01X5.8451Y-1.4392
M16
G05
G00X5.8451Y-1.6372
M15
G01X5.8451Y-1.5939
M16
G05
T0
M30
