M48
; DRILL file {KiCad (6.0.0)} date Tue Mar  8 04:10:18 2022
; FORMAT={-:-/ absolute / inch / decimal}
; #@! TF.CreationDate,2022-03-08T04:10:18+02:00
; #@! TF.GenerationSoftware,Kicad,Pcbnew,(6.0.0)
; #@! TF.FileFunction,Plated,1,2,PTH
FMAT,2
INCH
; #@! TA.AperFunction,Plated,PTH,ViaDrill
T1C0.0157
; #@! TA.AperFunction,Plated,PTH,ComponentDrill
T2C0.0236
; #@! TA.AperFunction,Plated,PTH,ComponentDrill
T3C0.0390
; #@! TA.AperFunction,Plated,PTH,ComponentDrill
T4C0.0394
; #@! TA.AperFunction,Plated,PTH,ComponentDrill
T5C0.0579
%
G90
G05
T1
X0.5701Y-2.2677
X4.2173Y-2.6917
X4.7756Y-3.0117
X4.9105Y-1.5139
X5.0197Y-2.6106
X5.0346Y-2.7447
X5.1241Y-2.73
X5.2318Y-2.6961
X5.313Y-2.2929
X5.3294Y-3.3066
X5.3401Y-2.2379
X5.3532Y-2.5217
X5.3705Y-3.4077
X5.3783Y-3.2535
X5.3854Y-2.2316
X5.4003Y-2.1881
X5.4799Y-3.1484
X5.492Y-2.5361
X5.4945Y-2.4532
X5.5154Y-2.0524
X5.5683Y-2.6886
X5.5827Y-0.8024
X5.5993Y-2.5867
X5.6022Y-3.344
X5.6077Y-3.2778
X5.6186Y-2.7184
X5.6371Y-1.596
X5.6416Y-3.344
X5.6471Y-3.2791
X5.6568Y-2.1336
X5.707Y-2.6386
X5.715Y-0.7717
X5.715Y-2.9926
X5.7233Y-0.5426
X5.7299Y-3.1691
X5.7459Y-2.9503
X5.7476Y-1.5725
X5.7669Y-3.8687
X5.7701Y-3.1679
X5.7776Y-2.9254
X5.7936Y-4.6305
X5.8178Y-0.5642
X5.8452Y-2.913
X5.8485Y-2.9522
X5.9136Y-2.9686
X6.0008Y-2.8398
X6.6634Y-2.7272
X10.3792Y-2.0396
T3
X-0.9653Y-4.036
X-0.9653Y-3.8592
X-0.9653Y-4.2135
X-0.8653Y-4.036
X-0.8653Y-3.8592
X-0.8653Y-4.2135
T4
X5.0829Y-2.2344
X5.0829Y-2.3344
X5.0829Y-2.4344
X5.2662Y-3.5733
X5.2662Y-3.6733
X5.3662Y-3.5733
X5.3662Y-3.6733
X5.4662Y-3.5733
X5.4662Y-3.6733
X5.5662Y-3.5733
X5.5662Y-3.6733
X5.6662Y-3.5733
X5.6662Y-3.6733
T5
X-0.7757Y-2.2281
X-0.6159Y-1.4777
X-0.5257Y-2.1281
X-0.4519Y-0.7281
X-0.3659Y-1.3777
X-0.2019Y-0.6281
X0.1542Y-3.8127
X0.2243Y-2.3115
X0.4042Y-3.7127
X0.4128Y-2.3103
X0.4349Y-3.0621
X0.4542Y-0.8119
X0.4743Y-2.2115
X0.4778Y-1.5623
X0.6628Y-2.2103
X0.6849Y-2.9621
X0.7042Y-0.7119
X0.7278Y-1.4623
X1.2034Y-0.8119
X1.4148Y-1.5623
X1.4428Y-2.3126
X1.4534Y-0.7119
X1.6526Y-3.0623
X1.6648Y-1.4623
X1.6928Y-2.2126
X1.9026Y-2.9623
X1.938Y-0.7275
X2.188Y-0.6275
X2.2471Y-1.5097
X2.2747Y-2.2829
X2.2948Y-3.8813
X2.4845Y-3.0943
X2.5125Y-1.4638
X2.54Y-2.2371
X2.5601Y-3.8355
X2.7499Y-3.0485
X2.7692Y-0.8546
X2.9794Y-1.6668
X3.007Y-2.44
X3.0345Y-0.8087
X3.218Y-3.2502
X3.2448Y-1.6209
X3.2723Y-2.3942
X3.4833Y-3.2044
X3.5027Y-1.0101
X3.6038Y-4.0991
X3.6944Y-4.1183
X3.7133Y-1.8223
X3.7412Y-2.5951
X3.768Y-0.9642
X3.8692Y-4.0532
X3.9515Y-3.4065
X3.9597Y-4.0725
X3.9786Y-1.7764
X4.0066Y-2.5493
X4.2168Y-3.3607
X4.2357Y-1.1664
X4.4471Y-1.9782
X4.4747Y-2.7506
X4.5011Y-1.1205
X4.6849Y-3.5628
X4.7125Y-1.9324
X4.74Y-2.7048
X4.796Y-4.3526
X4.8881Y-4.3723
X4.9503Y-3.517
X4.9704Y-1.3223
X5.0613Y-4.3068
X5.1534Y-4.3264
X5.2357Y-1.2764
X5.8264Y-2.1181
X5.954Y-3.6248
X6.0378Y-1.3067
X6.0502Y-1.9683
X6.165Y-2.8138
X6.1777Y-3.475
X6.2616Y-1.1569
X6.3888Y-2.664
X6.5607Y-1.9618
X6.6882Y-3.4693
X6.7544Y-4.2221
X6.7705Y-1.1516
X6.7844Y-1.812
X6.8989Y-2.6579
X6.912Y-3.3195
X6.9781Y-4.0723
X6.9943Y-1.0018
X7.1226Y-2.5081
X7.2941Y-1.8063
X7.4213Y-3.3126
X7.504Y-0.9949
X7.5179Y-1.6565
X7.6323Y-2.5008
X7.6451Y-3.1628
X7.7277Y-0.8451
X7.8561Y-2.351
X8.0272Y-1.6504
X8.1552Y-3.1567
X8.2382Y-0.8386
X8.251Y-1.5006
X8.3445Y-3.9441
X8.3666Y-2.3445
X8.3789Y-3.0069
X8.462Y-0.6888
X8.5683Y-3.7943
X8.5903Y-2.1947
X8.851Y-1.5206
X8.9798Y-3.0623
X9.0636Y-0.7273
X9.101Y-1.4206
X9.1908Y-2.3119
X9.2298Y-2.9623
X9.3136Y-0.6273
X9.4408Y-2.2119
X9.5853Y-1.5615
X9.729Y-3.0631
X9.7963Y-0.8115
X9.8353Y-1.4615
X9.9408Y-2.3119
X9.979Y-2.9631
X10.0463Y-0.7115
X10.1908Y-2.2119
X10.3349Y-1.5623
X10.5443Y-0.8128
X10.5849Y-1.4623
X10.7589Y-3.0614
X10.7943Y-0.7128
X10.9211Y-0.8128
X11.0089Y-2.9614
X11.1357Y-3.0614
X11.1593Y-2.3125
X11.1711Y-0.7128
X11.2727Y-1.5627
X11.2975Y-0.8128
X11.3857Y-2.9614
X11.4093Y-2.2125
X11.4589Y-3.8139
X11.5227Y-1.4627
X11.5475Y-0.7128
X11.7089Y-3.7139
X11.7947Y-3.0614
X12.0447Y-2.9614
T2
G00X5.5044Y-0.2557
M15
G01X5.5044Y-0.2793
M16
G05
G00X5.5044Y-0.4104
M15
G01X5.5044Y-0.4537
M16
G05
G00X5.8445Y-0.2557
M15
G01X5.8445Y-0.2793
M16
G05
G00X5.8445Y-0.4104
M15
G01X5.8445Y-0.4537
M16
G05
T0
M30
