%TF.GenerationSoftware,KiCad,Pcbnew,(6.0.0)*%
%TF.CreationDate,2022-03-08T04:10:16+02:00*%
%TF.ProjectId,Alice_PCB,416c6963-655f-4504-9342-2e6b69636164,rev?*%
%TF.SameCoordinates,Original*%
%TF.FileFunction,Profile,NP*%
%FSLAX46Y46*%
G04 Gerber Fmt 4.6, Leading zero omitted, Abs format (unit mm)*
G04 Created by KiCad (PCBNEW (6.0.0)) date 2022-03-08 04:10:16*
%MOMM*%
%LPD*%
G01*
G04 APERTURE LIST*
%TA.AperFunction,Profile*%
%ADD10C,0.100000*%
%TD*%
G04 APERTURE END LIST*
D10*
X312476008Y-13282614D02*
X312476014Y-107572623D01*
X311206008Y-12012617D02*
X150275926Y-12006468D01*
X312476008Y-13282614D02*
G75*
G03*
X311206008Y-12012617I-1270000J-3D01*
G01*
X239833224Y-108842578D02*
X311206012Y-108842618D01*
X311206012Y-108842617D02*
G75*
G03*
X312476014Y-107572623I1J1270001D01*
G01*
X49051089Y-108845272D02*
X144440041Y-129120821D01*
X149958426Y-12006471D02*
X150275926Y-12006468D01*
X197583431Y-95508968D02*
G75*
G03*
X197583431Y-95508968I-1270003J0D01*
G01*
X48993426Y-108843966D02*
X49051089Y-108845272D01*
X185906014Y-16112616D02*
G75*
G03*
X185906014Y-16112616I-2600000J0D01*
G01*
X119478421Y-102811479D02*
G75*
G03*
X119478421Y-102811479I-1269999J0D01*
G01*
X104926017Y-17772618D02*
G75*
G03*
X104926017Y-17772618I-2600003J0D01*
G01*
X138210929Y-12006467D02*
X-23714078Y-12006465D01*
X285848430Y-90428978D02*
G75*
G03*
X285848430Y-90428978I-1270006J0D01*
G01*
X36083417Y-86627079D02*
G75*
G03*
X36083417Y-86627079I-1270003J0D01*
G01*
X-24984070Y-13276474D02*
X-24984074Y-107256466D01*
X31474230Y-32717326D02*
G75*
G03*
X31474230Y-32717326I-1269999J0D01*
G01*
X139163427Y-6608967D02*
X139163424Y-11053969D01*
X144440041Y-129120821D02*
X239833224Y-108842578D01*
X139798428Y-5973977D02*
G75*
G03*
X139163427Y-6608967I-12J-634989D01*
G01*
X138210929Y-12006474D02*
G75*
G03*
X139163424Y-11053969I-8J952503D01*
G01*
X110082279Y-42241929D02*
G75*
G03*
X110082279Y-42241929I-1270004J0D01*
G01*
X-24984078Y-107256466D02*
G75*
G03*
X-23396575Y-108843977I1587497J-14D01*
G01*
X149005920Y-11053970D02*
G75*
G03*
X149958426Y-12006471I952502J1D01*
G01*
X-23396575Y-108843977D02*
X48993426Y-108843966D01*
X148370927Y-5973972D02*
X139798428Y-5973977D01*
X149005923Y-6608974D02*
X149005927Y-11053970D01*
X-23714078Y-12006466D02*
G75*
G03*
X-24984070Y-13276474I15J-1270007D01*
G01*
X258077441Y-32724007D02*
G75*
G03*
X258077441Y-32724007I-1269997J0D01*
G01*
X149005921Y-6608974D02*
G75*
G03*
X148370927Y-5973972I-635003J-1D01*
G01*
X170166298Y-42198818D02*
G75*
G03*
X170166298Y-42198818I-1270000J0D01*
G01*
M02*
