%TF.GenerationSoftware,KiCad,Pcbnew,(6.0.0)*%
%TF.CreationDate,2022-03-08T04:10:16+02:00*%
%TF.ProjectId,Alice_PCB,416c6963-655f-4504-9342-2e6b69636164,rev?*%
%TF.SameCoordinates,Original*%
%TF.FileFunction,Soldermask,Bot*%
%TF.FilePolarity,Negative*%
%FSLAX46Y46*%
G04 Gerber Fmt 4.6, Leading zero omitted, Abs format (unit mm)*
G04 Created by KiCad (PCBNEW (6.0.0)) date 2022-03-08 04:10:16*
%MOMM*%
%LPD*%
G01*
G04 APERTURE LIST*
G04 Aperture macros list*
%AMRoundRect*
0 Rectangle with rounded corners*
0 $1 Rounding radius*
0 $2 $3 $4 $5 $6 $7 $8 $9 X,Y pos of 4 corners*
0 Add a 4 corners polygon primitive as box body*
4,1,4,$2,$3,$4,$5,$6,$7,$8,$9,$2,$3,0*
0 Add four circle primitives for the rounded corners*
1,1,$1+$1,$2,$3*
1,1,$1+$1,$4,$5*
1,1,$1+$1,$6,$7*
1,1,$1+$1,$8,$9*
0 Add four rect primitives between the rounded corners*
20,1,$1+$1,$2,$3,$4,$5,0*
20,1,$1+$1,$4,$5,$6,$7,0*
20,1,$1+$1,$6,$7,$8,$9,0*
20,1,$1+$1,$8,$9,$2,$3,0*%
%AMRotRect*
0 Rectangle, with rotation*
0 The origin of the aperture is its center*
0 $1 length*
0 $2 width*
0 $3 Rotation angle, in degrees counterclockwise*
0 Add horizontal line*
21,1,$1,$2,0,0,$3*%
G04 Aperture macros list end*
%ADD10C,1.750000*%
%ADD11C,3.987800*%
%ADD12C,3.048000*%
%ADD13C,2.250000*%
%ADD14RoundRect,0.140000X-0.140000X-0.170000X0.140000X-0.170000X0.140000X0.170000X-0.140000X0.170000X0*%
%ADD15RoundRect,0.150000X0.587500X0.150000X-0.587500X0.150000X-0.587500X-0.150000X0.587500X-0.150000X0*%
%ADD16R,1.200000X0.900000*%
%ADD17RotRect,0.900000X1.200000X102.000000*%
%ADD18RotRect,0.900000X1.200000X78.000000*%
%ADD19O,1.905000X2.159000*%
%ADD20R,1.905000X2.159000*%
%ADD21RoundRect,0.135000X0.135000X0.185000X-0.135000X0.185000X-0.135000X-0.185000X0.135000X-0.185000X0*%
%ADD22R,1.700000X1.000000*%
%ADD23RoundRect,0.075000X0.075000X-0.662500X0.075000X0.662500X-0.075000X0.662500X-0.075000X-0.662500X0*%
%ADD24RoundRect,0.075000X0.662500X-0.075000X0.662500X0.075000X-0.662500X0.075000X-0.662500X-0.075000X0*%
%ADD25RoundRect,0.135000X-0.185000X0.135000X-0.185000X-0.135000X0.185000X-0.135000X0.185000X0.135000X0*%
%ADD26R,1.000000X0.800000*%
%ADD27C,0.900000*%
%ADD28R,0.700000X1.500000*%
%ADD29RoundRect,0.140000X0.170000X-0.140000X0.170000X0.140000X-0.170000X0.140000X-0.170000X-0.140000X0*%
%ADD30R,0.900000X1.200000*%
%ADD31RoundRect,0.243750X-0.456250X0.243750X-0.456250X-0.243750X0.456250X-0.243750X0.456250X0.243750X0*%
%ADD32RoundRect,0.140000X0.140000X0.170000X-0.140000X0.170000X-0.140000X-0.170000X0.140000X-0.170000X0*%
%ADD33RoundRect,0.135000X0.185000X-0.135000X0.185000X0.135000X-0.185000X0.135000X-0.185000X-0.135000X0*%
%ADD34C,0.750000*%
%ADD35RoundRect,0.050000X-0.300000X-0.725000X0.300000X-0.725000X0.300000X0.725000X-0.300000X0.725000X0*%
%ADD36RoundRect,0.050000X-0.150000X-0.725000X0.150000X-0.725000X0.150000X0.725000X-0.150000X0.725000X0*%
%ADD37O,1.100000X1.700000*%
%ADD38O,1.100000X2.200000*%
%ADD39R,0.700000X1.000000*%
%ADD40R,0.700000X0.600000*%
%ADD41R,1.700000X1.700000*%
%ADD42O,1.700000X1.700000*%
%ADD43RoundRect,0.135000X-0.135000X-0.185000X0.135000X-0.185000X0.135000X0.185000X-0.135000X0.185000X0*%
%ADD44RoundRect,0.140000X-0.170000X0.140000X-0.170000X-0.140000X0.170000X-0.140000X0.170000X0.140000X0*%
G04 APERTURE END LIST*
D10*
%TO.C,MX_Enter1*%
X292336013Y-61277067D03*
D11*
X287256013Y-61277067D03*
D12*
X299162263Y-68262067D03*
D10*
X282176013Y-61277067D03*
D11*
X299162263Y-53022067D03*
D12*
X275349763Y-68262067D03*
D11*
X275349763Y-53022067D03*
D13*
X283446013Y-58737067D03*
X289796013Y-56197067D03*
%TD*%
D11*
%TO.C,MX_Pipe1*%
X290136015Y-42232621D03*
D10*
X285056015Y-42232621D03*
X295216015Y-42232621D03*
D13*
X286326015Y-39692621D03*
X292676015Y-37152621D03*
%TD*%
D11*
%TO.C,MX_K1*%
X198116014Y-65212618D03*
D10*
X193147024Y-66268809D03*
X203085004Y-64156427D03*
D13*
X193861176Y-63520267D03*
X199544318Y-59715532D03*
%TD*%
D11*
%TO.C,MX_Back1*%
X281206014Y-23183966D03*
D10*
X276126014Y-23183966D03*
D12*
X293112264Y-16198966D03*
X269299764Y-16198966D03*
D11*
X293112264Y-31438966D03*
X269299764Y-31438966D03*
D10*
X286286014Y-23183966D03*
D13*
X277396014Y-20643966D03*
X283746014Y-18103966D03*
%TD*%
D10*
%TO.C,MX_RBrc1*%
X261236013Y-42222618D03*
X271396013Y-42222618D03*
D11*
X266316013Y-42222618D03*
D13*
X262506013Y-39682618D03*
X268856013Y-37142618D03*
%TD*%
D10*
%TO.C,MX-0*%
X208537019Y-24048811D03*
X218474999Y-21936429D03*
D11*
X213506009Y-22992620D03*
D13*
X209251171Y-21300269D03*
X214934313Y-17495534D03*
%TD*%
D10*
%TO.C,MX_U1*%
X165927025Y-52578810D03*
D11*
X170896015Y-51522619D03*
D10*
X175865005Y-50466428D03*
D13*
X166641177Y-49830268D03*
X172324319Y-46025533D03*
%TD*%
D10*
%TO.C,MX_D1*%
X74607024Y-64196426D03*
D11*
X79576014Y-65252617D03*
D10*
X84545004Y-66308808D03*
D13*
X76377367Y-61975979D03*
X83116700Y-60811723D03*
%TD*%
D10*
%TO.C,MX_N1*%
X169167021Y-90868809D03*
D11*
X174136011Y-89812618D03*
D10*
X179105001Y-88756427D03*
D13*
X169881173Y-88120267D03*
X175564315Y-84315532D03*
%TD*%
D11*
%TO.C,MX_E1*%
X78876012Y-45612618D03*
D10*
X83845002Y-46668809D03*
X73907022Y-44556427D03*
D13*
X75677365Y-42335980D03*
X82416698Y-41171724D03*
%TD*%
D11*
%TO.C,MX_M1*%
X192756014Y-85832621D03*
D10*
X187787024Y-86888812D03*
X197725004Y-84776430D03*
D13*
X188501176Y-84140270D03*
X194184318Y-80335535D03*
%TD*%
D10*
%TO.C,MX_B2*%
X150517025Y-94818810D03*
D11*
X155486015Y-93762619D03*
D10*
X160455005Y-92706428D03*
D13*
X151231177Y-92070268D03*
X156914319Y-88265533D03*
%TD*%
D10*
%TO.C,MX_Dn1*%
X-20973985Y-59132616D03*
X-10813985Y-59132616D03*
D11*
X-15893985Y-59132616D03*
D13*
X-19703985Y-56592616D03*
X-13353985Y-54052616D03*
%TD*%
D10*
%TO.C,MX_LFn2*%
X120047026Y-112776425D03*
D11*
X125016016Y-113832616D03*
D10*
X129985006Y-114888807D03*
D13*
X121817369Y-110555978D03*
X128556702Y-109391722D03*
%TD*%
D11*
%TO.C,MX_Caps1*%
X14296016Y-61222621D03*
D10*
X9216016Y-61222621D03*
X19376016Y-61222621D03*
D13*
X10486016Y-58682621D03*
X16836016Y-56142621D03*
%TD*%
D10*
%TO.C,MX_Esc1*%
X20426015Y-23162618D03*
D11*
X15346015Y-23162618D03*
D10*
X10266015Y-23162618D03*
D13*
X11536015Y-20622618D03*
X17886015Y-18082618D03*
%TD*%
D10*
%TO.C,MX_9*%
X189887025Y-28018811D03*
D11*
X194856015Y-26962620D03*
D10*
X199825005Y-25906429D03*
D13*
X190601177Y-25270269D03*
X196284319Y-21465534D03*
%TD*%
D10*
%TO.C,MX_Comm1*%
X216365009Y-80816426D03*
D11*
X211396019Y-81872617D03*
D10*
X206427029Y-82928808D03*
D13*
X207141181Y-80180266D03*
X212824323Y-76375531D03*
%TD*%
D10*
%TO.C,MX_LBrc1*%
X252356014Y-42202621D03*
X242196014Y-42202621D03*
D11*
X247276014Y-42202621D03*
D13*
X243466014Y-39662621D03*
X249816014Y-37122621D03*
%TD*%
D10*
%TO.C,MX_B1*%
X127165004Y-94828810D03*
D11*
X122196014Y-93772619D03*
D10*
X117227024Y-92716428D03*
D13*
X118997367Y-90495981D03*
X125736700Y-89331725D03*
%TD*%
D11*
%TO.C,MX_Z1*%
X45786012Y-80322613D03*
D10*
X50866012Y-80322613D03*
X40706012Y-80322613D03*
D13*
X41976012Y-77782613D03*
X48326012Y-75242613D03*
%TD*%
D10*
%TO.C,MX_W1*%
X55307024Y-40566425D03*
X65245004Y-42678807D03*
D11*
X60276014Y-41622616D03*
D13*
X57077367Y-38345978D03*
X63816700Y-37181722D03*
%TD*%
D10*
%TO.C,MX_Stop1*%
X226816014Y-80322620D03*
D11*
X231896014Y-80322620D03*
D10*
X236976014Y-80322620D03*
D13*
X228086014Y-77782620D03*
X234436014Y-75242620D03*
%TD*%
%TO.C,MX_R1*%
X101056700Y-45121726D03*
X94317367Y-46285982D03*
D10*
X102485004Y-50618811D03*
X92547024Y-48506429D03*
D11*
X97516014Y-49562620D03*
%TD*%
D10*
%TO.C,MX_RAlt1*%
X221175007Y-100816427D03*
X211237027Y-102928809D03*
D11*
X216206017Y-101872618D03*
D13*
X211951179Y-100180267D03*
X217634321Y-96375532D03*
%TD*%
D10*
%TO.C,MX_LAlt1*%
X66455006Y-102918806D03*
D11*
X61486016Y-101862615D03*
D10*
X56517026Y-100806424D03*
D13*
X58287369Y-98585977D03*
X65026702Y-97421721D03*
%TD*%
D11*
%TO.C,MX_X1*%
X66306014Y-81872620D03*
D10*
X61337024Y-80816429D03*
X71275004Y-82928811D03*
D13*
X63107367Y-78595982D03*
X69846700Y-77431726D03*
%TD*%
D10*
%TO.C,MX_RSft2*%
X282166016Y-80298874D03*
X272006016Y-80298874D03*
D11*
X277086016Y-80298874D03*
D13*
X273276016Y-77758874D03*
X279626016Y-75218874D03*
%TD*%
D11*
%TO.C,MX_Pipe2*%
X271636019Y-23183975D03*
D10*
X266556019Y-23183975D03*
X276716019Y-23183975D03*
D13*
X267826019Y-20643975D03*
X274176019Y-18103975D03*
%TD*%
D11*
%TO.C,MX_4*%
X92166014Y-28932617D03*
D10*
X87197024Y-27876426D03*
X97135004Y-29988808D03*
D13*
X88967367Y-25655979D03*
X95706700Y-24491723D03*
%TD*%
D10*
%TO.C,MX_F1*%
X103195005Y-70248811D03*
X93257025Y-68136429D03*
D11*
X98226015Y-69192620D03*
D13*
X95027368Y-65915982D03*
X101766701Y-64751726D03*
%TD*%
D10*
%TO.C,MX_RSpc1*%
X180785002Y-107876423D03*
D11*
X175816012Y-108932614D03*
D12*
X188914345Y-113289526D03*
D11*
X185745771Y-98382557D03*
X162453631Y-103333454D03*
D12*
X165622205Y-118240424D03*
D10*
X170847022Y-109988805D03*
D13*
X171561174Y-107240263D03*
X177244316Y-103435528D03*
%TD*%
D10*
%TO.C,MX_T1*%
X121125003Y-54578806D03*
D11*
X116156013Y-53522615D03*
D10*
X111187023Y-52466424D03*
D13*
X112957366Y-50245977D03*
X119696699Y-49081721D03*
%TD*%
D10*
%TO.C,MX_Slsh1*%
X256006008Y-80342619D03*
D11*
X250926008Y-80342619D03*
D10*
X245846008Y-80342619D03*
D13*
X247116008Y-77802619D03*
X253466008Y-75262619D03*
%TD*%
D10*
%TO.C,MX_Tab1*%
X10866015Y-42222621D03*
X21026015Y-42222621D03*
D11*
X15946015Y-42222621D03*
D13*
X12136015Y-39682621D03*
X18486015Y-37142621D03*
%TD*%
D11*
%TO.C,MX_RCtl1*%
X294866015Y-99412618D03*
D10*
X289786015Y-99412618D03*
X299946015Y-99412618D03*
D13*
X291056015Y-96872618D03*
X297406015Y-94332618D03*
%TD*%
D11*
%TO.C,MX_Up1*%
X-11833989Y-40072611D03*
D10*
X-16913989Y-40072611D03*
X-6753989Y-40072611D03*
D13*
X-15643989Y-37532611D03*
X-9293989Y-34992611D03*
%TD*%
D10*
%TO.C,MX_S1*%
X65945003Y-62318808D03*
D11*
X60976013Y-61262617D03*
D10*
X56007023Y-60206426D03*
D13*
X57777366Y-57985979D03*
X64516699Y-56821723D03*
%TD*%
D11*
%TO.C,MX_LSpc2*%
X94736014Y-107392620D03*
X84806255Y-96842563D03*
D12*
X104929821Y-116700430D03*
D10*
X99705004Y-108448811D03*
X89767024Y-106336429D03*
D12*
X81637681Y-111749532D03*
D11*
X108098395Y-101793460D03*
D13*
X91537367Y-104115982D03*
X98276700Y-102951726D03*
%TD*%
D10*
%TO.C,MX_3*%
X78505002Y-26038810D03*
D11*
X73536012Y-24982619D03*
D10*
X68567022Y-23926428D03*
D13*
X70337365Y-21705981D03*
X77076698Y-20541725D03*
%TD*%
D10*
%TO.C,MX_V1*%
X108535004Y-90858809D03*
D11*
X103566014Y-89802618D03*
D10*
X98597024Y-88746427D03*
D13*
X100367367Y-86525980D03*
X107106700Y-85361724D03*
%TD*%
D11*
%TO.C,MX_O1*%
X208146015Y-43612619D03*
D10*
X203177025Y-44668810D03*
X213115005Y-42556428D03*
D13*
X203891177Y-41920268D03*
X209574319Y-38115533D03*
%TD*%
D11*
%TO.C,MX_Dash1*%
X234026016Y-21012621D03*
D10*
X228946016Y-21012621D03*
X239106016Y-21012621D03*
D13*
X230216016Y-18472621D03*
X236566016Y-15932621D03*
%TD*%
D10*
%TO.C,MX_Eql1*%
X257716014Y-23152616D03*
D11*
X252636014Y-23152616D03*
D10*
X247556014Y-23152616D03*
D13*
X248826014Y-20612616D03*
X255176014Y-18072616D03*
%TD*%
D10*
%TO.C,MX_Scln1*%
X232176015Y-61262612D03*
X242336015Y-61262612D03*
D11*
X237256015Y-61262612D03*
D13*
X233446015Y-58722612D03*
X239796015Y-56182612D03*
%TD*%
%TO.C,MX_2*%
X55576016Y-15937963D03*
X49226016Y-18477963D03*
D10*
X58116016Y-21017963D03*
X47956016Y-21017963D03*
D11*
X53036016Y-21017963D03*
%TD*%
%TO.C,MX_LSpc1*%
X110398397Y-102283464D03*
D10*
X92067026Y-106826433D03*
D11*
X87106257Y-97332567D03*
D12*
X107229823Y-117190434D03*
D11*
X97036016Y-107882624D03*
D10*
X102005006Y-108938815D03*
D12*
X83937683Y-112239536D03*
D13*
X93837369Y-104605986D03*
X100576702Y-103441730D03*
%TD*%
D10*
%TO.C,MX_Q1*%
X44826013Y-42222620D03*
X34666013Y-42222620D03*
D11*
X39746013Y-42222620D03*
D13*
X35936013Y-39682620D03*
X42286013Y-37142620D03*
%TD*%
D10*
%TO.C,MX_I1*%
X194495006Y-46516425D03*
X184557026Y-48628807D03*
D11*
X189526016Y-47572616D03*
D13*
X185271178Y-45880265D03*
X190954320Y-42075530D03*
%TD*%
D11*
%TO.C,MX_Caps2*%
X9506014Y-61252614D03*
D10*
X4426014Y-61252614D03*
X14586014Y-61252614D03*
D13*
X5696014Y-58712614D03*
X12046014Y-56172614D03*
%TD*%
D10*
%TO.C,MX_5*%
X115755004Y-33958811D03*
D11*
X110786014Y-32902620D03*
D10*
X105817024Y-31846429D03*
D13*
X107587367Y-29625982D03*
X114326700Y-28461726D03*
%TD*%
D11*
%TO.C,MX_8*%
X176226014Y-30942617D03*
D10*
X171257024Y-31998808D03*
X181195004Y-29886426D03*
D13*
X171971176Y-29250266D03*
X177654318Y-25445531D03*
%TD*%
D10*
%TO.C,MX_Quot1*%
X251226015Y-61262618D03*
X261386015Y-61262618D03*
D11*
X256306015Y-61262618D03*
D13*
X252496015Y-58722618D03*
X258846015Y-56182618D03*
%TD*%
D10*
%TO.C,MX_C1*%
X89905004Y-86888807D03*
D11*
X84936014Y-85832616D03*
D10*
X79967024Y-84776425D03*
D13*
X81737367Y-82555978D03*
X88476700Y-81391722D03*
%TD*%
D10*
%TO.C,MX_6*%
X134415005Y-37918810D03*
D11*
X129446015Y-36862619D03*
D10*
X124477025Y-35806428D03*
D13*
X126247368Y-33585981D03*
X132986701Y-32421725D03*
%TD*%
D10*
%TO.C,MX_A1*%
X35376012Y-61278864D03*
X45536012Y-61278864D03*
D11*
X40456012Y-61278864D03*
D13*
X36646012Y-58738864D03*
X42996012Y-56198864D03*
%TD*%
D10*
%TO.C,MX_Back2*%
X295846015Y-23183966D03*
D11*
X290766015Y-23183966D03*
D10*
X285686015Y-23183966D03*
D13*
X286956015Y-20643966D03*
X293306015Y-18103966D03*
%TD*%
D11*
%TO.C,MX_H1*%
X160846016Y-73162620D03*
D10*
X165815006Y-72106429D03*
X155877026Y-74218811D03*
D13*
X156591178Y-71470269D03*
X162274320Y-67665534D03*
%TD*%
D10*
%TO.C,MX_Y1*%
X147277024Y-56548810D03*
D11*
X152246014Y-55492619D03*
D10*
X157215004Y-54436428D03*
D13*
X147991176Y-53800268D03*
X153674318Y-49995533D03*
%TD*%
D10*
%TO.C,MX_7*%
X152647024Y-35938807D03*
X162585004Y-33826425D03*
D11*
X157616014Y-34882616D03*
D13*
X153361176Y-33190265D03*
X159044318Y-29385530D03*
%TD*%
D10*
%TO.C,MX_P1*%
X233706013Y-41162616D03*
D11*
X228626013Y-41162616D03*
D10*
X223546013Y-41162616D03*
D13*
X224816013Y-38622616D03*
X231166013Y-36082616D03*
%TD*%
D11*
%TO.C,MX_Fn1*%
X303396014Y-80298868D03*
D10*
X298316014Y-80298868D03*
X308476014Y-80298868D03*
D13*
X299586014Y-77758868D03*
X305936014Y-75218868D03*
%TD*%
D12*
%TO.C,MX_RSft1*%
X274749762Y-73313866D03*
D11*
X274749762Y-88553866D03*
X298562262Y-88553866D03*
D12*
X298562262Y-73313866D03*
D10*
X291736012Y-80298866D03*
D11*
X286656012Y-80298866D03*
D10*
X281576012Y-80298866D03*
D13*
X282846012Y-77758866D03*
X289196012Y-75218866D03*
%TD*%
D10*
%TO.C,MX_G1*%
X111887019Y-72086427D03*
D11*
X116856009Y-73142618D03*
D10*
X121824999Y-74198809D03*
D13*
X113657362Y-69865980D03*
X120396695Y-68701724D03*
%TD*%
D11*
%TO.C,MX_LCtl1*%
X7726015Y-99382619D03*
D10*
X2646015Y-99382619D03*
X12806015Y-99382619D03*
D13*
X3916015Y-96842619D03*
X10266015Y-94302619D03*
%TD*%
D10*
%TO.C,MX_L1*%
X221735000Y-60186427D03*
X211797020Y-62298809D03*
D11*
X216766010Y-61242618D03*
D13*
X212511172Y-59550267D03*
X218194314Y-55745532D03*
%TD*%
D11*
%TO.C,MX_LSft1*%
X14856014Y-80318170D03*
D12*
X26762264Y-73333170D03*
D10*
X19936014Y-80318170D03*
X9776014Y-80318170D03*
D11*
X2949764Y-88573170D03*
X26762264Y-88573170D03*
D12*
X2949764Y-73333170D03*
D13*
X11046014Y-77778170D03*
X17396014Y-75238170D03*
%TD*%
D10*
%TO.C,MX_Del1*%
X-12749073Y-21033970D03*
D11*
X-7669073Y-21033970D03*
D10*
X-2589073Y-21033970D03*
D13*
X-11479073Y-18493970D03*
X-5129073Y-15953970D03*
%TD*%
D10*
%TO.C,MX_1*%
X39456014Y-23162619D03*
D11*
X34376014Y-23162619D03*
D10*
X29296014Y-23162619D03*
D13*
X30566014Y-20622619D03*
X36916014Y-18082619D03*
%TD*%
D11*
%TO.C,MX_J1*%
X179486015Y-69202618D03*
D10*
X184455005Y-68146427D03*
X174517025Y-70258809D03*
D13*
X175231177Y-67510267D03*
X180914319Y-63705532D03*
%TD*%
D10*
%TO.C,MX_LFn1*%
X132325001Y-115388813D03*
X122387021Y-113276431D03*
D11*
X127356011Y-114332622D03*
D13*
X124157364Y-111055984D03*
X130896697Y-109891728D03*
%TD*%
D14*
%TO.C,C_VDDA1*%
X135576016Y-80472615D03*
X136536016Y-80472615D03*
%TD*%
D15*
%TO.C,U_Power1*%
X143083512Y-58642619D03*
X143083512Y-60542619D03*
X141208512Y-59592619D03*
%TD*%
D16*
%TO.C,D_SW_LSft1*%
X17956019Y-82851924D03*
X17956019Y-79551924D03*
%TD*%
D17*
%TO.C,D_SW_Comm1*%
X214959033Y-83711287D03*
X214272925Y-80483399D03*
%TD*%
D14*
%TO.C,C_VDDA2*%
X135576007Y-81552617D03*
X136536007Y-81552617D03*
%TD*%
D17*
%TO.C,D_SW_B2*%
X159043357Y-95595415D03*
X158357249Y-92367527D03*
%TD*%
D18*
%TO.C,D_SW_W1*%
X62777946Y-44746551D03*
X63464054Y-41518663D03*
%TD*%
D19*
%TO.C,D_LED_Scroll1*%
X-21979076Y-102513973D03*
D20*
X-24519076Y-102513973D03*
%TD*%
D16*
%TO.C,D_SW_PP2*%
X274446017Y-27207720D03*
X274446017Y-23907720D03*
%TD*%
D21*
%TO.C,R_LED2*%
X-22739073Y-100263968D03*
X-23759073Y-100263968D03*
%TD*%
D17*
%TO.C,D_SW_L1*%
X220322546Y-63079612D03*
X219636438Y-59851724D03*
%TD*%
D21*
%TO.C,R_Shield1*%
X152440921Y-13633976D03*
X151420921Y-13633976D03*
%TD*%
D16*
%TO.C,D_SW_1*%
X37476023Y-25696369D03*
X37476023Y-22396369D03*
%TD*%
%TO.C,D_SW_LCtl1*%
X10826014Y-101916366D03*
X10826014Y-98616366D03*
%TD*%
D22*
%TO.C,RESET1*%
X144916014Y-82182621D03*
X138616014Y-82182621D03*
X138616014Y-85982621D03*
X144916014Y-85982621D03*
%TD*%
D23*
%TO.C,U_MCU1*%
X139956012Y-76845114D03*
X139456012Y-76845114D03*
X138956012Y-76845114D03*
X138456012Y-76845114D03*
X137956012Y-76845114D03*
X137456012Y-76845114D03*
X136956012Y-76845114D03*
X136456012Y-76845114D03*
X135956012Y-76845114D03*
X135456012Y-76845114D03*
X134956012Y-76845114D03*
X134456012Y-76845114D03*
D24*
X133043512Y-75432614D03*
X133043512Y-74932614D03*
X133043512Y-74432614D03*
X133043512Y-73932614D03*
X133043512Y-73432614D03*
X133043512Y-72932614D03*
X133043512Y-72432614D03*
X133043512Y-71932614D03*
X133043512Y-71432614D03*
X133043512Y-70932614D03*
X133043512Y-70432614D03*
X133043512Y-69932614D03*
D23*
X134456012Y-68520114D03*
X134956012Y-68520114D03*
X135456012Y-68520114D03*
X135956012Y-68520114D03*
X136456012Y-68520114D03*
X136956012Y-68520114D03*
X137456012Y-68520114D03*
X137956012Y-68520114D03*
X138456012Y-68520114D03*
X138956012Y-68520114D03*
X139456012Y-68520114D03*
X139956012Y-68520114D03*
D24*
X141368512Y-69932614D03*
X141368512Y-70432614D03*
X141368512Y-70932614D03*
X141368512Y-71432614D03*
X141368512Y-71932614D03*
X141368512Y-72432614D03*
X141368512Y-72932614D03*
X141368512Y-73432614D03*
X141368512Y-73932614D03*
X141368512Y-74432614D03*
X141368512Y-74932614D03*
X141368512Y-75432614D03*
%TD*%
D25*
%TO.C,R_BOOT1*%
X147726017Y-75902617D03*
X147726017Y-76922617D03*
%TD*%
D26*
%TO.C,BOOT1*%
X146986013Y-81767613D03*
X154286013Y-83977613D03*
D27*
X152136013Y-82867613D03*
D26*
X154286013Y-81767613D03*
D27*
X149136013Y-82867613D03*
D26*
X146986013Y-83977613D03*
D28*
X148386013Y-84627613D03*
X151386013Y-84627613D03*
X152886013Y-84627613D03*
%TD*%
D29*
%TO.C,C_VDD2*%
X143996012Y-76012617D03*
X143996012Y-75052617D03*
%TD*%
D16*
%TO.C,D_SW_Del1*%
X-4569071Y-23567722D03*
X-4569071Y-20267722D03*
%TD*%
D30*
%TO.C,D_PWR1*%
X152670927Y-19683968D03*
X149370927Y-19683968D03*
%TD*%
D16*
%TO.C,D_SW_Esc1*%
X18446005Y-25696364D03*
X18446005Y-22396364D03*
%TD*%
D18*
%TO.C,D_SW_6*%
X131951620Y-39980510D03*
X132637728Y-36752622D03*
%TD*%
D31*
%TO.C,F1*%
X147310921Y-17646470D03*
X147310921Y-19521470D03*
%TD*%
D18*
%TO.C,D_SW_4*%
X94675834Y-32063522D03*
X95361942Y-28835634D03*
%TD*%
D16*
%TO.C,D_SW_Quot1*%
X259406016Y-63796362D03*
X259406016Y-60496362D03*
%TD*%
D18*
%TO.C,D_SW_F1*%
X100727551Y-72310975D03*
X101413659Y-69083087D03*
%TD*%
D17*
%TO.C,D_SW_J1*%
X183038841Y-71036397D03*
X182352733Y-67808509D03*
%TD*%
D16*
%TO.C,D_SW_A1*%
X43556015Y-63812617D03*
X43556015Y-60512617D03*
%TD*%
D17*
%TO.C,D_SW_8*%
X179777596Y-32778877D03*
X179091488Y-29550989D03*
%TD*%
%TO.C,D_SW_H1*%
X164408961Y-75003532D03*
X163722853Y-71775644D03*
%TD*%
D16*
%TO.C,D_SW_Tab1*%
X19046016Y-44766370D03*
X19046016Y-41466370D03*
%TD*%
D17*
%TO.C,D_SW_7*%
X161173346Y-36714367D03*
X160487238Y-33486479D03*
%TD*%
D16*
%TO.C,D_SW_Slsh1*%
X254026021Y-82876367D03*
X254026021Y-79576367D03*
%TD*%
D19*
%TO.C,D_LED_Layer1*%
X-21979072Y-107023980D03*
D20*
X-24519072Y-107023980D03*
%TD*%
D32*
%TO.C,C_VDDIO2*%
X140946018Y-65762617D03*
X139986018Y-65762617D03*
%TD*%
D16*
%TO.C,D_SW_Rsft1*%
X289756015Y-82832616D03*
X289756015Y-79532616D03*
%TD*%
D33*
%TO.C,R_LDO2*%
X145766013Y-60102614D03*
X145766013Y-59082614D03*
%TD*%
D16*
%TO.C,D_SW_Enter1*%
X290356017Y-63810825D03*
X290356017Y-60510825D03*
%TD*%
%TO.C,D_SW_Back1*%
X293866014Y-25717723D03*
X293866014Y-22417723D03*
%TD*%
D18*
%TO.C,D_SW_S1*%
X63483622Y-64386276D03*
X64169730Y-61158388D03*
%TD*%
%TO.C,D_SW_R1*%
X100697758Y-49455451D03*
X100011650Y-52683339D03*
%TD*%
D34*
%TO.C,USB1*%
X147020923Y-10443968D03*
X141240923Y-10443968D03*
D35*
X140905923Y-11888968D03*
X141680923Y-11888968D03*
D36*
X142380923Y-11888968D03*
X142880923Y-11888968D03*
X143380923Y-11888968D03*
X143880923Y-11888968D03*
X144380923Y-11888968D03*
X144880923Y-11888968D03*
X145380923Y-11888968D03*
X145880923Y-11888968D03*
D35*
X146580923Y-11888968D03*
X147355923Y-11888968D03*
D37*
X139810923Y-6793968D03*
D38*
X148450923Y-10973968D03*
X139810923Y-10973968D03*
D37*
X148450923Y-6793968D03*
%TD*%
D17*
%TO.C,D_SW_Y1*%
X155800045Y-57328116D03*
X155113937Y-54100228D03*
%TD*%
D18*
%TO.C,D_SW_X1*%
X68807575Y-84993796D03*
X69493683Y-81765908D03*
%TD*%
D17*
%TO.C,D_SW_M1*%
X196317067Y-87668647D03*
X195630959Y-84440759D03*
%TD*%
D19*
%TO.C,D_LED_Caps1*%
X-21979073Y-98023975D03*
D20*
X-24519073Y-98023975D03*
%TD*%
D29*
%TO.C,C_LDO2*%
X144626009Y-60072616D03*
X144626009Y-59112616D03*
%TD*%
D16*
%TO.C,D_SW_Caps1*%
X17396015Y-63756369D03*
X17396015Y-60456369D03*
%TD*%
D17*
%TO.C,D_SW_9*%
X198417063Y-28797583D03*
X197730955Y-25569695D03*
%TD*%
D16*
%TO.C,D_SW_Scln1*%
X240356023Y-63796374D03*
X240356023Y-60496374D03*
%TD*%
D17*
%TO.C,D_SW_Ie*%
X193085830Y-49401118D03*
X192399722Y-46173230D03*
%TD*%
D18*
%TO.C,D_SW_3*%
X76034098Y-28104089D03*
X76720206Y-24876201D03*
%TD*%
%TO.C,D_SW_LSpc1*%
X103413237Y-111824681D03*
X104099345Y-108596793D03*
%TD*%
D39*
%TO.C,D_ESD1*%
X143120932Y-17423971D03*
D40*
X143120932Y-15723971D03*
X145120932Y-15723971D03*
X145120932Y-17623971D03*
%TD*%
D18*
%TO.C,D_SW_B1*%
X124699092Y-96897491D03*
X125385200Y-93669603D03*
%TD*%
D32*
%TO.C,C_Shield1*%
X152410931Y-14713975D03*
X151450931Y-14713975D03*
%TD*%
D16*
%TO.C,D_SW_Eql1*%
X255736018Y-25686372D03*
X255736018Y-22386372D03*
%TD*%
%TO.C,D_SW_LBrc1*%
X250376011Y-44736378D03*
X250376011Y-41436378D03*
%TD*%
D21*
%TO.C,R_LED3*%
X-22739078Y-104763967D03*
X-23759078Y-104763967D03*
%TD*%
D17*
%TO.C,D_SW_RSpc1*%
X179375888Y-110766332D03*
X178689780Y-107538444D03*
%TD*%
D21*
%TO.C,R_LED1*%
X-22739076Y-95333976D03*
X-23759076Y-95333976D03*
%TD*%
D16*
%TO.C,D_SW_RCtl1*%
X297966019Y-101946371D03*
X297966019Y-98646371D03*
%TD*%
%TO.C,D_SW_Fn1*%
X306496013Y-82832620D03*
X306496013Y-79532620D03*
%TD*%
%TO.C,D_SW_P1*%
X231726011Y-43696370D03*
X231726011Y-40396370D03*
%TD*%
D41*
%TO.C,J_SWD1*%
X143921018Y-93301367D03*
D42*
X143921018Y-90761367D03*
X141381018Y-93301367D03*
X141381018Y-90761367D03*
X138841018Y-93301367D03*
X138841018Y-90761367D03*
X136301018Y-93301367D03*
X136301018Y-90761367D03*
X133761018Y-93301367D03*
X133761018Y-90761367D03*
%TD*%
D17*
%TO.C,D_SW_RAlt1*%
X219758310Y-103705919D03*
X219072202Y-100478031D03*
%TD*%
D18*
%TO.C,D_SW_D1*%
X82077890Y-68371771D03*
X82763998Y-65143883D03*
%TD*%
%TO.C,D_SW_V1*%
X106069218Y-92930362D03*
X106755326Y-89702474D03*
%TD*%
%TO.C,D_SW_C1*%
X87437252Y-88963005D03*
X88123360Y-85735117D03*
%TD*%
D30*
%TO.C,D_LDO1*%
X140926011Y-62572619D03*
X144226011Y-62572619D03*
%TD*%
D16*
%TO.C,D_SW_Stop1*%
X234996017Y-82856371D03*
X234996017Y-79556371D03*
%TD*%
D41*
%TO.C,J_RGB1*%
X129106017Y-56752619D03*
D42*
X129106017Y-59292619D03*
X129106017Y-61832619D03*
%TD*%
D16*
%TO.C,D_SW_RBrc1*%
X269416011Y-44756365D03*
X269416011Y-41456365D03*
%TD*%
D14*
%TO.C,C_LDO1*%
X141666013Y-57312611D03*
X142626013Y-57312611D03*
%TD*%
D18*
%TO.C,D_SW_E1*%
X81379697Y-48735986D03*
X82065805Y-45508098D03*
%TD*%
D16*
%TO.C,D_SW_Q1*%
X42846013Y-44756367D03*
X42846013Y-41456367D03*
%TD*%
D21*
%TO.C,R_USB2*%
X140220924Y-14333973D03*
X139200924Y-14333973D03*
%TD*%
D43*
%TO.C,R_USB1*%
X148750923Y-14333971D03*
X149770923Y-14333971D03*
%TD*%
D32*
%TO.C,C_VDDIO1*%
X140946009Y-66812615D03*
X139986009Y-66812615D03*
%TD*%
D17*
%TO.C,D_SW_N1*%
X177695101Y-91646000D03*
X177008993Y-88418112D03*
%TD*%
D33*
%TO.C,R_RGB1*%
X135966016Y-66322618D03*
X135966016Y-65302618D03*
%TD*%
D17*
%TO.C,D_SW_U1*%
X174453870Y-53358477D03*
X173767762Y-50130589D03*
%TD*%
D16*
%TO.C,D_SW_Pipe1*%
X293236020Y-44766371D03*
X293236020Y-41466371D03*
%TD*%
D18*
%TO.C,D_SW_G1*%
X119359300Y-76260408D03*
X120045408Y-73032520D03*
%TD*%
D17*
%TO.C,D_SW_K1*%
X201668729Y-67049273D03*
X200982621Y-63821385D03*
%TD*%
D16*
%TO.C,D_SW_Up1*%
X-8733979Y-42606372D03*
X-8733979Y-39306372D03*
%TD*%
D18*
%TO.C,D_SW_5*%
X113297365Y-36025034D03*
X113983473Y-32797146D03*
%TD*%
D43*
%TO.C,R_LDO1*%
X141636011Y-56222615D03*
X142656011Y-56222615D03*
%TD*%
D16*
%TO.C,D_SW_Dn1*%
X-12793984Y-61666365D03*
X-12793984Y-58366365D03*
%TD*%
D18*
%TO.C,D_SW_LFn1*%
X133732756Y-118279065D03*
X134418864Y-115051177D03*
%TD*%
D16*
%TO.C,D_SW_Dash1*%
X237126019Y-23546366D03*
X237126019Y-20246366D03*
%TD*%
%TO.C,D_SW_Z1*%
X48886010Y-82856363D03*
X48886010Y-79556363D03*
%TD*%
D18*
%TO.C,D_SW_T1*%
X118663404Y-56642767D03*
X119349512Y-53414879D03*
%TD*%
D44*
%TO.C,C_VDD3*%
X131466012Y-69342613D03*
X131466012Y-70302613D03*
%TD*%
D29*
%TO.C,C_VDD1*%
X142926014Y-76012612D03*
X142926014Y-75052612D03*
%TD*%
D18*
%TO.C,D_SW_LAlt1*%
X63986231Y-104988193D03*
X64672339Y-101760305D03*
%TD*%
D17*
%TO.C,D_SW_0*%
X217070871Y-24827936D03*
X216384763Y-21600048D03*
%TD*%
D16*
%TO.C,D_SW_2*%
X56136003Y-20251711D03*
X56136003Y-23551711D03*
%TD*%
D17*
%TO.C,D_SW_O1*%
X211707578Y-45451694D03*
X211021470Y-42223806D03*
%TD*%
M02*
