%TF.GenerationSoftware,KiCad,Pcbnew,(6.0.0)*%
%TF.CreationDate,2022-03-08T04:10:16+02:00*%
%TF.ProjectId,Alice_PCB,416c6963-655f-4504-9342-2e6b69636164,rev?*%
%TF.SameCoordinates,Original*%
%TF.FileFunction,Soldermask,Top*%
%TF.FilePolarity,Negative*%
%FSLAX46Y46*%
G04 Gerber Fmt 4.6, Leading zero omitted, Abs format (unit mm)*
G04 Created by KiCad (PCBNEW (6.0.0)) date 2022-03-08 04:10:16*
%MOMM*%
%LPD*%
G01*
G04 APERTURE LIST*
%ADD10C,1.750000*%
%ADD11C,3.987800*%
%ADD12C,3.048000*%
%ADD13C,0.900000*%
%ADD14C,0.750000*%
%ADD15O,1.100000X1.700000*%
%ADD16O,1.100000X2.200000*%
%ADD17R,1.700000X1.700000*%
%ADD18O,1.700000X1.700000*%
G04 APERTURE END LIST*
%TO.C,G\u002A\u002A\u002A*%
G36*
X34315474Y-94743717D02*
G01*
X34372907Y-94747871D01*
X34379843Y-94748638D01*
X34543357Y-94776296D01*
X34701490Y-94820057D01*
X34853235Y-94879104D01*
X34997584Y-94952620D01*
X35133530Y-95039789D01*
X35260069Y-95139794D01*
X35376192Y-95251819D01*
X35480892Y-95375048D01*
X35573164Y-95508664D01*
X35652001Y-95651850D01*
X35716396Y-95803791D01*
X35730457Y-95844053D01*
X35775759Y-96005673D01*
X35804162Y-96167242D01*
X35816228Y-96327820D01*
X35812518Y-96486464D01*
X35793595Y-96642233D01*
X35760022Y-96794184D01*
X35712361Y-96941377D01*
X35651173Y-97082869D01*
X35577022Y-97217719D01*
X35490470Y-97344985D01*
X35392079Y-97463724D01*
X35282411Y-97572996D01*
X35162029Y-97671859D01*
X35031496Y-97759370D01*
X34891372Y-97834588D01*
X34742221Y-97896571D01*
X34584605Y-97944378D01*
X34460816Y-97970425D01*
X34393494Y-97979682D01*
X34316101Y-97986553D01*
X34234298Y-97990822D01*
X34153746Y-97992271D01*
X34080107Y-97990682D01*
X34029359Y-97987012D01*
X33863692Y-97961209D01*
X33703671Y-97919564D01*
X33550238Y-97862857D01*
X33404334Y-97791871D01*
X33266902Y-97707385D01*
X33138883Y-97610182D01*
X33021219Y-97501043D01*
X32914852Y-97380749D01*
X32820725Y-97250081D01*
X32739778Y-97109820D01*
X32672954Y-96960748D01*
X32626788Y-96823625D01*
X32606512Y-96749555D01*
X32591136Y-96684052D01*
X32580042Y-96622443D01*
X32572612Y-96560057D01*
X32568230Y-96492221D01*
X32566277Y-96414264D01*
X32566015Y-96363756D01*
X32567376Y-96266680D01*
X32571984Y-96182149D01*
X32580572Y-96105384D01*
X32593875Y-96031605D01*
X32612629Y-95956034D01*
X32637568Y-95873891D01*
X32644623Y-95852462D01*
X32706273Y-95694283D01*
X32782188Y-95545757D01*
X32871627Y-95407523D01*
X32973852Y-95280218D01*
X33088121Y-95164481D01*
X33213694Y-95060950D01*
X33349832Y-94970263D01*
X33495793Y-94893059D01*
X33650839Y-94829976D01*
X33814228Y-94781651D01*
X33910505Y-94761011D01*
X33961743Y-94753721D01*
X34025736Y-94748029D01*
X34097794Y-94744059D01*
X34173229Y-94741934D01*
X34247352Y-94741779D01*
X34315474Y-94743717D01*
G37*
G36*
X31264008Y-102001129D02*
G01*
X31263304Y-101945610D01*
X31262638Y-101875082D01*
X31262010Y-101790377D01*
X31261420Y-101692326D01*
X31260868Y-101581762D01*
X31260354Y-101459516D01*
X31259878Y-101326421D01*
X31259440Y-101183308D01*
X31259040Y-101031010D01*
X31258678Y-100870358D01*
X31258353Y-100702184D01*
X31258067Y-100527321D01*
X31257819Y-100346599D01*
X31257608Y-100160852D01*
X31257436Y-99970912D01*
X31257301Y-99777609D01*
X31257205Y-99581776D01*
X31257146Y-99384246D01*
X31257126Y-99185849D01*
X31257143Y-98987418D01*
X31257199Y-98789785D01*
X31257292Y-98593782D01*
X31257423Y-98400240D01*
X31257593Y-98209993D01*
X31257800Y-98023871D01*
X31258045Y-97842706D01*
X31258328Y-97667332D01*
X31258650Y-97498578D01*
X31259009Y-97337279D01*
X31259406Y-97184264D01*
X31259841Y-97040367D01*
X31260314Y-96906420D01*
X31260825Y-96783254D01*
X31261374Y-96671701D01*
X31261961Y-96572593D01*
X31262586Y-96486762D01*
X31263248Y-96415041D01*
X31263949Y-96358261D01*
X31264426Y-96331768D01*
X31953258Y-96331768D01*
X31953338Y-96405966D01*
X31954547Y-96478092D01*
X31956883Y-96544240D01*
X31960346Y-96600500D01*
X31964425Y-96639463D01*
X32000977Y-96841060D01*
X32053088Y-97035037D01*
X32120583Y-97221041D01*
X32203290Y-97398722D01*
X32301037Y-97567728D01*
X32413649Y-97727707D01*
X32540955Y-97878307D01*
X32608346Y-97948273D01*
X32753613Y-98080965D01*
X32908327Y-98199689D01*
X33071431Y-98304049D01*
X33241870Y-98393651D01*
X33418588Y-98468100D01*
X33600529Y-98527001D01*
X33786636Y-98569961D01*
X33975855Y-98596584D01*
X34167128Y-98606475D01*
X34351774Y-98599858D01*
X34551301Y-98575520D01*
X34745188Y-98534682D01*
X34932917Y-98477581D01*
X35113970Y-98404454D01*
X35287829Y-98315541D01*
X35453978Y-98211079D01*
X35611898Y-98091305D01*
X35761073Y-97956458D01*
X35769522Y-97948105D01*
X35903663Y-97802697D01*
X36023302Y-97647596D01*
X36128249Y-97483191D01*
X36218311Y-97309869D01*
X36293298Y-97128019D01*
X36353019Y-96938029D01*
X36397283Y-96740287D01*
X36413443Y-96639463D01*
X36417918Y-96595446D01*
X36421268Y-96538023D01*
X36423492Y-96471104D01*
X36424589Y-96398596D01*
X36424556Y-96324406D01*
X36423394Y-96252443D01*
X36421100Y-96186615D01*
X36417674Y-96130828D01*
X36413620Y-96092426D01*
X36376636Y-95889530D01*
X36324526Y-95695434D01*
X36257251Y-95510061D01*
X36174773Y-95333339D01*
X36077057Y-95165193D01*
X35964063Y-95005548D01*
X35835755Y-94854331D01*
X35741165Y-94757657D01*
X35593261Y-94625785D01*
X35438279Y-94509561D01*
X35275601Y-94408674D01*
X35104610Y-94322814D01*
X34924687Y-94251671D01*
X34735215Y-94194935D01*
X34535576Y-94152296D01*
X34534148Y-94152048D01*
X34496152Y-94145816D01*
X34460834Y-94141030D01*
X34424985Y-94137507D01*
X34385396Y-94135065D01*
X34338857Y-94133520D01*
X34282159Y-94132690D01*
X34212094Y-94132392D01*
X34188934Y-94132379D01*
X34114415Y-94132558D01*
X34054189Y-94133216D01*
X34005048Y-94134535D01*
X33963782Y-94136700D01*
X33927183Y-94139892D01*
X33892041Y-94144294D01*
X33855148Y-94150090D01*
X33843720Y-94152048D01*
X33644008Y-94194589D01*
X33454467Y-94251226D01*
X33274480Y-94322268D01*
X33103429Y-94408024D01*
X32940695Y-94508806D01*
X32785661Y-94624922D01*
X32637710Y-94756684D01*
X32636703Y-94757657D01*
X32498109Y-94903267D01*
X32374856Y-95057255D01*
X32266904Y-95219695D01*
X32174216Y-95390660D01*
X32096756Y-95570227D01*
X32034485Y-95758468D01*
X31987367Y-95955458D01*
X31964248Y-96092426D01*
X31959801Y-96135829D01*
X31956488Y-96192792D01*
X31954307Y-96259408D01*
X31953258Y-96331768D01*
X31264426Y-96331768D01*
X31264688Y-96317253D01*
X31265465Y-96292851D01*
X31265530Y-96291613D01*
X31286456Y-96061780D01*
X31323402Y-95838860D01*
X31376485Y-95622541D01*
X31445824Y-95412513D01*
X31531536Y-95208466D01*
X31633741Y-95010090D01*
X31752556Y-94817075D01*
X31888099Y-94629110D01*
X31909113Y-94602301D01*
X31945809Y-94558360D01*
X31992522Y-94506070D01*
X32046122Y-94448638D01*
X32103478Y-94389272D01*
X32161459Y-94331179D01*
X32216934Y-94277567D01*
X32266772Y-94231643D01*
X32294000Y-94207991D01*
X32474668Y-94066943D01*
X32662307Y-93941864D01*
X32857139Y-93832659D01*
X33059383Y-93739233D01*
X33269260Y-93661492D01*
X33486992Y-93599339D01*
X33712799Y-93552679D01*
X33865088Y-93530481D01*
X33909839Y-93526443D01*
X33968539Y-93523313D01*
X34037656Y-93521091D01*
X34113658Y-93519776D01*
X34193011Y-93519369D01*
X34272184Y-93519869D01*
X34347645Y-93521276D01*
X34415860Y-93523591D01*
X34473297Y-93526814D01*
X34512780Y-93530481D01*
X34741207Y-93566375D01*
X34960573Y-93617006D01*
X35171685Y-93682650D01*
X35375352Y-93763585D01*
X35572382Y-93860089D01*
X35721829Y-93946258D01*
X35848817Y-94028409D01*
X35965681Y-94112776D01*
X36076849Y-94202925D01*
X36186747Y-94302420D01*
X36285374Y-94399975D01*
X36428425Y-94556265D01*
X36555899Y-94716562D01*
X36669671Y-94883531D01*
X36771619Y-95059839D01*
X36827179Y-95169732D01*
X36914168Y-95367924D01*
X36985008Y-95567765D01*
X37040221Y-95771306D01*
X37080327Y-95980598D01*
X37105848Y-96197690D01*
X37112338Y-96291613D01*
X37113118Y-96314617D01*
X37113860Y-96354295D01*
X37114564Y-96409814D01*
X37115230Y-96480342D01*
X37115858Y-96565047D01*
X37116448Y-96663098D01*
X37117000Y-96773663D01*
X37117514Y-96895908D01*
X37117990Y-97029003D01*
X37118428Y-97172116D01*
X37118828Y-97324415D01*
X37119191Y-97485066D01*
X37119515Y-97653240D01*
X37119801Y-97828103D01*
X37120049Y-98008825D01*
X37120260Y-98194572D01*
X37120432Y-98384512D01*
X37120567Y-98577815D01*
X37120663Y-98773648D01*
X37120722Y-98971179D01*
X37120742Y-99169575D01*
X37120725Y-99368006D01*
X37120669Y-99565639D01*
X37120576Y-99761642D01*
X37120445Y-99955184D01*
X37120275Y-100145431D01*
X37120068Y-100331553D01*
X37119823Y-100512718D01*
X37119540Y-100688092D01*
X37119219Y-100856846D01*
X37118859Y-101018145D01*
X37118462Y-101171160D01*
X37118027Y-101315057D01*
X37117554Y-101449004D01*
X37117043Y-101572170D01*
X37116494Y-101683723D01*
X37115907Y-101782831D01*
X37115283Y-101868662D01*
X37114620Y-101940383D01*
X37113919Y-101997164D01*
X37113180Y-102038171D01*
X37112403Y-102062573D01*
X37112338Y-102063811D01*
X37091381Y-102293688D01*
X37054351Y-102516757D01*
X37001142Y-102733294D01*
X36931649Y-102943574D01*
X36845769Y-103147872D01*
X36743396Y-103346463D01*
X36624425Y-103539622D01*
X36488752Y-103727623D01*
X36468755Y-103753123D01*
X36432059Y-103797064D01*
X36385346Y-103849354D01*
X36331746Y-103906786D01*
X36274390Y-103966152D01*
X36216409Y-104024245D01*
X36160934Y-104077857D01*
X36111096Y-104123781D01*
X36083869Y-104147433D01*
X35902538Y-104288877D01*
X35713816Y-104414454D01*
X35517745Y-104524146D01*
X35314364Y-104617935D01*
X35103714Y-104695803D01*
X34885837Y-104757732D01*
X34660773Y-104803704D01*
X34555917Y-104819345D01*
X34510238Y-104824041D01*
X34450861Y-104828117D01*
X34381430Y-104831503D01*
X34305592Y-104834126D01*
X34226992Y-104835914D01*
X34149277Y-104836797D01*
X34076091Y-104836702D01*
X34011081Y-104835558D01*
X33957893Y-104833293D01*
X33935109Y-104831553D01*
X33704384Y-104801319D01*
X33480625Y-104755033D01*
X33263871Y-104692710D01*
X33054160Y-104614368D01*
X32851529Y-104520021D01*
X32656018Y-104409685D01*
X32467665Y-104283378D01*
X32294000Y-104147433D01*
X32249351Y-104108038D01*
X32197082Y-104058923D01*
X32140325Y-104003295D01*
X32082210Y-103944363D01*
X32025868Y-103885334D01*
X31974429Y-103829415D01*
X31931025Y-103779813D01*
X31909113Y-103753123D01*
X31787538Y-103590100D01*
X31680989Y-103426586D01*
X31587248Y-103259069D01*
X31550689Y-103185692D01*
X31463700Y-102987500D01*
X31392860Y-102787659D01*
X31337647Y-102584118D01*
X31297541Y-102374826D01*
X31272020Y-102157734D01*
X31265530Y-102063811D01*
X31265013Y-102048560D01*
X31953287Y-102048560D01*
X31962662Y-102231865D01*
X31989012Y-102414286D01*
X32031808Y-102594624D01*
X32090522Y-102771683D01*
X32164626Y-102944265D01*
X32253591Y-103111174D01*
X32356890Y-103271211D01*
X32473994Y-103423179D01*
X32604376Y-103565882D01*
X32636703Y-103597767D01*
X32786604Y-103730976D01*
X32944839Y-103848853D01*
X33111096Y-103951243D01*
X33285062Y-104037988D01*
X33466426Y-104108932D01*
X33654876Y-104163918D01*
X33839344Y-104201098D01*
X33887687Y-104208753D01*
X33927270Y-104214649D01*
X33961482Y-104218985D01*
X33993710Y-104221958D01*
X34027343Y-104223766D01*
X34065768Y-104224606D01*
X34112374Y-104224677D01*
X34170549Y-104224176D01*
X34223944Y-104223541D01*
X34301252Y-104222211D01*
X34364739Y-104220148D01*
X34418083Y-104217105D01*
X34464961Y-104212834D01*
X34509051Y-104207086D01*
X34538769Y-104202302D01*
X34737864Y-104160000D01*
X34927680Y-104102903D01*
X35108567Y-104030835D01*
X35280877Y-103943621D01*
X35444961Y-103841082D01*
X35601169Y-103723042D01*
X35741165Y-103597767D01*
X35879442Y-103452593D01*
X36002329Y-103299303D01*
X36109935Y-103137678D01*
X36202369Y-102967502D01*
X36279742Y-102788557D01*
X36342163Y-102600627D01*
X36389741Y-102403494D01*
X36413828Y-102262998D01*
X36415267Y-102249803D01*
X36416587Y-102230508D01*
X36417794Y-102204446D01*
X36418891Y-102170948D01*
X36419883Y-102129347D01*
X36420775Y-102078975D01*
X36421570Y-102019164D01*
X36422273Y-101949247D01*
X36422889Y-101868556D01*
X36423422Y-101776423D01*
X36423876Y-101672180D01*
X36424256Y-101555159D01*
X36424566Y-101424693D01*
X36424810Y-101280115D01*
X36424993Y-101120755D01*
X36425119Y-100945947D01*
X36425193Y-100755023D01*
X36425219Y-100547314D01*
X36425219Y-98875748D01*
X36405684Y-98833816D01*
X36374206Y-98782700D01*
X36330658Y-98734491D01*
X36280324Y-98694403D01*
X36243361Y-98673725D01*
X36207276Y-98659269D01*
X36174332Y-98651647D01*
X36135485Y-98648987D01*
X36123255Y-98648878D01*
X36087218Y-98650407D01*
X36054011Y-98655964D01*
X36020609Y-98666871D01*
X35983990Y-98684448D01*
X35941130Y-98710014D01*
X35889003Y-98744891D01*
X35865054Y-98761623D01*
X35677410Y-98883162D01*
X35481342Y-98989555D01*
X35277853Y-99080408D01*
X35067943Y-99155327D01*
X34852616Y-99213917D01*
X34632874Y-99255783D01*
X34597016Y-99260952D01*
X34555684Y-99265889D01*
X34501474Y-99271247D01*
X34438993Y-99276634D01*
X34372850Y-99281654D01*
X34307653Y-99285915D01*
X34298763Y-99286434D01*
X34235645Y-99290111D01*
X34187264Y-99293232D01*
X34150879Y-99296239D01*
X34123751Y-99299574D01*
X34103141Y-99303677D01*
X34086307Y-99308991D01*
X34070511Y-99315957D01*
X34053012Y-99325017D01*
X34050256Y-99326486D01*
X33989601Y-99367400D01*
X33942060Y-99419181D01*
X33910034Y-99474250D01*
X33893510Y-99525649D01*
X33886495Y-99584734D01*
X33889068Y-99644809D01*
X33901307Y-99699178D01*
X33907226Y-99714165D01*
X33942376Y-99772135D01*
X33990760Y-99822347D01*
X34048926Y-99862332D01*
X34113421Y-99889622D01*
X34168205Y-99900754D01*
X34198480Y-99902123D01*
X34242827Y-99901816D01*
X34297913Y-99900027D01*
X34360407Y-99896955D01*
X34426976Y-99892796D01*
X34494286Y-99887745D01*
X34559007Y-99882001D01*
X34617805Y-99875760D01*
X34641702Y-99872808D01*
X34886308Y-99832114D01*
X35127846Y-99774305D01*
X35365469Y-99699630D01*
X35598332Y-99608339D01*
X35707254Y-99559121D01*
X35745971Y-99540964D01*
X35778583Y-99525869D01*
X35802045Y-99515231D01*
X35813314Y-99510443D01*
X35813825Y-99510310D01*
X35814616Y-99518869D01*
X35815312Y-99543772D01*
X35815916Y-99583857D01*
X35816431Y-99637963D01*
X35816860Y-99704930D01*
X35817204Y-99783595D01*
X35817468Y-99872798D01*
X35817653Y-99971378D01*
X35817763Y-100078173D01*
X35817799Y-100192021D01*
X35817766Y-100311763D01*
X35817664Y-100436237D01*
X35817498Y-100564281D01*
X35817270Y-100694734D01*
X35816983Y-100826435D01*
X35816638Y-100958223D01*
X35816240Y-101088937D01*
X35815790Y-101217415D01*
X35815292Y-101342497D01*
X35814748Y-101463021D01*
X35814161Y-101577825D01*
X35813533Y-101685749D01*
X35812868Y-101785632D01*
X35812167Y-101876311D01*
X35811434Y-101956627D01*
X35810672Y-102025418D01*
X35809882Y-102081522D01*
X35809069Y-102123779D01*
X35808234Y-102151027D01*
X35807643Y-102160500D01*
X35781238Y-102325001D01*
X35738997Y-102483920D01*
X35681739Y-102636310D01*
X35610280Y-102781226D01*
X35525439Y-102917721D01*
X35428031Y-103044849D01*
X35318874Y-103161664D01*
X35198787Y-103267221D01*
X35068586Y-103360572D01*
X34929088Y-103440772D01*
X34781110Y-103506874D01*
X34625471Y-103557933D01*
X34593155Y-103566342D01*
X34532136Y-103580988D01*
X34479412Y-103592087D01*
X34430697Y-103600110D01*
X34381703Y-103605530D01*
X34328143Y-103608819D01*
X34265730Y-103610450D01*
X34190177Y-103610896D01*
X34188934Y-103610896D01*
X34113153Y-103610464D01*
X34050577Y-103608854D01*
X33996917Y-103605593D01*
X33947886Y-103600208D01*
X33899198Y-103592227D01*
X33846565Y-103581178D01*
X33785701Y-103566587D01*
X33784713Y-103566342D01*
X33629596Y-103518849D01*
X33480563Y-103455624D01*
X33338771Y-103377718D01*
X33205379Y-103286182D01*
X33081545Y-103182069D01*
X32968427Y-103066428D01*
X32867182Y-102940312D01*
X32778969Y-102804773D01*
X32704947Y-102660860D01*
X32657655Y-102543049D01*
X32626952Y-102448923D01*
X32603013Y-102357760D01*
X32584897Y-102264637D01*
X32571666Y-102164630D01*
X32562378Y-102052817D01*
X32561570Y-102039807D01*
X32556701Y-101975548D01*
X32549998Y-101925146D01*
X32540215Y-101884965D01*
X32526104Y-101851368D01*
X32506420Y-101820715D01*
X32479917Y-101789372D01*
X32473344Y-101782336D01*
X32417552Y-101734972D01*
X32355978Y-101703152D01*
X32290893Y-101686876D01*
X32224566Y-101686144D01*
X32159266Y-101700955D01*
X32097265Y-101731310D01*
X32040831Y-101777209D01*
X32035882Y-101782336D01*
X32006761Y-101814822D01*
X31985287Y-101844228D01*
X31970339Y-101874163D01*
X31960798Y-101908236D01*
X31955546Y-101950054D01*
X31953462Y-102003226D01*
X31953287Y-102048560D01*
X31265013Y-102048560D01*
X31264750Y-102040807D01*
X31264008Y-102001129D01*
G37*
%TD*%
D10*
%TO.C,MX_Enter1*%
X292336013Y-61277067D03*
D11*
X287256013Y-61277067D03*
D12*
X299162263Y-68262067D03*
D10*
X282176013Y-61277067D03*
D11*
X299162263Y-53022067D03*
D12*
X275349763Y-68262067D03*
D11*
X275349763Y-53022067D03*
%TD*%
%TO.C,MX_Pipe1*%
X290136015Y-42232621D03*
D10*
X285056015Y-42232621D03*
X295216015Y-42232621D03*
%TD*%
D11*
%TO.C,MX_K1*%
X198116014Y-65212618D03*
D10*
X193147024Y-66268809D03*
X203085004Y-64156427D03*
%TD*%
D11*
%TO.C,MX_Back1*%
X281206014Y-23183966D03*
D10*
X276126014Y-23183966D03*
D12*
X293112264Y-16198966D03*
X269299764Y-16198966D03*
D11*
X293112264Y-31438966D03*
X269299764Y-31438966D03*
D10*
X286286014Y-23183966D03*
%TD*%
%TO.C,MX_RBrc1*%
X261236013Y-42222618D03*
X271396013Y-42222618D03*
D11*
X266316013Y-42222618D03*
%TD*%
D10*
%TO.C,MX-0*%
X208537019Y-24048811D03*
X218474999Y-21936429D03*
D11*
X213506009Y-22992620D03*
%TD*%
D10*
%TO.C,MX_U1*%
X165927025Y-52578810D03*
D11*
X170896015Y-51522619D03*
D10*
X175865005Y-50466428D03*
%TD*%
%TO.C,MX_D1*%
X74607024Y-64196426D03*
D11*
X79576014Y-65252617D03*
D10*
X84545004Y-66308808D03*
%TD*%
%TO.C,MX_N1*%
X169167021Y-90868809D03*
D11*
X174136011Y-89812618D03*
D10*
X179105001Y-88756427D03*
%TD*%
D11*
%TO.C,MX_E1*%
X78876012Y-45612618D03*
D10*
X83845002Y-46668809D03*
X73907022Y-44556427D03*
%TD*%
D11*
%TO.C,MX_M1*%
X192756014Y-85832621D03*
D10*
X187787024Y-86888812D03*
X197725004Y-84776430D03*
%TD*%
%TO.C,MX_B2*%
X150517025Y-94818810D03*
D11*
X155486015Y-93762619D03*
D10*
X160455005Y-92706428D03*
%TD*%
%TO.C,MX_Dn1*%
X-20973985Y-59132616D03*
X-10813985Y-59132616D03*
D11*
X-15893985Y-59132616D03*
%TD*%
D10*
%TO.C,MX_LFn2*%
X120047026Y-112776425D03*
D11*
X125016016Y-113832616D03*
D10*
X129985006Y-114888807D03*
%TD*%
D11*
%TO.C,MX_Caps1*%
X14296016Y-61222621D03*
D10*
X9216016Y-61222621D03*
X19376016Y-61222621D03*
%TD*%
%TO.C,MX_Esc1*%
X20426015Y-23162618D03*
D11*
X15346015Y-23162618D03*
D10*
X10266015Y-23162618D03*
%TD*%
%TO.C,MX_9*%
X189887025Y-28018811D03*
D11*
X194856015Y-26962620D03*
D10*
X199825005Y-25906429D03*
%TD*%
%TO.C,MX_Comm1*%
X216365009Y-80816426D03*
D11*
X211396019Y-81872617D03*
D10*
X206427029Y-82928808D03*
%TD*%
%TO.C,MX_LBrc1*%
X252356014Y-42202621D03*
X242196014Y-42202621D03*
D11*
X247276014Y-42202621D03*
%TD*%
D10*
%TO.C,MX_B1*%
X127165004Y-94828810D03*
D11*
X122196014Y-93772619D03*
D10*
X117227024Y-92716428D03*
%TD*%
D11*
%TO.C,MX_Z1*%
X45786012Y-80322613D03*
D10*
X50866012Y-80322613D03*
X40706012Y-80322613D03*
%TD*%
%TO.C,MX_W1*%
X55307024Y-40566425D03*
X65245004Y-42678807D03*
D11*
X60276014Y-41622616D03*
%TD*%
D10*
%TO.C,MX_Stop1*%
X226816014Y-80322620D03*
D11*
X231896014Y-80322620D03*
D10*
X236976014Y-80322620D03*
%TD*%
%TO.C,MX_R1*%
X102485004Y-50618811D03*
X92547024Y-48506429D03*
D11*
X97516014Y-49562620D03*
%TD*%
D10*
%TO.C,MX_RAlt1*%
X221175007Y-100816427D03*
X211237027Y-102928809D03*
D11*
X216206017Y-101872618D03*
%TD*%
D10*
%TO.C,MX_LAlt1*%
X66455006Y-102918806D03*
D11*
X61486016Y-101862615D03*
D10*
X56517026Y-100806424D03*
%TD*%
D11*
%TO.C,MX_X1*%
X66306014Y-81872620D03*
D10*
X61337024Y-80816429D03*
X71275004Y-82928811D03*
%TD*%
%TO.C,MX_RSft2*%
X282166016Y-80298874D03*
X272006016Y-80298874D03*
D11*
X277086016Y-80298874D03*
%TD*%
%TO.C,MX_Pipe2*%
X271636019Y-23183975D03*
D10*
X266556019Y-23183975D03*
X276716019Y-23183975D03*
%TD*%
D11*
%TO.C,MX_4*%
X92166014Y-28932617D03*
D10*
X87197024Y-27876426D03*
X97135004Y-29988808D03*
%TD*%
%TO.C,MX_F1*%
X103195005Y-70248811D03*
X93257025Y-68136429D03*
D11*
X98226015Y-69192620D03*
%TD*%
D10*
%TO.C,MX_RSpc1*%
X180785002Y-107876423D03*
D11*
X175816012Y-108932614D03*
D12*
X188914345Y-113289526D03*
D11*
X185745771Y-98382557D03*
X162453631Y-103333454D03*
D12*
X165622205Y-118240424D03*
D10*
X170847022Y-109988805D03*
%TD*%
%TO.C,MX_T1*%
X121125003Y-54578806D03*
D11*
X116156013Y-53522615D03*
D10*
X111187023Y-52466424D03*
%TD*%
%TO.C,MX_Slsh1*%
X256006008Y-80342619D03*
D11*
X250926008Y-80342619D03*
D10*
X245846008Y-80342619D03*
%TD*%
%TO.C,MX_Tab1*%
X10866015Y-42222621D03*
X21026015Y-42222621D03*
D11*
X15946015Y-42222621D03*
%TD*%
%TO.C,MX_RCtl1*%
X294866015Y-99412618D03*
D10*
X289786015Y-99412618D03*
X299946015Y-99412618D03*
%TD*%
D11*
%TO.C,MX_Up1*%
X-11833989Y-40072611D03*
D10*
X-16913989Y-40072611D03*
X-6753989Y-40072611D03*
%TD*%
%TO.C,MX_S1*%
X65945003Y-62318808D03*
D11*
X60976013Y-61262617D03*
D10*
X56007023Y-60206426D03*
%TD*%
D11*
%TO.C,MX_LSpc2*%
X94736014Y-107392620D03*
X84806255Y-96842563D03*
D12*
X104929821Y-116700430D03*
D10*
X99705004Y-108448811D03*
X89767024Y-106336429D03*
D12*
X81637681Y-111749532D03*
D11*
X108098395Y-101793460D03*
%TD*%
D10*
%TO.C,MX_3*%
X78505002Y-26038810D03*
D11*
X73536012Y-24982619D03*
D10*
X68567022Y-23926428D03*
%TD*%
%TO.C,MX_V1*%
X108535004Y-90858809D03*
D11*
X103566014Y-89802618D03*
D10*
X98597024Y-88746427D03*
%TD*%
D11*
%TO.C,MX_O1*%
X208146015Y-43612619D03*
D10*
X203177025Y-44668810D03*
X213115005Y-42556428D03*
%TD*%
D11*
%TO.C,MX_Dash1*%
X234026016Y-21012621D03*
D10*
X228946016Y-21012621D03*
X239106016Y-21012621D03*
%TD*%
%TO.C,MX_Eql1*%
X257716014Y-23152616D03*
D11*
X252636014Y-23152616D03*
D10*
X247556014Y-23152616D03*
%TD*%
%TO.C,MX_Scln1*%
X232176015Y-61262612D03*
X242336015Y-61262612D03*
D11*
X237256015Y-61262612D03*
%TD*%
D10*
%TO.C,MX_2*%
X58116016Y-21017963D03*
X47956016Y-21017963D03*
D11*
X53036016Y-21017963D03*
%TD*%
%TO.C,MX_LSpc1*%
X110398397Y-102283464D03*
D10*
X92067026Y-106826433D03*
D11*
X87106257Y-97332567D03*
D12*
X107229823Y-117190434D03*
D11*
X97036016Y-107882624D03*
D10*
X102005006Y-108938815D03*
D12*
X83937683Y-112239536D03*
%TD*%
D10*
%TO.C,MX_Q1*%
X44826013Y-42222620D03*
X34666013Y-42222620D03*
D11*
X39746013Y-42222620D03*
%TD*%
D10*
%TO.C,MX_I1*%
X194495006Y-46516425D03*
X184557026Y-48628807D03*
D11*
X189526016Y-47572616D03*
%TD*%
%TO.C,MX_Caps2*%
X9506014Y-61252614D03*
D10*
X4426014Y-61252614D03*
X14586014Y-61252614D03*
%TD*%
%TO.C,MX_5*%
X115755004Y-33958811D03*
D11*
X110786014Y-32902620D03*
D10*
X105817024Y-31846429D03*
%TD*%
D11*
%TO.C,MX_8*%
X176226014Y-30942617D03*
D10*
X171257024Y-31998808D03*
X181195004Y-29886426D03*
%TD*%
%TO.C,MX_Quot1*%
X251226015Y-61262618D03*
X261386015Y-61262618D03*
D11*
X256306015Y-61262618D03*
%TD*%
D10*
%TO.C,MX_C1*%
X89905004Y-86888807D03*
D11*
X84936014Y-85832616D03*
D10*
X79967024Y-84776425D03*
%TD*%
%TO.C,MX_6*%
X134415005Y-37918810D03*
D11*
X129446015Y-36862619D03*
D10*
X124477025Y-35806428D03*
%TD*%
%TO.C,MX_A1*%
X35376012Y-61278864D03*
X45536012Y-61278864D03*
D11*
X40456012Y-61278864D03*
%TD*%
D10*
%TO.C,MX_Back2*%
X295846015Y-23183966D03*
D11*
X290766015Y-23183966D03*
D10*
X285686015Y-23183966D03*
%TD*%
D11*
%TO.C,MX_H1*%
X160846016Y-73162620D03*
D10*
X165815006Y-72106429D03*
X155877026Y-74218811D03*
%TD*%
%TO.C,MX_Y1*%
X147277024Y-56548810D03*
D11*
X152246014Y-55492619D03*
D10*
X157215004Y-54436428D03*
%TD*%
%TO.C,MX_7*%
X152647024Y-35938807D03*
X162585004Y-33826425D03*
D11*
X157616014Y-34882616D03*
%TD*%
D10*
%TO.C,MX_P1*%
X233706013Y-41162616D03*
D11*
X228626013Y-41162616D03*
D10*
X223546013Y-41162616D03*
%TD*%
D11*
%TO.C,MX_Fn1*%
X303396014Y-80298868D03*
D10*
X298316014Y-80298868D03*
X308476014Y-80298868D03*
%TD*%
D12*
%TO.C,MX_RSft1*%
X274749762Y-73313866D03*
D11*
X274749762Y-88553866D03*
X298562262Y-88553866D03*
D12*
X298562262Y-73313866D03*
D10*
X291736012Y-80298866D03*
D11*
X286656012Y-80298866D03*
D10*
X281576012Y-80298866D03*
%TD*%
%TO.C,MX_G1*%
X111887019Y-72086427D03*
D11*
X116856009Y-73142618D03*
D10*
X121824999Y-74198809D03*
%TD*%
D11*
%TO.C,MX_LCtl1*%
X7726015Y-99382619D03*
D10*
X2646015Y-99382619D03*
X12806015Y-99382619D03*
%TD*%
%TO.C,MX_L1*%
X221735000Y-60186427D03*
X211797020Y-62298809D03*
D11*
X216766010Y-61242618D03*
%TD*%
%TO.C,MX_LSft1*%
X14856014Y-80318170D03*
D12*
X26762264Y-73333170D03*
D10*
X19936014Y-80318170D03*
X9776014Y-80318170D03*
D11*
X2949764Y-88573170D03*
X26762264Y-88573170D03*
D12*
X2949764Y-73333170D03*
%TD*%
D10*
%TO.C,MX_Del1*%
X-12749073Y-21033970D03*
D11*
X-7669073Y-21033970D03*
D10*
X-2589073Y-21033970D03*
%TD*%
%TO.C,MX_1*%
X39456014Y-23162619D03*
D11*
X34376014Y-23162619D03*
D10*
X29296014Y-23162619D03*
%TD*%
D11*
%TO.C,MX_J1*%
X179486015Y-69202618D03*
D10*
X184455005Y-68146427D03*
X174517025Y-70258809D03*
%TD*%
%TO.C,MX_LFn1*%
X132325001Y-115388813D03*
X122387021Y-113276431D03*
D11*
X127356011Y-114332622D03*
%TD*%
D13*
%TO.C,BOOT1*%
X152136013Y-82867613D03*
X149136013Y-82867613D03*
%TD*%
D14*
%TO.C,USB1*%
X147020923Y-10443968D03*
X141240923Y-10443968D03*
D15*
X139810923Y-6793968D03*
D16*
X148450923Y-10973968D03*
X139810923Y-10973968D03*
D15*
X148450923Y-6793968D03*
%TD*%
D17*
%TO.C,J_SWD1*%
X143921018Y-93301367D03*
D18*
X143921018Y-90761367D03*
X141381018Y-93301367D03*
X141381018Y-90761367D03*
X138841018Y-93301367D03*
X138841018Y-90761367D03*
X136301018Y-93301367D03*
X136301018Y-90761367D03*
X133761018Y-93301367D03*
X133761018Y-90761367D03*
%TD*%
D17*
%TO.C,J_RGB1*%
X129106017Y-56752619D03*
D18*
X129106017Y-59292619D03*
X129106017Y-61832619D03*
%TD*%
M02*
