M48
; DRILL file {KiCad (6.0.0)} date Mon Mar 14 10:16:27 2022
; FORMAT={-:-/ absolute / inch / decimal}
; #@! TF.CreationDate,2022-03-14T10:16:27+02:00
; #@! TF.GenerationSoftware,Kicad,Pcbnew,(6.0.0)
; #@! TF.FileFunction,NonPlated,1,2,NPTH
FMAT,2
INCH
; #@! TA.AperFunction,NonPlated,NPTH,ComponentDrill
T1C0.0256
; #@! TA.AperFunction,NonPlated,NPTH,ComponentDrill
T2C0.0354
; #@! TA.AperFunction,NonPlated,NPTH,ComponentDrill
T3C0.0689
; #@! TA.AperFunction,NonPlated,NPTH,ComponentDrill
T4C0.1200
; #@! TA.AperFunction,NonPlated,NPTH,ComponentDrill
T5C0.1570
%
G90
G05
T1
X5.5612Y-1.5947
X5.7888Y-1.5947
T2
X5.8953Y-4.4395
X6.0135Y-4.4395
T3
X-0.8019Y-3.5051
X-0.6421Y-2.7547
X-0.4781Y-2.0051
X-0.4019Y-3.5051
X-0.2421Y-2.7547
X-0.0781Y-2.0051
X0.128Y-5.0897
X0.1981Y-3.5885
X0.3867Y-3.5873
X0.4087Y-4.3391
X0.428Y-2.0889
X0.4516Y-2.8393
X0.528Y-5.0897
X0.5981Y-3.5885
X0.7867Y-3.5873
X0.8087Y-4.3391
X0.828Y-2.0889
X0.8516Y-2.8393
X1.1772Y-2.0889
X1.3886Y-2.8393
X1.4166Y-3.5896
X1.5772Y-2.0889
X1.6264Y-4.3393
X1.7886Y-2.8393
X1.8166Y-3.5896
X1.9119Y-2.0045
X2.0264Y-4.3393
X2.2013Y-2.7741
X2.2288Y-3.5473
X2.2489Y-5.1458
X2.3119Y-2.0045
X2.4387Y-4.3588
X2.5925Y-2.8573
X2.6201Y-3.6305
X2.6402Y-5.2289
X2.7233Y-2.119
X2.8299Y-4.4419
X2.9336Y-2.9312
X2.9611Y-3.7044
X3.1146Y-2.2022
X3.1722Y-4.5147
X3.3248Y-3.0144
X3.3524Y-3.7876
X3.4568Y-2.2745
X3.558Y-5.3635
X3.5634Y-4.5978
X3.6485Y-5.3828
X3.6674Y-3.0867
X3.6954Y-3.8595
X3.8481Y-2.3577
X3.9056Y-4.671
X3.9492Y-5.4466
X4.0398Y-5.4659
X4.0587Y-3.1699
X4.0866Y-3.9427
X4.1899Y-2.4308
X4.2969Y-4.7541
X4.4013Y-3.2426
X4.4288Y-4.0151
X4.5811Y-2.514
X4.6391Y-4.8273
X4.7501Y-5.617
X4.7925Y-3.3258
X4.8201Y-4.0982
X4.8422Y-5.6367
X4.9245Y-2.5867
X5.0303Y-4.9104
X5.1414Y-5.7002
X5.2335Y-5.7199
X5.3158Y-2.6699
X5.8222Y-3.4033
X5.9497Y-4.91
X6.0336Y-2.5919
X6.1607Y-4.099
X6.2134Y-3.3202
X6.341Y-4.8269
X6.4248Y-2.5088
X6.552Y-4.0158
X6.5564Y-3.247
X6.684Y-4.7545
X6.7501Y-5.5073
X6.7662Y-2.4368
X6.8946Y-3.9431
X6.9477Y-3.1639
X7.0752Y-4.6714
X7.1414Y-5.4241
X7.1575Y-2.3536
X7.2859Y-3.8599
X7.2899Y-3.0915
X7.417Y-4.5978
X7.4997Y-2.2801
X7.6281Y-3.786
X7.6811Y-3.0084
X7.8083Y-4.5147
X7.891Y-2.1969
X8.0193Y-3.7028
X8.0229Y-2.9356
X8.1509Y-4.4419
X8.234Y-2.1238
X8.3403Y-5.2293
X8.3623Y-3.6297
X8.4142Y-2.8525
X8.5422Y-4.3588
X8.6252Y-2.0406
X8.7315Y-5.1462
X8.7536Y-3.5465
X8.8249Y-2.7976
X8.9536Y-4.3393
X9.0375Y-2.0043
X9.1646Y-3.5889
X9.2249Y-2.7976
X9.3536Y-4.3393
X9.4375Y-2.0043
X9.5591Y-2.8385
X9.5646Y-3.5889
X9.7028Y-4.3401
X9.7701Y-2.0885
X9.9146Y-3.5889
X9.9591Y-2.8385
X10.1028Y-4.3401
X10.1701Y-2.0885
X10.3087Y-2.8393
X10.3146Y-3.5889
X10.5182Y-2.0898
X10.7087Y-2.8393
X10.7327Y-4.3384
X10.8949Y-2.0898
X10.9182Y-2.0898
X11.1095Y-4.3384
X11.1327Y-4.3384
X11.1331Y-3.5895
X11.2465Y-2.8397
X11.2713Y-2.0898
X11.2949Y-2.0898
X11.4327Y-5.0909
X11.5095Y-4.3384
X11.5331Y-3.5895
X11.6465Y-2.8397
X11.6713Y-2.0898
X11.7686Y-4.3384
X11.8327Y-5.0909
X12.1686Y-4.3384
T4
X0.14Y-4.0641
X1.0775Y-4.0641
X3.2379Y-5.5766
X3.3285Y-5.5959
X4.1549Y-5.7715
X4.2455Y-5.7908
X6.5444Y-5.8321
X7.4614Y-5.6372
X10.6262Y-1.8148
X10.8408Y-4.0634
X10.8644Y-3.8645
X11.5637Y-1.8148
X11.7783Y-4.0634
X11.8019Y-3.8645
T5
X-0.6019Y-3.5051
X-0.4421Y-2.7547
X-0.2781Y-2.0051
X0.14Y-4.6641
X0.328Y-5.0897
X0.3981Y-3.5885
X0.5867Y-3.5873
X0.6087Y-4.3391
X0.628Y-2.0889
X0.6516Y-2.8393
X1.0775Y-4.6641
X1.3772Y-2.0889
X1.5886Y-2.8393
X1.6166Y-3.5896
X1.8264Y-4.3393
X2.1119Y-2.0045
X2.3969Y-2.8157
X2.4245Y-3.5889
X2.4446Y-5.1873
X2.6343Y-4.4003
X2.919Y-2.1606
X3.1292Y-2.9728
X3.1568Y-3.746
X3.3627Y-4.9897
X3.3678Y-4.5562
X3.4532Y-5.009
X3.6524Y-2.3161
X3.7536Y-5.4051
X3.8442Y-5.4244
X3.8631Y-3.1283
X3.891Y-3.9011
X4.1012Y-4.7125
X4.2797Y-5.1846
X4.3702Y-5.2039
X4.3855Y-2.4724
X4.5969Y-3.2842
X4.6245Y-4.0566
X4.8347Y-4.8688
X4.9457Y-5.6586
X5.0379Y-5.6783
X5.1201Y-2.6283
X6.0178Y-3.3618
X6.1453Y-4.8684
X6.2292Y-2.5503
X6.3564Y-4.0574
X6.4197Y-5.2452
X6.752Y-3.2055
X6.8796Y-4.7129
X6.9457Y-5.4657
X6.9619Y-2.3952
X7.0902Y-3.9015
X7.3367Y-5.0503
X7.4855Y-3.0499
X7.6127Y-4.5562
X7.6953Y-2.2385
X7.8237Y-3.7444
X8.2186Y-2.894
X8.3465Y-4.4003
X8.4296Y-2.0822
X8.5359Y-5.1877
X8.5579Y-3.5881
X9.0249Y-2.7976
X9.1536Y-4.3393
X9.2375Y-2.0043
X9.3646Y-3.5889
X9.7591Y-2.8385
X9.9028Y-4.3401
X9.9701Y-2.0885
X10.1146Y-3.5889
X10.5087Y-2.8393
X10.6262Y-2.4148
X10.7182Y-2.0898
X10.8408Y-4.6634
X10.8644Y-3.2645
X10.9327Y-4.3384
X11.0949Y-2.0898
X11.3095Y-4.3384
X11.3331Y-3.5895
X11.4465Y-2.8397
X11.4713Y-2.0898
X11.5637Y-2.4148
X11.6327Y-5.0909
X11.7783Y-4.6634
X11.8019Y-3.2645
X11.9686Y-4.3384
T0
M30
