%TF.GenerationSoftware,KiCad,Pcbnew,(6.0.0)*%
%TF.CreationDate,2022-03-14T10:16:23+02:00*%
%TF.ProjectId,Alice_PCB,416c6963-655f-4504-9342-2e6b69636164,rev?*%
%TF.SameCoordinates,Original*%
%TF.FileFunction,Soldermask,Bot*%
%TF.FilePolarity,Negative*%
%FSLAX46Y46*%
G04 Gerber Fmt 4.6, Leading zero omitted, Abs format (unit mm)*
G04 Created by KiCad (PCBNEW (6.0.0)) date 2022-03-14 10:16:23*
%MOMM*%
%LPD*%
G01*
G04 APERTURE LIST*
G04 Aperture macros list*
%AMRoundRect*
0 Rectangle with rounded corners*
0 $1 Rounding radius*
0 $2 $3 $4 $5 $6 $7 $8 $9 X,Y pos of 4 corners*
0 Add a 4 corners polygon primitive as box body*
4,1,4,$2,$3,$4,$5,$6,$7,$8,$9,$2,$3,0*
0 Add four circle primitives for the rounded corners*
1,1,$1+$1,$2,$3*
1,1,$1+$1,$4,$5*
1,1,$1+$1,$6,$7*
1,1,$1+$1,$8,$9*
0 Add four rect primitives between the rounded corners*
20,1,$1+$1,$2,$3,$4,$5,0*
20,1,$1+$1,$4,$5,$6,$7,0*
20,1,$1+$1,$6,$7,$8,$9,0*
20,1,$1+$1,$8,$9,$2,$3,0*%
%AMRotRect*
0 Rectangle, with rotation*
0 The origin of the aperture is its center*
0 $1 length*
0 $2 width*
0 $3 Rotation angle, in degrees counterclockwise*
0 Add horizontal line*
21,1,$1,$2,0,0,$3*%
G04 Aperture macros list end*
%ADD10RoundRect,0.135000X-0.135000X-0.185000X0.135000X-0.185000X0.135000X0.185000X-0.135000X0.185000X0*%
%ADD11C,1.750000*%
%ADD12C,3.987800*%
%ADD13C,3.048000*%
%ADD14C,2.250000*%
%ADD15C,0.750000*%
%ADD16O,1.100000X1.700000*%
%ADD17O,1.100000X2.200000*%
%ADD18RoundRect,0.140000X-0.140000X-0.170000X0.140000X-0.170000X0.140000X0.170000X-0.140000X0.170000X0*%
%ADD19RoundRect,0.150000X0.587500X0.150000X-0.587500X0.150000X-0.587500X-0.150000X0.587500X-0.150000X0*%
%ADD20R,1.200000X0.900000*%
%ADD21RotRect,0.900000X1.200000X102.000000*%
%ADD22O,1.905000X2.159000*%
%ADD23R,1.905000X2.159000*%
%ADD24RoundRect,0.135000X0.135000X0.185000X-0.135000X0.185000X-0.135000X-0.185000X0.135000X-0.185000X0*%
%ADD25R,1.700000X1.000000*%
%ADD26RoundRect,0.075000X0.075000X-0.662500X0.075000X0.662500X-0.075000X0.662500X-0.075000X-0.662500X0*%
%ADD27RoundRect,0.075000X0.662500X-0.075000X0.662500X0.075000X-0.662500X0.075000X-0.662500X-0.075000X0*%
%ADD28RoundRect,0.135000X-0.185000X0.135000X-0.185000X-0.135000X0.185000X-0.135000X0.185000X0.135000X0*%
%ADD29R,1.000000X0.800000*%
%ADD30C,0.900000*%
%ADD31R,0.700000X1.500000*%
%ADD32RoundRect,0.140000X0.170000X-0.140000X0.170000X0.140000X-0.170000X0.140000X-0.170000X-0.140000X0*%
%ADD33R,0.900000X1.200000*%
%ADD34RotRect,0.900000X1.200000X78.000000*%
%ADD35RoundRect,0.243750X-0.456250X0.243750X-0.456250X-0.243750X0.456250X-0.243750X0.456250X0.243750X0*%
%ADD36RoundRect,0.140000X0.140000X0.170000X-0.140000X0.170000X-0.140000X-0.170000X0.140000X-0.170000X0*%
%ADD37RoundRect,0.135000X0.185000X-0.135000X0.185000X0.135000X-0.185000X0.135000X-0.185000X-0.135000X0*%
%ADD38R,0.700000X1.000000*%
%ADD39R,0.700000X0.600000*%
%ADD40R,1.700000X1.700000*%
%ADD41O,1.700000X1.700000*%
%ADD42RoundRect,0.140000X-0.170000X0.140000X-0.170000X-0.140000X0.170000X-0.140000X0.170000X0.140000X0*%
G04 APERTURE END LIST*
D10*
%TO.C,R_USB2*%
X148732240Y-44258490D03*
X149752240Y-44258490D03*
%TD*%
D11*
%TO.C,MX_Enter1*%
X292941697Y-91172947D03*
D12*
X287861697Y-91172947D03*
D13*
X299767947Y-98157947D03*
D11*
X282781697Y-91172947D03*
D12*
X299767947Y-82917947D03*
D13*
X275955447Y-98157947D03*
D12*
X275955447Y-82917947D03*
D14*
X284051697Y-88632947D03*
X290401697Y-86092947D03*
%TD*%
D12*
%TO.C,MX_Pipe1*%
X290741699Y-72128501D03*
D11*
X285661699Y-72128501D03*
X295821699Y-72128501D03*
D14*
X286931699Y-69588501D03*
X293281699Y-67048501D03*
%TD*%
D12*
%TO.C,MX_K1*%
X198721698Y-95108498D03*
D11*
X193752708Y-96164689D03*
X203690688Y-94052307D03*
D14*
X194466860Y-93416147D03*
X200150002Y-89611412D03*
%TD*%
D12*
%TO.C,MX_Back1*%
X281811698Y-53079846D03*
D11*
X276731698Y-53079846D03*
D13*
X293717948Y-46094846D03*
X269905448Y-46094846D03*
D12*
X293717948Y-61334846D03*
X269905448Y-61334846D03*
D11*
X286891698Y-53079846D03*
D14*
X278001698Y-50539846D03*
X284351698Y-47999846D03*
%TD*%
D11*
%TO.C,MX_RBrc1*%
X261841697Y-72118498D03*
X272001697Y-72118498D03*
D12*
X266921697Y-72118498D03*
D14*
X263111697Y-69578498D03*
X269461697Y-67038498D03*
%TD*%
D11*
%TO.C,MX-0*%
X209142703Y-53944691D03*
X219080683Y-51832309D03*
D12*
X214111693Y-52888500D03*
D14*
X209856855Y-51196149D03*
X215539997Y-47391414D03*
%TD*%
D11*
%TO.C,MX_U1*%
X166532709Y-82474690D03*
D12*
X171501699Y-81418499D03*
D11*
X176470689Y-80362308D03*
D14*
X167246861Y-79726148D03*
X172930003Y-75921413D03*
%TD*%
D11*
%TO.C,MX_D1*%
X75212708Y-94092306D03*
D12*
X80181698Y-95148497D03*
D11*
X85150688Y-96204688D03*
D14*
X76983051Y-91871859D03*
X83722384Y-90707603D03*
%TD*%
D11*
%TO.C,MX_N1*%
X169772705Y-120764689D03*
D12*
X174741695Y-119708498D03*
D11*
X179710685Y-118652307D03*
D14*
X170486857Y-118016147D03*
X176169999Y-114211412D03*
%TD*%
D12*
%TO.C,MX_E1*%
X79481696Y-75508498D03*
D11*
X84450686Y-76564689D03*
X74512706Y-74452307D03*
D14*
X76283049Y-72231860D03*
X83022382Y-71067604D03*
%TD*%
D12*
%TO.C,MX_M1*%
X193361698Y-115728501D03*
D11*
X188392708Y-116784692D03*
X198330688Y-114672310D03*
D14*
X189106860Y-114036150D03*
X194790002Y-110231415D03*
%TD*%
D11*
%TO.C,MX_B2*%
X151122709Y-124714690D03*
D12*
X156091699Y-123658499D03*
D11*
X161060689Y-122602308D03*
D14*
X151836861Y-121966148D03*
X157520003Y-118161413D03*
%TD*%
D11*
%TO.C,MX_Dn1*%
X-20368301Y-89028496D03*
X-10208301Y-89028496D03*
D12*
X-15288301Y-89028496D03*
D14*
X-19098301Y-86488496D03*
X-12748301Y-83948496D03*
%TD*%
D11*
%TO.C,MX_LFn2*%
X120652710Y-142672305D03*
D12*
X125621700Y-143728496D03*
D11*
X130590690Y-144784687D03*
D14*
X122423053Y-140451858D03*
X129162386Y-139287602D03*
%TD*%
D12*
%TO.C,MX_Caps1*%
X14901700Y-91118501D03*
D11*
X9821700Y-91118501D03*
X19981700Y-91118501D03*
D14*
X11091700Y-88578501D03*
X17441700Y-86038501D03*
%TD*%
D11*
%TO.C,MX_Esc1*%
X21031699Y-53058498D03*
D12*
X15951699Y-53058498D03*
D11*
X10871699Y-53058498D03*
D14*
X12141699Y-50518498D03*
X18491699Y-47978498D03*
%TD*%
D11*
%TO.C,MX_9*%
X190492709Y-57914691D03*
D12*
X195461699Y-56858500D03*
D11*
X200430689Y-55802309D03*
D14*
X191206861Y-55166149D03*
X196890003Y-51361414D03*
%TD*%
D11*
%TO.C,MX_Comm1*%
X216970693Y-110712306D03*
D12*
X212001703Y-111768497D03*
D11*
X207032713Y-112824688D03*
D14*
X207746865Y-110076146D03*
X213430007Y-106271411D03*
%TD*%
D11*
%TO.C,MX_LBrc1*%
X252961698Y-72098501D03*
X242801698Y-72098501D03*
D12*
X247881698Y-72098501D03*
D14*
X244071698Y-69558501D03*
X250421698Y-67018501D03*
%TD*%
D11*
%TO.C,MX_B1*%
X127770688Y-124724690D03*
D12*
X122801698Y-123668499D03*
D11*
X117832708Y-122612308D03*
D14*
X119603051Y-120391861D03*
X126342384Y-119227605D03*
%TD*%
D12*
%TO.C,MX_Z1*%
X46391696Y-110218493D03*
D11*
X51471696Y-110218493D03*
X41311696Y-110218493D03*
D14*
X42581696Y-107678493D03*
X48931696Y-105138493D03*
%TD*%
D11*
%TO.C,MX_W1*%
X55912708Y-70462305D03*
X65850688Y-72574687D03*
D12*
X60881698Y-71518496D03*
D14*
X57683051Y-68241858D03*
X64422384Y-67077602D03*
%TD*%
D11*
%TO.C,MX_Stop1*%
X227421698Y-110218500D03*
D12*
X232501698Y-110218500D03*
D11*
X237581698Y-110218500D03*
D14*
X228691698Y-107678500D03*
X235041698Y-105138500D03*
%TD*%
D12*
%TO.C,MX_R1*%
X98121698Y-79458500D03*
D11*
X93152708Y-78402309D03*
X103090688Y-80514691D03*
D14*
X94923051Y-76181862D03*
X101662384Y-75017606D03*
%TD*%
D11*
%TO.C,MX_RAlt1*%
X221780691Y-130712307D03*
X211842711Y-132824689D03*
D12*
X216811701Y-131768498D03*
D14*
X212556863Y-130076147D03*
X218240005Y-126271412D03*
%TD*%
D15*
%TO.C,USB1*%
X141255000Y-40505000D03*
X147035000Y-40505000D03*
D16*
X148465000Y-36855000D03*
D17*
X139825000Y-41035000D03*
X148465000Y-41035000D03*
D16*
X139825000Y-36855000D03*
%TD*%
D11*
%TO.C,MX_LAlt1*%
X67060690Y-132814686D03*
D12*
X62091700Y-131758495D03*
D11*
X57122710Y-130702304D03*
D14*
X58893053Y-128481857D03*
X65632386Y-127317601D03*
%TD*%
D12*
%TO.C,MX_X1*%
X66911698Y-111768500D03*
D11*
X61942708Y-110712309D03*
X71880688Y-112824691D03*
D14*
X63713051Y-108491862D03*
X70452384Y-107327606D03*
%TD*%
D11*
%TO.C,MX_RSft2*%
X282771700Y-110194754D03*
X272611700Y-110194754D03*
D12*
X277691700Y-110194754D03*
D14*
X273881700Y-107654754D03*
X280231700Y-105114754D03*
%TD*%
D12*
%TO.C,MX_Pipe2*%
X272241703Y-53079855D03*
D11*
X267161703Y-53079855D03*
X277321703Y-53079855D03*
D14*
X268431703Y-50539855D03*
X274781703Y-47999855D03*
%TD*%
D12*
%TO.C,MX_4*%
X92771698Y-58828497D03*
D11*
X87802708Y-57772306D03*
X97740688Y-59884688D03*
D14*
X89573051Y-55551859D03*
X96312384Y-54387603D03*
%TD*%
D11*
%TO.C,MX_F1*%
X103800689Y-100144691D03*
X93862709Y-98032309D03*
D12*
X98831699Y-99088500D03*
D14*
X95633052Y-95811862D03*
X102372385Y-94647606D03*
%TD*%
D11*
%TO.C,MX_RSpc1*%
X181390686Y-137772303D03*
D12*
X176421696Y-138828494D03*
D13*
X189520029Y-143185406D03*
D12*
X186351455Y-128278437D03*
X163059315Y-133229334D03*
D13*
X166227889Y-148136304D03*
D11*
X171452706Y-139884685D03*
D14*
X172166858Y-137136143D03*
X177850000Y-133331408D03*
%TD*%
D11*
%TO.C,MX_T1*%
X121730687Y-84474686D03*
D12*
X116761697Y-83418495D03*
D11*
X111792707Y-82362304D03*
D14*
X113563050Y-80141857D03*
X120302383Y-78977601D03*
%TD*%
D11*
%TO.C,MX_Slsh1*%
X256611692Y-110238499D03*
D12*
X251531692Y-110238499D03*
D11*
X246451692Y-110238499D03*
D14*
X247721692Y-107698499D03*
X254071692Y-105158499D03*
%TD*%
D11*
%TO.C,MX_Tab1*%
X11471699Y-72118501D03*
X21631699Y-72118501D03*
D12*
X16551699Y-72118501D03*
D14*
X12741699Y-69578501D03*
X19091699Y-67038501D03*
%TD*%
D12*
%TO.C,MX_RCtl1*%
X295471699Y-129308498D03*
D11*
X290391699Y-129308498D03*
X300551699Y-129308498D03*
D14*
X291661699Y-126768498D03*
X298011699Y-124228498D03*
%TD*%
D12*
%TO.C,MX_Up1*%
X-11228305Y-69968491D03*
D11*
X-16308305Y-69968491D03*
X-6148305Y-69968491D03*
D14*
X-15038305Y-67428491D03*
X-8688305Y-64888491D03*
%TD*%
D11*
%TO.C,MX_S1*%
X66550687Y-92214688D03*
D12*
X61581697Y-91158497D03*
D11*
X56612707Y-90102306D03*
D14*
X58383050Y-87881859D03*
X65122383Y-86717603D03*
%TD*%
D12*
%TO.C,MX_LSpc2*%
X95341698Y-137288500D03*
X85411939Y-126738443D03*
D13*
X105535505Y-146596310D03*
D11*
X100310688Y-138344691D03*
X90372708Y-136232309D03*
D13*
X82243365Y-141645412D03*
D12*
X108704079Y-131689340D03*
D14*
X92143051Y-134011862D03*
X98882384Y-132847606D03*
%TD*%
D11*
%TO.C,MX_3*%
X79110686Y-55934690D03*
D12*
X74141696Y-54878499D03*
D11*
X69172706Y-53822308D03*
D14*
X70943049Y-51601861D03*
X77682382Y-50437605D03*
%TD*%
D11*
%TO.C,MX_V1*%
X109140688Y-120754689D03*
D12*
X104171698Y-119698498D03*
D11*
X99202708Y-118642307D03*
D14*
X100973051Y-116421860D03*
X107712384Y-115257604D03*
%TD*%
D12*
%TO.C,MX_O1*%
X208751699Y-73508499D03*
D11*
X203782709Y-74564690D03*
X213720689Y-72452308D03*
D14*
X204496861Y-71816148D03*
X210180003Y-68011413D03*
%TD*%
D12*
%TO.C,MX_Dash1*%
X234631700Y-50908501D03*
D11*
X229551700Y-50908501D03*
X239711700Y-50908501D03*
D14*
X230821700Y-48368501D03*
X237171700Y-45828501D03*
%TD*%
D11*
%TO.C,MX_Eql1*%
X258321698Y-53048496D03*
D12*
X253241698Y-53048496D03*
D11*
X248161698Y-53048496D03*
D14*
X249431698Y-50508496D03*
X255781698Y-47968496D03*
%TD*%
D11*
%TO.C,MX_Scln1*%
X232781699Y-91158492D03*
X242941699Y-91158492D03*
D12*
X237861699Y-91158492D03*
D14*
X234051699Y-88618492D03*
X240401699Y-86078492D03*
%TD*%
D12*
%TO.C,MX_2*%
X53641700Y-50913843D03*
D11*
X48561700Y-50913843D03*
X58721700Y-50913843D03*
D14*
X49831700Y-48373843D03*
X56181700Y-45833843D03*
%TD*%
D12*
%TO.C,MX_LSpc1*%
X111004081Y-132179344D03*
D11*
X92672710Y-136722313D03*
D12*
X87711941Y-127228447D03*
X97641700Y-137778504D03*
D13*
X107835507Y-147086314D03*
D11*
X102610690Y-138834695D03*
D13*
X84543367Y-142135416D03*
D14*
X94443053Y-134501866D03*
X101182386Y-133337610D03*
%TD*%
D11*
%TO.C,MX_Q1*%
X45431697Y-72118500D03*
X35271697Y-72118500D03*
D12*
X40351697Y-72118500D03*
D14*
X36541697Y-69578500D03*
X42891697Y-67038500D03*
%TD*%
D11*
%TO.C,MX_I1*%
X195100690Y-76412305D03*
X185162710Y-78524687D03*
D12*
X190131700Y-77468496D03*
D14*
X185876862Y-75776145D03*
X191560004Y-71971410D03*
%TD*%
D12*
%TO.C,MX_Caps2*%
X10111698Y-91148494D03*
D11*
X5031698Y-91148494D03*
X15191698Y-91148494D03*
D14*
X6301698Y-88608494D03*
X12651698Y-86068494D03*
%TD*%
D11*
%TO.C,MX_5*%
X116360688Y-63854691D03*
D12*
X111391698Y-62798500D03*
D11*
X106422708Y-61742309D03*
D14*
X108193051Y-59521862D03*
X114932384Y-58357606D03*
%TD*%
D12*
%TO.C,MX_8*%
X176831698Y-60838497D03*
D11*
X171862708Y-61894688D03*
X181800688Y-59782306D03*
D14*
X172576860Y-59146146D03*
X178260002Y-55341411D03*
%TD*%
D11*
%TO.C,MX_Quot1*%
X251831699Y-91158498D03*
X261991699Y-91158498D03*
D12*
X256911699Y-91158498D03*
D14*
X253101699Y-88618498D03*
X259451699Y-86078498D03*
%TD*%
D11*
%TO.C,MX_C1*%
X90510688Y-116784687D03*
D12*
X85541698Y-115728496D03*
D11*
X80572708Y-114672305D03*
D14*
X82343051Y-112451858D03*
X89082384Y-111287602D03*
%TD*%
D11*
%TO.C,MX_6*%
X135020689Y-67814690D03*
D12*
X130051699Y-66758499D03*
D11*
X125082709Y-65702308D03*
D14*
X126853052Y-63481861D03*
X133592385Y-62317605D03*
%TD*%
D11*
%TO.C,MX_A1*%
X35981696Y-91174744D03*
X46141696Y-91174744D03*
D12*
X41061696Y-91174744D03*
D14*
X37251696Y-88634744D03*
X43601696Y-86094744D03*
%TD*%
D11*
%TO.C,MX_Back2*%
X296451699Y-53079846D03*
D12*
X291371699Y-53079846D03*
D11*
X286291699Y-53079846D03*
D14*
X287561699Y-50539846D03*
X293911699Y-47999846D03*
%TD*%
D12*
%TO.C,MX_H1*%
X161451700Y-103058500D03*
D11*
X166420690Y-102002309D03*
X156482710Y-104114691D03*
D14*
X157196862Y-101366149D03*
X162880004Y-97561414D03*
%TD*%
D11*
%TO.C,MX_Y1*%
X147882708Y-86444690D03*
D12*
X152851698Y-85388499D03*
D11*
X157820688Y-84332308D03*
D14*
X148596860Y-83696148D03*
X154280002Y-79891413D03*
%TD*%
D11*
%TO.C,MX_7*%
X153252708Y-65834687D03*
X163190688Y-63722305D03*
D12*
X158221698Y-64778496D03*
D14*
X153966860Y-63086145D03*
X159650002Y-59281410D03*
%TD*%
D11*
%TO.C,MX_P1*%
X234311697Y-71058496D03*
D12*
X229231697Y-71058496D03*
D11*
X224151697Y-71058496D03*
D14*
X225421697Y-68518496D03*
X231771697Y-65978496D03*
%TD*%
D12*
%TO.C,MX_Fn1*%
X304001698Y-110194748D03*
D11*
X298921698Y-110194748D03*
X309081698Y-110194748D03*
D14*
X300191698Y-107654748D03*
X306541698Y-105114748D03*
%TD*%
D13*
%TO.C,MX_RSft1*%
X275355446Y-103209746D03*
D12*
X275355446Y-118449746D03*
X299167946Y-118449746D03*
D13*
X299167946Y-103209746D03*
D11*
X292341696Y-110194746D03*
D12*
X287261696Y-110194746D03*
D11*
X282181696Y-110194746D03*
D14*
X283451696Y-107654746D03*
X289801696Y-105114746D03*
%TD*%
D11*
%TO.C,MX_G1*%
X112492703Y-101982307D03*
D12*
X117461693Y-103038498D03*
D11*
X122430683Y-104094689D03*
D14*
X114263046Y-99761860D03*
X121002379Y-98597604D03*
%TD*%
D11*
%TO.C,MX_LCtl1*%
X3251699Y-129278499D03*
X13411699Y-129278499D03*
D12*
X8331699Y-129278499D03*
D14*
X4521699Y-126738499D03*
X10871699Y-124198499D03*
%TD*%
D11*
%TO.C,MX_L1*%
X222340684Y-90082307D03*
X212402704Y-92194689D03*
D12*
X217371694Y-91138498D03*
D14*
X213116856Y-89446147D03*
X218799998Y-85641412D03*
%TD*%
D12*
%TO.C,MX_LSft1*%
X15461698Y-110214050D03*
D13*
X27367948Y-103229050D03*
D11*
X20541698Y-110214050D03*
X10381698Y-110214050D03*
D12*
X3555448Y-118469050D03*
X27367948Y-118469050D03*
D13*
X3555448Y-103229050D03*
D14*
X11651698Y-107674050D03*
X18001698Y-105134050D03*
%TD*%
D11*
%TO.C,MX_Del1*%
X-12143389Y-50929850D03*
D12*
X-7063389Y-50929850D03*
D11*
X-1983389Y-50929850D03*
D14*
X-10873389Y-48389850D03*
X-4523389Y-45849850D03*
%TD*%
D11*
%TO.C,MX_1*%
X40061698Y-53058499D03*
D12*
X34981698Y-53058499D03*
D11*
X29901698Y-53058499D03*
D14*
X31171698Y-50518499D03*
X37521698Y-47978499D03*
%TD*%
D12*
%TO.C,MX_J1*%
X180091699Y-99098498D03*
D11*
X185060689Y-98042307D03*
X175122709Y-100154689D03*
D14*
X175836861Y-97406147D03*
X181520003Y-93601412D03*
%TD*%
D11*
%TO.C,MX_LFn1*%
X132930685Y-145284693D03*
X122992705Y-143172311D03*
D12*
X127961695Y-144228502D03*
D14*
X124763048Y-140951864D03*
X131502381Y-139787608D03*
%TD*%
D18*
%TO.C,C_VDDA1*%
X136181700Y-110368495D03*
X137141700Y-110368495D03*
%TD*%
D19*
%TO.C,U_Power1*%
X143689196Y-88538499D03*
X143689196Y-90438499D03*
X141814196Y-89488499D03*
%TD*%
D20*
%TO.C,D_SW_LSft1*%
X18561703Y-112747804D03*
X18561703Y-109447804D03*
%TD*%
D21*
%TO.C,D_SW_Comm1*%
X215564717Y-113607167D03*
X214878609Y-110379279D03*
%TD*%
D18*
%TO.C,C_VDDA2*%
X136181691Y-111448497D03*
X137141691Y-111448497D03*
%TD*%
D21*
%TO.C,D_SW_B2*%
X159649041Y-125491295D03*
X158962933Y-122263407D03*
%TD*%
D22*
%TO.C,D_LED_Scroll1*%
X-21373392Y-132409853D03*
D23*
X-23913392Y-132409853D03*
%TD*%
D20*
%TO.C,D_SW_PP2*%
X275051701Y-57103600D03*
X275051701Y-53803600D03*
%TD*%
D24*
%TO.C,R_LED2*%
X-22133389Y-130159848D03*
X-23153389Y-130159848D03*
%TD*%
D21*
%TO.C,D_SW_L1*%
X220928230Y-92975492D03*
X220242122Y-89747604D03*
%TD*%
D24*
%TO.C,R_Shield1*%
X152422238Y-43558495D03*
X151402238Y-43558495D03*
%TD*%
D20*
%TO.C,D_SW_1*%
X38081707Y-55592249D03*
X38081707Y-52292249D03*
%TD*%
%TO.C,D_SW_LCtl1*%
X11431698Y-131812246D03*
X11431698Y-128512246D03*
%TD*%
D25*
%TO.C,RESET1*%
X145521698Y-112078501D03*
X139221698Y-112078501D03*
X139221698Y-115878501D03*
X145521698Y-115878501D03*
%TD*%
D26*
%TO.C,U_MCU1*%
X140561696Y-106740994D03*
X140061696Y-106740994D03*
X139561696Y-106740994D03*
X139061696Y-106740994D03*
X138561696Y-106740994D03*
X138061696Y-106740994D03*
X137561696Y-106740994D03*
X137061696Y-106740994D03*
X136561696Y-106740994D03*
X136061696Y-106740994D03*
X135561696Y-106740994D03*
X135061696Y-106740994D03*
D27*
X133649196Y-105328494D03*
X133649196Y-104828494D03*
X133649196Y-104328494D03*
X133649196Y-103828494D03*
X133649196Y-103328494D03*
X133649196Y-102828494D03*
X133649196Y-102328494D03*
X133649196Y-101828494D03*
X133649196Y-101328494D03*
X133649196Y-100828494D03*
X133649196Y-100328494D03*
X133649196Y-99828494D03*
D26*
X135061696Y-98415994D03*
X135561696Y-98415994D03*
X136061696Y-98415994D03*
X136561696Y-98415994D03*
X137061696Y-98415994D03*
X137561696Y-98415994D03*
X138061696Y-98415994D03*
X138561696Y-98415994D03*
X139061696Y-98415994D03*
X139561696Y-98415994D03*
X140061696Y-98415994D03*
X140561696Y-98415994D03*
D27*
X141974196Y-99828494D03*
X141974196Y-100328494D03*
X141974196Y-100828494D03*
X141974196Y-101328494D03*
X141974196Y-101828494D03*
X141974196Y-102328494D03*
X141974196Y-102828494D03*
X141974196Y-103328494D03*
X141974196Y-103828494D03*
X141974196Y-104328494D03*
X141974196Y-104828494D03*
X141974196Y-105328494D03*
%TD*%
D28*
%TO.C,R_BOOT1*%
X148331701Y-105798497D03*
X148331701Y-106818497D03*
%TD*%
D29*
%TO.C,BOOT1*%
X147591697Y-113873493D03*
D30*
X152741697Y-112763493D03*
D29*
X154891697Y-113873493D03*
X147591697Y-111663493D03*
X154891697Y-111663493D03*
D30*
X149741697Y-112763493D03*
D31*
X148991697Y-114523493D03*
X151991697Y-114523493D03*
X153491697Y-114523493D03*
%TD*%
D32*
%TO.C,C_VDD2*%
X144601696Y-105908497D03*
X144601696Y-104948497D03*
%TD*%
D20*
%TO.C,D_SW_Del1*%
X-3963387Y-53463602D03*
X-3963387Y-50163602D03*
%TD*%
D33*
%TO.C,D_PWR1*%
X153276611Y-49579848D03*
X149976611Y-49579848D03*
%TD*%
D20*
%TO.C,D_SW_Esc1*%
X19051689Y-55592244D03*
X19051689Y-52292244D03*
%TD*%
D34*
%TO.C,D_SW_6*%
X132557304Y-69876390D03*
X133243412Y-66648502D03*
%TD*%
D35*
%TO.C,F1*%
X147292238Y-47570989D03*
X147292238Y-49445989D03*
%TD*%
D34*
%TO.C,D_SW_4*%
X95281518Y-61959402D03*
X95967626Y-58731514D03*
%TD*%
D20*
%TO.C,D_SW_Quot1*%
X260011700Y-93692242D03*
X260011700Y-90392242D03*
%TD*%
D34*
%TO.C,D_SW_F1*%
X101333235Y-102206855D03*
X102019343Y-98978967D03*
%TD*%
D21*
%TO.C,D_SW_J1*%
X183644525Y-100932277D03*
X182958417Y-97704389D03*
%TD*%
D20*
%TO.C,D_SW_A1*%
X44161699Y-93708497D03*
X44161699Y-90408497D03*
%TD*%
D21*
%TO.C,D_SW_8*%
X180383280Y-62674757D03*
X179697172Y-59446869D03*
%TD*%
%TO.C,D_SW_H1*%
X165014645Y-104899412D03*
X164328537Y-101671524D03*
%TD*%
D20*
%TO.C,D_SW_Tab1*%
X19651700Y-74662250D03*
X19651700Y-71362250D03*
%TD*%
D21*
%TO.C,D_SW_7*%
X161779030Y-66610247D03*
X161092922Y-63382359D03*
%TD*%
D20*
%TO.C,D_SW_Slsh1*%
X254631705Y-112772247D03*
X254631705Y-109472247D03*
%TD*%
D22*
%TO.C,D_LED_Layer1*%
X-21373388Y-136919860D03*
D23*
X-23913388Y-136919860D03*
%TD*%
D36*
%TO.C,C_VDDIO2*%
X141551702Y-95658497D03*
X140591702Y-95658497D03*
%TD*%
D20*
%TO.C,D_SW_Rsft1*%
X290361699Y-112728496D03*
X290361699Y-109428496D03*
%TD*%
D37*
%TO.C,R_LDO2*%
X146371697Y-89998494D03*
X146371697Y-88978494D03*
%TD*%
D20*
%TO.C,D_SW_Enter1*%
X290961701Y-93706705D03*
X290961701Y-90406705D03*
%TD*%
%TO.C,D_SW_Back1*%
X294471698Y-55613603D03*
X294471698Y-52313603D03*
%TD*%
D34*
%TO.C,D_SW_S1*%
X64089306Y-94282156D03*
X64775414Y-91054268D03*
%TD*%
%TO.C,D_SW_R1*%
X100617334Y-82579219D03*
X101303442Y-79351331D03*
%TD*%
D21*
%TO.C,D_SW_Y1*%
X156405729Y-87223996D03*
X155719621Y-83996108D03*
%TD*%
D34*
%TO.C,D_SW_X1*%
X69413259Y-114889676D03*
X70099367Y-111661788D03*
%TD*%
D21*
%TO.C,D_SW_M1*%
X196922751Y-117564527D03*
X196236643Y-114336639D03*
%TD*%
D22*
%TO.C,D_LED_Caps1*%
X-21373389Y-127919855D03*
D23*
X-23913389Y-127919855D03*
%TD*%
D32*
%TO.C,C_LDO2*%
X145231693Y-89968496D03*
X145231693Y-89008496D03*
%TD*%
D20*
%TO.C,D_SW_Caps1*%
X18001699Y-93652249D03*
X18001699Y-90352249D03*
%TD*%
D21*
%TO.C,D_SW_9*%
X199022747Y-58693463D03*
X198336639Y-55465575D03*
%TD*%
D20*
%TO.C,D_SW_Scln1*%
X240961707Y-93692254D03*
X240961707Y-90392254D03*
%TD*%
D21*
%TO.C,D_SW_Ie*%
X193691514Y-79296998D03*
X193005406Y-76069110D03*
%TD*%
D34*
%TO.C,D_SW_3*%
X76639782Y-57999969D03*
X77325890Y-54772081D03*
%TD*%
%TO.C,D_SW_LSpc1*%
X104018921Y-141720561D03*
X104705029Y-138492673D03*
%TD*%
D38*
%TO.C,D_ESD1*%
X143102249Y-47348490D03*
D39*
X143102249Y-45648490D03*
X145102249Y-45648490D03*
X145102249Y-47548490D03*
%TD*%
D34*
%TO.C,D_SW_B1*%
X125304776Y-126793371D03*
X125990884Y-123565483D03*
%TD*%
D36*
%TO.C,C_Shield1*%
X152392248Y-44638494D03*
X151432248Y-44638494D03*
%TD*%
D20*
%TO.C,D_SW_Eql1*%
X256341702Y-55582252D03*
X256341702Y-52282252D03*
%TD*%
%TO.C,D_SW_LBrc1*%
X250981695Y-74632258D03*
X250981695Y-71332258D03*
%TD*%
D24*
%TO.C,R_LED3*%
X-22133394Y-134659847D03*
X-23153394Y-134659847D03*
%TD*%
D21*
%TO.C,D_SW_RSpc1*%
X179981572Y-140662212D03*
X179295464Y-137434324D03*
%TD*%
D24*
%TO.C,R_LED1*%
X-22133392Y-125229856D03*
X-23153392Y-125229856D03*
%TD*%
D20*
%TO.C,D_SW_RCtl1*%
X298571703Y-131842251D03*
X298571703Y-128542251D03*
%TD*%
%TO.C,D_SW_Fn1*%
X307101697Y-112728500D03*
X307101697Y-109428500D03*
%TD*%
%TO.C,D_SW_P1*%
X232331695Y-73592250D03*
X232331695Y-70292250D03*
%TD*%
D40*
%TO.C,J_SWD1*%
X144526702Y-123197247D03*
D41*
X144526702Y-120657247D03*
X141986702Y-123197247D03*
X141986702Y-120657247D03*
X139446702Y-123197247D03*
X139446702Y-120657247D03*
X136906702Y-123197247D03*
X136906702Y-120657247D03*
X134366702Y-123197247D03*
X134366702Y-120657247D03*
%TD*%
D21*
%TO.C,D_SW_RAlt1*%
X220363994Y-133601799D03*
X219677886Y-130373911D03*
%TD*%
D34*
%TO.C,D_SW_D1*%
X82683574Y-98267651D03*
X83369682Y-95039763D03*
%TD*%
%TO.C,D_SW_V1*%
X106674902Y-122826242D03*
X107361010Y-119598354D03*
%TD*%
%TO.C,D_SW_C1*%
X88042936Y-118858885D03*
X88729044Y-115630997D03*
%TD*%
D33*
%TO.C,D_LDO1*%
X141531695Y-92468499D03*
X144831695Y-92468499D03*
%TD*%
D20*
%TO.C,D_SW_Stop1*%
X235601701Y-112752251D03*
X235601701Y-109452251D03*
%TD*%
D40*
%TO.C,J_RGB1*%
X129711701Y-86648499D03*
D41*
X129711701Y-89188499D03*
X129711701Y-91728499D03*
%TD*%
D20*
%TO.C,D_SW_RBrc1*%
X270021695Y-74652245D03*
X270021695Y-71352245D03*
%TD*%
D18*
%TO.C,C_LDO1*%
X142271697Y-87208491D03*
X143231697Y-87208491D03*
%TD*%
D34*
%TO.C,D_SW_E1*%
X81985381Y-78631866D03*
X82671489Y-75403978D03*
%TD*%
D20*
%TO.C,D_SW_Q1*%
X43451697Y-74652247D03*
X43451697Y-71352247D03*
%TD*%
D24*
%TO.C,R_USB1*%
X140171317Y-44264519D03*
X139151317Y-44264519D03*
%TD*%
D36*
%TO.C,C_VDDIO1*%
X141551693Y-96708495D03*
X140591693Y-96708495D03*
%TD*%
D34*
%TO.C,D_SW_W1*%
X63383630Y-74642431D03*
X64069738Y-71414543D03*
%TD*%
D21*
%TO.C,D_SW_N1*%
X178300785Y-121541880D03*
X177614677Y-118313992D03*
%TD*%
D37*
%TO.C,R_RGB1*%
X136571700Y-96218498D03*
X136571700Y-95198498D03*
%TD*%
D21*
%TO.C,D_SW_U1*%
X175059554Y-83254357D03*
X174373446Y-80026469D03*
%TD*%
D20*
%TO.C,D_SW_Pipe1*%
X293841704Y-74662251D03*
X293841704Y-71362251D03*
%TD*%
D34*
%TO.C,D_SW_G1*%
X119964984Y-106156288D03*
X120651092Y-102928400D03*
%TD*%
D21*
%TO.C,D_SW_K1*%
X202274413Y-96945153D03*
X201588305Y-93717265D03*
%TD*%
D20*
%TO.C,D_SW_Up1*%
X-8128295Y-72502252D03*
X-8128295Y-69202252D03*
%TD*%
D34*
%TO.C,D_SW_5*%
X113903049Y-65920914D03*
X114589157Y-62693026D03*
%TD*%
D10*
%TO.C,R_LDO1*%
X142241695Y-86118495D03*
X143261695Y-86118495D03*
%TD*%
D20*
%TO.C,D_SW_Dn1*%
X-12188300Y-91562245D03*
X-12188300Y-88262245D03*
%TD*%
D34*
%TO.C,D_SW_LFn1*%
X134338440Y-148174945D03*
X135024548Y-144947057D03*
%TD*%
D20*
%TO.C,D_SW_Dash1*%
X237731703Y-53442246D03*
X237731703Y-50142246D03*
%TD*%
%TO.C,D_SW_Z1*%
X49491694Y-112752243D03*
X49491694Y-109452243D03*
%TD*%
D34*
%TO.C,D_SW_T1*%
X119269088Y-86538647D03*
X119955196Y-83310759D03*
%TD*%
D42*
%TO.C,C_VDD3*%
X132071696Y-99238493D03*
X132071696Y-100198493D03*
%TD*%
D32*
%TO.C,C_VDD1*%
X143531698Y-105908492D03*
X143531698Y-104948492D03*
%TD*%
D34*
%TO.C,D_SW_LAlt1*%
X64591915Y-134884073D03*
X65278023Y-131656185D03*
%TD*%
D21*
%TO.C,D_SW_0*%
X217676555Y-54723816D03*
X216990447Y-51495928D03*
%TD*%
D20*
%TO.C,D_SW_2*%
X56741687Y-53447591D03*
X56741687Y-50147591D03*
%TD*%
D21*
%TO.C,D_SW_O1*%
X212313262Y-75347574D03*
X211627154Y-72119686D03*
%TD*%
M02*
