%TF.GenerationSoftware,KiCad,Pcbnew,(6.0.0)*%
%TF.CreationDate,2022-03-14T10:16:23+02:00*%
%TF.ProjectId,Alice_PCB,416c6963-655f-4504-9342-2e6b69636164,rev?*%
%TF.SameCoordinates,Original*%
%TF.FileFunction,Legend,Top*%
%TF.FilePolarity,Positive*%
%FSLAX46Y46*%
G04 Gerber Fmt 4.6, Leading zero omitted, Abs format (unit mm)*
G04 Created by KiCad (PCBNEW (6.0.0)) date 2022-03-14 10:16:23*
%MOMM*%
%LPD*%
G01*
G04 APERTURE LIST*
G04 Aperture macros list*
%AMRoundRect*
0 Rectangle with rounded corners*
0 $1 Rounding radius*
0 $2 $3 $4 $5 $6 $7 $8 $9 X,Y pos of 4 corners*
0 Add a 4 corners polygon primitive as box body*
4,1,4,$2,$3,$4,$5,$6,$7,$8,$9,$2,$3,0*
0 Add four circle primitives for the rounded corners*
1,1,$1+$1,$2,$3*
1,1,$1+$1,$4,$5*
1,1,$1+$1,$6,$7*
1,1,$1+$1,$8,$9*
0 Add four rect primitives between the rounded corners*
20,1,$1+$1,$2,$3,$4,$5,0*
20,1,$1+$1,$4,$5,$6,$7,0*
20,1,$1+$1,$6,$7,$8,$9,0*
20,1,$1+$1,$8,$9,$2,$3,0*%
G04 Aperture macros list end*
%ADD10C,0.150000*%
%ADD11C,1.750000*%
%ADD12C,3.987800*%
%ADD13C,3.048000*%
%ADD14C,0.750000*%
%ADD15RoundRect,0.050000X0.300000X0.725000X-0.300000X0.725000X-0.300000X-0.725000X0.300000X-0.725000X0*%
%ADD16RoundRect,0.050000X0.150000X0.725000X-0.150000X0.725000X-0.150000X-0.725000X0.150000X-0.725000X0*%
%ADD17O,1.100000X1.700000*%
%ADD18O,1.100000X2.200000*%
%ADD19C,0.900000*%
%ADD20R,1.700000X1.700000*%
%ADD21O,1.700000X1.700000*%
G04 APERTURE END LIST*
D10*
%TO.C,USB1*%
X142754523Y-43066904D02*
X142754523Y-43714523D01*
X142792619Y-43790714D01*
X142830714Y-43828809D01*
X142906904Y-43866904D01*
X143059285Y-43866904D01*
X143135476Y-43828809D01*
X143173571Y-43790714D01*
X143211666Y-43714523D01*
X143211666Y-43066904D01*
X143554523Y-43828809D02*
X143668809Y-43866904D01*
X143859285Y-43866904D01*
X143935476Y-43828809D01*
X143973571Y-43790714D01*
X144011666Y-43714523D01*
X144011666Y-43638333D01*
X143973571Y-43562142D01*
X143935476Y-43524047D01*
X143859285Y-43485952D01*
X143706904Y-43447857D01*
X143630714Y-43409761D01*
X143592619Y-43371666D01*
X143554523Y-43295476D01*
X143554523Y-43219285D01*
X143592619Y-43143095D01*
X143630714Y-43105000D01*
X143706904Y-43066904D01*
X143897380Y-43066904D01*
X144011666Y-43105000D01*
X144621190Y-43447857D02*
X144735476Y-43485952D01*
X144773571Y-43524047D01*
X144811666Y-43600238D01*
X144811666Y-43714523D01*
X144773571Y-43790714D01*
X144735476Y-43828809D01*
X144659285Y-43866904D01*
X144354523Y-43866904D01*
X144354523Y-43066904D01*
X144621190Y-43066904D01*
X144697380Y-43105000D01*
X144735476Y-43143095D01*
X144773571Y-43219285D01*
X144773571Y-43295476D01*
X144735476Y-43371666D01*
X144697380Y-43409761D01*
X144621190Y-43447857D01*
X144354523Y-43447857D01*
X145573571Y-43866904D02*
X145116428Y-43866904D01*
X145345000Y-43866904D02*
X145345000Y-43066904D01*
X145268809Y-43181190D01*
X145192619Y-43257380D01*
X145116428Y-43295476D01*
%TD*%
%LPC*%
%TO.C,G\u002A\u002A\u002A*%
G36*
X34921158Y-124639597D02*
G01*
X34978591Y-124643751D01*
X34985527Y-124644518D01*
X35149041Y-124672176D01*
X35307174Y-124715937D01*
X35458919Y-124774984D01*
X35603268Y-124848500D01*
X35739214Y-124935669D01*
X35865753Y-125035674D01*
X35981876Y-125147699D01*
X36086576Y-125270928D01*
X36178848Y-125404544D01*
X36257685Y-125547730D01*
X36322080Y-125699671D01*
X36336141Y-125739933D01*
X36381443Y-125901553D01*
X36409846Y-126063122D01*
X36421912Y-126223700D01*
X36418202Y-126382344D01*
X36399279Y-126538113D01*
X36365706Y-126690064D01*
X36318045Y-126837257D01*
X36256857Y-126978749D01*
X36182706Y-127113599D01*
X36096154Y-127240865D01*
X35997763Y-127359604D01*
X35888095Y-127468876D01*
X35767713Y-127567739D01*
X35637180Y-127655250D01*
X35497056Y-127730468D01*
X35347905Y-127792451D01*
X35190289Y-127840258D01*
X35066500Y-127866305D01*
X34999178Y-127875562D01*
X34921785Y-127882433D01*
X34839982Y-127886702D01*
X34759430Y-127888151D01*
X34685791Y-127886562D01*
X34635043Y-127882892D01*
X34469376Y-127857089D01*
X34309355Y-127815444D01*
X34155922Y-127758737D01*
X34010018Y-127687751D01*
X33872586Y-127603265D01*
X33744567Y-127506062D01*
X33626903Y-127396923D01*
X33520536Y-127276629D01*
X33426409Y-127145961D01*
X33345462Y-127005700D01*
X33278638Y-126856628D01*
X33232472Y-126719505D01*
X33212196Y-126645435D01*
X33196820Y-126579932D01*
X33185726Y-126518323D01*
X33178296Y-126455937D01*
X33173914Y-126388101D01*
X33171961Y-126310144D01*
X33171699Y-126259636D01*
X33173060Y-126162560D01*
X33177668Y-126078029D01*
X33186256Y-126001264D01*
X33199559Y-125927485D01*
X33218313Y-125851914D01*
X33243252Y-125769771D01*
X33250307Y-125748342D01*
X33311957Y-125590163D01*
X33387872Y-125441637D01*
X33477311Y-125303403D01*
X33579536Y-125176098D01*
X33693805Y-125060361D01*
X33819378Y-124956830D01*
X33955516Y-124866143D01*
X34101477Y-124788939D01*
X34256523Y-124725856D01*
X34419912Y-124677531D01*
X34516189Y-124656891D01*
X34567427Y-124649601D01*
X34631420Y-124643909D01*
X34703478Y-124639939D01*
X34778913Y-124637814D01*
X34853036Y-124637659D01*
X34921158Y-124639597D01*
G37*
G36*
X31869692Y-131897009D02*
G01*
X31868988Y-131841490D01*
X31868322Y-131770962D01*
X31867694Y-131686257D01*
X31867104Y-131588206D01*
X31866552Y-131477642D01*
X31866038Y-131355396D01*
X31865562Y-131222301D01*
X31865124Y-131079188D01*
X31864724Y-130926890D01*
X31864362Y-130766238D01*
X31864037Y-130598064D01*
X31863751Y-130423201D01*
X31863503Y-130242479D01*
X31863292Y-130056732D01*
X31863120Y-129866792D01*
X31862985Y-129673489D01*
X31862889Y-129477656D01*
X31862830Y-129280126D01*
X31862810Y-129081729D01*
X31862827Y-128883298D01*
X31862883Y-128685665D01*
X31862976Y-128489662D01*
X31863107Y-128296120D01*
X31863277Y-128105873D01*
X31863484Y-127919751D01*
X31863729Y-127738586D01*
X31864012Y-127563212D01*
X31864334Y-127394458D01*
X31864693Y-127233159D01*
X31865090Y-127080144D01*
X31865525Y-126936247D01*
X31865998Y-126802300D01*
X31866509Y-126679134D01*
X31867058Y-126567581D01*
X31867645Y-126468473D01*
X31868270Y-126382642D01*
X31868932Y-126310921D01*
X31869633Y-126254141D01*
X31870110Y-126227648D01*
X32558942Y-126227648D01*
X32559022Y-126301846D01*
X32560231Y-126373972D01*
X32562567Y-126440120D01*
X32566030Y-126496380D01*
X32570109Y-126535343D01*
X32606661Y-126736940D01*
X32658772Y-126930917D01*
X32726267Y-127116921D01*
X32808974Y-127294602D01*
X32906721Y-127463608D01*
X33019333Y-127623587D01*
X33146639Y-127774187D01*
X33214030Y-127844153D01*
X33359297Y-127976845D01*
X33514011Y-128095569D01*
X33677115Y-128199929D01*
X33847554Y-128289531D01*
X34024272Y-128363980D01*
X34206213Y-128422881D01*
X34392320Y-128465841D01*
X34581539Y-128492464D01*
X34772812Y-128502355D01*
X34957458Y-128495738D01*
X35156985Y-128471400D01*
X35350872Y-128430562D01*
X35538601Y-128373461D01*
X35719654Y-128300334D01*
X35893513Y-128211421D01*
X36059662Y-128106959D01*
X36217582Y-127987185D01*
X36366757Y-127852338D01*
X36375206Y-127843985D01*
X36509347Y-127698577D01*
X36628986Y-127543476D01*
X36733933Y-127379071D01*
X36823995Y-127205749D01*
X36898982Y-127023899D01*
X36958703Y-126833909D01*
X37002967Y-126636167D01*
X37019127Y-126535343D01*
X37023602Y-126491326D01*
X37026952Y-126433903D01*
X37029176Y-126366984D01*
X37030273Y-126294476D01*
X37030240Y-126220286D01*
X37029078Y-126148323D01*
X37026784Y-126082495D01*
X37023358Y-126026708D01*
X37019304Y-125988306D01*
X36982320Y-125785410D01*
X36930210Y-125591314D01*
X36862935Y-125405941D01*
X36780457Y-125229219D01*
X36682741Y-125061073D01*
X36569747Y-124901428D01*
X36441439Y-124750211D01*
X36346849Y-124653537D01*
X36198945Y-124521665D01*
X36043963Y-124405441D01*
X35881285Y-124304554D01*
X35710294Y-124218694D01*
X35530371Y-124147551D01*
X35340899Y-124090815D01*
X35141260Y-124048176D01*
X35139832Y-124047928D01*
X35101836Y-124041696D01*
X35066518Y-124036910D01*
X35030669Y-124033387D01*
X34991080Y-124030945D01*
X34944541Y-124029400D01*
X34887843Y-124028570D01*
X34817778Y-124028272D01*
X34794618Y-124028259D01*
X34720099Y-124028438D01*
X34659873Y-124029096D01*
X34610732Y-124030415D01*
X34569466Y-124032580D01*
X34532867Y-124035772D01*
X34497725Y-124040174D01*
X34460832Y-124045970D01*
X34449404Y-124047928D01*
X34249692Y-124090469D01*
X34060151Y-124147106D01*
X33880164Y-124218148D01*
X33709113Y-124303904D01*
X33546379Y-124404686D01*
X33391345Y-124520802D01*
X33243394Y-124652564D01*
X33242387Y-124653537D01*
X33103793Y-124799147D01*
X32980540Y-124953135D01*
X32872588Y-125115575D01*
X32779900Y-125286540D01*
X32702440Y-125466107D01*
X32640169Y-125654348D01*
X32593051Y-125851338D01*
X32569932Y-125988306D01*
X32565485Y-126031709D01*
X32562172Y-126088672D01*
X32559991Y-126155288D01*
X32558942Y-126227648D01*
X31870110Y-126227648D01*
X31870372Y-126213133D01*
X31871149Y-126188731D01*
X31871214Y-126187493D01*
X31892140Y-125957660D01*
X31929086Y-125734740D01*
X31982169Y-125518421D01*
X32051508Y-125308393D01*
X32137220Y-125104346D01*
X32239425Y-124905970D01*
X32358240Y-124712955D01*
X32493783Y-124524990D01*
X32514797Y-124498181D01*
X32551493Y-124454240D01*
X32598206Y-124401950D01*
X32651806Y-124344518D01*
X32709162Y-124285152D01*
X32767143Y-124227059D01*
X32822618Y-124173447D01*
X32872456Y-124127523D01*
X32899684Y-124103871D01*
X33080352Y-123962823D01*
X33267991Y-123837744D01*
X33462823Y-123728539D01*
X33665067Y-123635113D01*
X33874944Y-123557372D01*
X34092676Y-123495219D01*
X34318483Y-123448559D01*
X34470772Y-123426361D01*
X34515523Y-123422323D01*
X34574223Y-123419193D01*
X34643340Y-123416971D01*
X34719342Y-123415656D01*
X34798695Y-123415249D01*
X34877868Y-123415749D01*
X34953329Y-123417156D01*
X35021544Y-123419471D01*
X35078981Y-123422694D01*
X35118464Y-123426361D01*
X35346891Y-123462255D01*
X35566257Y-123512886D01*
X35777369Y-123578530D01*
X35981036Y-123659465D01*
X36178066Y-123755969D01*
X36327513Y-123842138D01*
X36454501Y-123924289D01*
X36571365Y-124008656D01*
X36682533Y-124098805D01*
X36792431Y-124198300D01*
X36891058Y-124295855D01*
X37034109Y-124452145D01*
X37161583Y-124612442D01*
X37275355Y-124779411D01*
X37377303Y-124955719D01*
X37432863Y-125065612D01*
X37519852Y-125263804D01*
X37590692Y-125463645D01*
X37645905Y-125667186D01*
X37686011Y-125876478D01*
X37711532Y-126093570D01*
X37718022Y-126187493D01*
X37718802Y-126210497D01*
X37719544Y-126250175D01*
X37720248Y-126305694D01*
X37720914Y-126376222D01*
X37721542Y-126460927D01*
X37722132Y-126558978D01*
X37722684Y-126669543D01*
X37723198Y-126791788D01*
X37723674Y-126924883D01*
X37724112Y-127067996D01*
X37724512Y-127220295D01*
X37724875Y-127380946D01*
X37725199Y-127549120D01*
X37725485Y-127723983D01*
X37725733Y-127904705D01*
X37725944Y-128090452D01*
X37726116Y-128280392D01*
X37726251Y-128473695D01*
X37726347Y-128669528D01*
X37726406Y-128867059D01*
X37726426Y-129065455D01*
X37726409Y-129263886D01*
X37726353Y-129461519D01*
X37726260Y-129657522D01*
X37726129Y-129851064D01*
X37725959Y-130041311D01*
X37725752Y-130227433D01*
X37725507Y-130408598D01*
X37725224Y-130583972D01*
X37724903Y-130752726D01*
X37724543Y-130914025D01*
X37724146Y-131067040D01*
X37723711Y-131210937D01*
X37723238Y-131344884D01*
X37722727Y-131468050D01*
X37722178Y-131579603D01*
X37721591Y-131678711D01*
X37720967Y-131764542D01*
X37720304Y-131836263D01*
X37719603Y-131893044D01*
X37718864Y-131934051D01*
X37718087Y-131958453D01*
X37718022Y-131959691D01*
X37697065Y-132189568D01*
X37660035Y-132412637D01*
X37606826Y-132629174D01*
X37537333Y-132839454D01*
X37451453Y-133043752D01*
X37349080Y-133242343D01*
X37230109Y-133435502D01*
X37094436Y-133623503D01*
X37074439Y-133649003D01*
X37037743Y-133692944D01*
X36991030Y-133745234D01*
X36937430Y-133802666D01*
X36880074Y-133862032D01*
X36822093Y-133920125D01*
X36766618Y-133973737D01*
X36716780Y-134019661D01*
X36689553Y-134043313D01*
X36508222Y-134184757D01*
X36319500Y-134310334D01*
X36123429Y-134420026D01*
X35920048Y-134513815D01*
X35709398Y-134591683D01*
X35491521Y-134653612D01*
X35266457Y-134699584D01*
X35161601Y-134715225D01*
X35115922Y-134719921D01*
X35056545Y-134723997D01*
X34987114Y-134727383D01*
X34911276Y-134730006D01*
X34832676Y-134731794D01*
X34754961Y-134732677D01*
X34681775Y-134732582D01*
X34616765Y-134731438D01*
X34563577Y-134729173D01*
X34540793Y-134727433D01*
X34310068Y-134697199D01*
X34086309Y-134650913D01*
X33869555Y-134588590D01*
X33659844Y-134510248D01*
X33457213Y-134415901D01*
X33261702Y-134305565D01*
X33073349Y-134179258D01*
X32899684Y-134043313D01*
X32855035Y-134003918D01*
X32802766Y-133954803D01*
X32746009Y-133899175D01*
X32687894Y-133840243D01*
X32631552Y-133781214D01*
X32580113Y-133725295D01*
X32536709Y-133675693D01*
X32514797Y-133649003D01*
X32393222Y-133485980D01*
X32286673Y-133322466D01*
X32192932Y-133154949D01*
X32156373Y-133081572D01*
X32069384Y-132883380D01*
X31998544Y-132683539D01*
X31943331Y-132479998D01*
X31903225Y-132270706D01*
X31877704Y-132053614D01*
X31871214Y-131959691D01*
X31870697Y-131944440D01*
X32558971Y-131944440D01*
X32568346Y-132127745D01*
X32594696Y-132310166D01*
X32637492Y-132490504D01*
X32696206Y-132667563D01*
X32770310Y-132840145D01*
X32859275Y-133007054D01*
X32962574Y-133167091D01*
X33079678Y-133319059D01*
X33210060Y-133461762D01*
X33242387Y-133493647D01*
X33392288Y-133626856D01*
X33550523Y-133744733D01*
X33716780Y-133847123D01*
X33890746Y-133933868D01*
X34072110Y-134004812D01*
X34260560Y-134059798D01*
X34445028Y-134096978D01*
X34493371Y-134104633D01*
X34532954Y-134110529D01*
X34567166Y-134114865D01*
X34599394Y-134117838D01*
X34633027Y-134119646D01*
X34671452Y-134120486D01*
X34718058Y-134120557D01*
X34776233Y-134120056D01*
X34829628Y-134119421D01*
X34906936Y-134118091D01*
X34970423Y-134116028D01*
X35023767Y-134112985D01*
X35070645Y-134108714D01*
X35114735Y-134102966D01*
X35144453Y-134098182D01*
X35343548Y-134055880D01*
X35533364Y-133998783D01*
X35714251Y-133926715D01*
X35886561Y-133839501D01*
X36050645Y-133736962D01*
X36206853Y-133618922D01*
X36346849Y-133493647D01*
X36485126Y-133348473D01*
X36608013Y-133195183D01*
X36715619Y-133033558D01*
X36808053Y-132863382D01*
X36885426Y-132684437D01*
X36947847Y-132496507D01*
X36995425Y-132299374D01*
X37019512Y-132158878D01*
X37020951Y-132145683D01*
X37022271Y-132126388D01*
X37023478Y-132100326D01*
X37024575Y-132066828D01*
X37025567Y-132025227D01*
X37026459Y-131974855D01*
X37027254Y-131915044D01*
X37027957Y-131845127D01*
X37028573Y-131764436D01*
X37029106Y-131672303D01*
X37029560Y-131568060D01*
X37029940Y-131451039D01*
X37030250Y-131320573D01*
X37030494Y-131175995D01*
X37030677Y-131016635D01*
X37030803Y-130841827D01*
X37030877Y-130650903D01*
X37030903Y-130443194D01*
X37030903Y-128771628D01*
X37011368Y-128729696D01*
X36979890Y-128678580D01*
X36936342Y-128630371D01*
X36886008Y-128590283D01*
X36849045Y-128569605D01*
X36812960Y-128555149D01*
X36780016Y-128547527D01*
X36741169Y-128544867D01*
X36728939Y-128544758D01*
X36692902Y-128546287D01*
X36659695Y-128551844D01*
X36626293Y-128562751D01*
X36589674Y-128580328D01*
X36546814Y-128605894D01*
X36494687Y-128640771D01*
X36470738Y-128657503D01*
X36283094Y-128779042D01*
X36087026Y-128885435D01*
X35883537Y-128976288D01*
X35673627Y-129051207D01*
X35458300Y-129109797D01*
X35238558Y-129151663D01*
X35202700Y-129156832D01*
X35161368Y-129161769D01*
X35107158Y-129167127D01*
X35044677Y-129172514D01*
X34978534Y-129177534D01*
X34913337Y-129181795D01*
X34904447Y-129182314D01*
X34841329Y-129185991D01*
X34792948Y-129189112D01*
X34756563Y-129192119D01*
X34729435Y-129195454D01*
X34708825Y-129199557D01*
X34691991Y-129204871D01*
X34676195Y-129211837D01*
X34658696Y-129220897D01*
X34655940Y-129222366D01*
X34595285Y-129263280D01*
X34547744Y-129315061D01*
X34515718Y-129370130D01*
X34499194Y-129421529D01*
X34492179Y-129480614D01*
X34494752Y-129540689D01*
X34506991Y-129595058D01*
X34512910Y-129610045D01*
X34548060Y-129668015D01*
X34596444Y-129718227D01*
X34654610Y-129758212D01*
X34719105Y-129785502D01*
X34773889Y-129796634D01*
X34804164Y-129798003D01*
X34848511Y-129797696D01*
X34903597Y-129795907D01*
X34966091Y-129792835D01*
X35032660Y-129788676D01*
X35099970Y-129783625D01*
X35164691Y-129777881D01*
X35223489Y-129771640D01*
X35247386Y-129768688D01*
X35491992Y-129727994D01*
X35733530Y-129670185D01*
X35971153Y-129595510D01*
X36204016Y-129504219D01*
X36312938Y-129455001D01*
X36351655Y-129436844D01*
X36384267Y-129421749D01*
X36407729Y-129411111D01*
X36418998Y-129406323D01*
X36419509Y-129406190D01*
X36420300Y-129414749D01*
X36420996Y-129439652D01*
X36421600Y-129479737D01*
X36422115Y-129533843D01*
X36422544Y-129600810D01*
X36422888Y-129679475D01*
X36423152Y-129768678D01*
X36423337Y-129867258D01*
X36423447Y-129974053D01*
X36423483Y-130087901D01*
X36423450Y-130207643D01*
X36423348Y-130332117D01*
X36423182Y-130460161D01*
X36422954Y-130590614D01*
X36422667Y-130722315D01*
X36422322Y-130854103D01*
X36421924Y-130984817D01*
X36421474Y-131113295D01*
X36420976Y-131238377D01*
X36420432Y-131358901D01*
X36419845Y-131473705D01*
X36419217Y-131581629D01*
X36418552Y-131681512D01*
X36417851Y-131772191D01*
X36417118Y-131852507D01*
X36416356Y-131921298D01*
X36415566Y-131977402D01*
X36414753Y-132019659D01*
X36413918Y-132046907D01*
X36413327Y-132056380D01*
X36386922Y-132220881D01*
X36344681Y-132379800D01*
X36287423Y-132532190D01*
X36215964Y-132677106D01*
X36131123Y-132813601D01*
X36033715Y-132940729D01*
X35924558Y-133057544D01*
X35804471Y-133163101D01*
X35674270Y-133256452D01*
X35534772Y-133336652D01*
X35386794Y-133402754D01*
X35231155Y-133453813D01*
X35198839Y-133462222D01*
X35137820Y-133476868D01*
X35085096Y-133487967D01*
X35036381Y-133495990D01*
X34987387Y-133501410D01*
X34933827Y-133504699D01*
X34871414Y-133506330D01*
X34795861Y-133506776D01*
X34794618Y-133506776D01*
X34718837Y-133506344D01*
X34656261Y-133504734D01*
X34602601Y-133501473D01*
X34553570Y-133496088D01*
X34504882Y-133488107D01*
X34452249Y-133477058D01*
X34391385Y-133462467D01*
X34390397Y-133462222D01*
X34235280Y-133414729D01*
X34086247Y-133351504D01*
X33944455Y-133273598D01*
X33811063Y-133182062D01*
X33687229Y-133077949D01*
X33574111Y-132962308D01*
X33472866Y-132836192D01*
X33384653Y-132700653D01*
X33310631Y-132556740D01*
X33263339Y-132438929D01*
X33232636Y-132344803D01*
X33208697Y-132253640D01*
X33190581Y-132160517D01*
X33177350Y-132060510D01*
X33168062Y-131948697D01*
X33167254Y-131935687D01*
X33162385Y-131871428D01*
X33155682Y-131821026D01*
X33145899Y-131780845D01*
X33131788Y-131747248D01*
X33112104Y-131716595D01*
X33085601Y-131685252D01*
X33079028Y-131678216D01*
X33023236Y-131630852D01*
X32961662Y-131599032D01*
X32896577Y-131582756D01*
X32830250Y-131582024D01*
X32764950Y-131596835D01*
X32702949Y-131627190D01*
X32646515Y-131673089D01*
X32641566Y-131678216D01*
X32612445Y-131710702D01*
X32590971Y-131740108D01*
X32576023Y-131770043D01*
X32566482Y-131804116D01*
X32561230Y-131845934D01*
X32559146Y-131899106D01*
X32558971Y-131944440D01*
X31870697Y-131944440D01*
X31870434Y-131936687D01*
X31869692Y-131897009D01*
G37*
%TD*%
D11*
%TO.C,MX_Enter1*%
X292941697Y-91172947D03*
D12*
X287861697Y-91172947D03*
D13*
X299767947Y-98157947D03*
D11*
X282781697Y-91172947D03*
D12*
X299767947Y-82917947D03*
D13*
X275955447Y-98157947D03*
D12*
X275955447Y-82917947D03*
%TD*%
%TO.C,MX_Pipe1*%
X290741699Y-72128501D03*
D11*
X285661699Y-72128501D03*
X295821699Y-72128501D03*
%TD*%
D12*
%TO.C,MX_K1*%
X198721698Y-95108498D03*
D11*
X193752708Y-96164689D03*
X203690688Y-94052307D03*
%TD*%
D12*
%TO.C,MX_Back1*%
X281811698Y-53079846D03*
D11*
X276731698Y-53079846D03*
D13*
X293717948Y-46094846D03*
X269905448Y-46094846D03*
D12*
X293717948Y-61334846D03*
X269905448Y-61334846D03*
D11*
X286891698Y-53079846D03*
%TD*%
%TO.C,MX_RBrc1*%
X261841697Y-72118498D03*
X272001697Y-72118498D03*
D12*
X266921697Y-72118498D03*
%TD*%
D11*
%TO.C,MX-0*%
X209142703Y-53944691D03*
X219080683Y-51832309D03*
D12*
X214111693Y-52888500D03*
%TD*%
D11*
%TO.C,MX_U1*%
X166532709Y-82474690D03*
D12*
X171501699Y-81418499D03*
D11*
X176470689Y-80362308D03*
%TD*%
%TO.C,MX_D1*%
X75212708Y-94092306D03*
D12*
X80181698Y-95148497D03*
D11*
X85150688Y-96204688D03*
%TD*%
%TO.C,MX_N1*%
X169772705Y-120764689D03*
D12*
X174741695Y-119708498D03*
D11*
X179710685Y-118652307D03*
%TD*%
D12*
%TO.C,MX_E1*%
X79481696Y-75508498D03*
D11*
X84450686Y-76564689D03*
X74512706Y-74452307D03*
%TD*%
D12*
%TO.C,MX_M1*%
X193361698Y-115728501D03*
D11*
X188392708Y-116784692D03*
X198330688Y-114672310D03*
%TD*%
%TO.C,MX_B2*%
X151122709Y-124714690D03*
D12*
X156091699Y-123658499D03*
D11*
X161060689Y-122602308D03*
%TD*%
%TO.C,MX_Dn1*%
X-20368301Y-89028496D03*
X-10208301Y-89028496D03*
D12*
X-15288301Y-89028496D03*
%TD*%
D11*
%TO.C,MX_LFn2*%
X120652710Y-142672305D03*
D12*
X125621700Y-143728496D03*
D11*
X130590690Y-144784687D03*
%TD*%
D12*
%TO.C,MX_Caps1*%
X14901700Y-91118501D03*
D11*
X9821700Y-91118501D03*
X19981700Y-91118501D03*
%TD*%
%TO.C,MX_Esc1*%
X21031699Y-53058498D03*
D12*
X15951699Y-53058498D03*
D11*
X10871699Y-53058498D03*
%TD*%
%TO.C,MX_9*%
X190492709Y-57914691D03*
D12*
X195461699Y-56858500D03*
D11*
X200430689Y-55802309D03*
%TD*%
%TO.C,MX_Comm1*%
X216970693Y-110712306D03*
D12*
X212001703Y-111768497D03*
D11*
X207032713Y-112824688D03*
%TD*%
%TO.C,MX_LBrc1*%
X252961698Y-72098501D03*
X242801698Y-72098501D03*
D12*
X247881698Y-72098501D03*
%TD*%
D11*
%TO.C,MX_B1*%
X127770688Y-124724690D03*
D12*
X122801698Y-123668499D03*
D11*
X117832708Y-122612308D03*
%TD*%
D12*
%TO.C,MX_Z1*%
X46391696Y-110218493D03*
D11*
X51471696Y-110218493D03*
X41311696Y-110218493D03*
%TD*%
%TO.C,MX_W1*%
X55912708Y-70462305D03*
X65850688Y-72574687D03*
D12*
X60881698Y-71518496D03*
%TD*%
D11*
%TO.C,MX_Stop1*%
X227421698Y-110218500D03*
D12*
X232501698Y-110218500D03*
D11*
X237581698Y-110218500D03*
%TD*%
D12*
%TO.C,MX_R1*%
X98121698Y-79458500D03*
D11*
X93152708Y-78402309D03*
X103090688Y-80514691D03*
%TD*%
%TO.C,MX_RAlt1*%
X221780691Y-130712307D03*
X211842711Y-132824689D03*
D12*
X216811701Y-131768498D03*
%TD*%
D14*
%TO.C,USB1*%
X141255000Y-40505000D03*
X147035000Y-40505000D03*
D15*
X147370000Y-41950000D03*
X146595000Y-41950000D03*
D16*
X145895000Y-41950000D03*
X145395000Y-41950000D03*
X144895000Y-41950000D03*
X144395000Y-41950000D03*
X143895000Y-41950000D03*
X143395000Y-41950000D03*
X142895000Y-41950000D03*
X142395000Y-41950000D03*
D15*
X141695000Y-41950000D03*
X140920000Y-41950000D03*
D17*
X148465000Y-36855000D03*
D18*
X139825000Y-41035000D03*
X148465000Y-41035000D03*
D17*
X139825000Y-36855000D03*
%TD*%
D11*
%TO.C,MX_LAlt1*%
X67060690Y-132814686D03*
D12*
X62091700Y-131758495D03*
D11*
X57122710Y-130702304D03*
%TD*%
D12*
%TO.C,MX_X1*%
X66911698Y-111768500D03*
D11*
X61942708Y-110712309D03*
X71880688Y-112824691D03*
%TD*%
%TO.C,MX_RSft2*%
X282771700Y-110194754D03*
X272611700Y-110194754D03*
D12*
X277691700Y-110194754D03*
%TD*%
%TO.C,MX_Pipe2*%
X272241703Y-53079855D03*
D11*
X267161703Y-53079855D03*
X277321703Y-53079855D03*
%TD*%
D12*
%TO.C,MX_4*%
X92771698Y-58828497D03*
D11*
X87802708Y-57772306D03*
X97740688Y-59884688D03*
%TD*%
%TO.C,MX_F1*%
X103800689Y-100144691D03*
X93862709Y-98032309D03*
D12*
X98831699Y-99088500D03*
%TD*%
D11*
%TO.C,MX_RSpc1*%
X181390686Y-137772303D03*
D12*
X176421696Y-138828494D03*
D13*
X189520029Y-143185406D03*
D12*
X186351455Y-128278437D03*
X163059315Y-133229334D03*
D13*
X166227889Y-148136304D03*
D11*
X171452706Y-139884685D03*
%TD*%
%TO.C,MX_T1*%
X121730687Y-84474686D03*
D12*
X116761697Y-83418495D03*
D11*
X111792707Y-82362304D03*
%TD*%
%TO.C,MX_Slsh1*%
X256611692Y-110238499D03*
D12*
X251531692Y-110238499D03*
D11*
X246451692Y-110238499D03*
%TD*%
%TO.C,MX_Tab1*%
X11471699Y-72118501D03*
X21631699Y-72118501D03*
D12*
X16551699Y-72118501D03*
%TD*%
%TO.C,MX_RCtl1*%
X295471699Y-129308498D03*
D11*
X290391699Y-129308498D03*
X300551699Y-129308498D03*
%TD*%
D12*
%TO.C,MX_Up1*%
X-11228305Y-69968491D03*
D11*
X-16308305Y-69968491D03*
X-6148305Y-69968491D03*
%TD*%
%TO.C,MX_S1*%
X66550687Y-92214688D03*
D12*
X61581697Y-91158497D03*
D11*
X56612707Y-90102306D03*
%TD*%
D12*
%TO.C,MX_LSpc2*%
X95341698Y-137288500D03*
X85411939Y-126738443D03*
D13*
X105535505Y-146596310D03*
D11*
X100310688Y-138344691D03*
X90372708Y-136232309D03*
D13*
X82243365Y-141645412D03*
D12*
X108704079Y-131689340D03*
%TD*%
D11*
%TO.C,MX_3*%
X79110686Y-55934690D03*
D12*
X74141696Y-54878499D03*
D11*
X69172706Y-53822308D03*
%TD*%
%TO.C,MX_V1*%
X109140688Y-120754689D03*
D12*
X104171698Y-119698498D03*
D11*
X99202708Y-118642307D03*
%TD*%
D12*
%TO.C,MX_O1*%
X208751699Y-73508499D03*
D11*
X203782709Y-74564690D03*
X213720689Y-72452308D03*
%TD*%
D12*
%TO.C,MX_Dash1*%
X234631700Y-50908501D03*
D11*
X229551700Y-50908501D03*
X239711700Y-50908501D03*
%TD*%
%TO.C,MX_Eql1*%
X258321698Y-53048496D03*
D12*
X253241698Y-53048496D03*
D11*
X248161698Y-53048496D03*
%TD*%
%TO.C,MX_Scln1*%
X232781699Y-91158492D03*
X242941699Y-91158492D03*
D12*
X237861699Y-91158492D03*
%TD*%
%TO.C,MX_2*%
X53641700Y-50913843D03*
D11*
X48561700Y-50913843D03*
X58721700Y-50913843D03*
%TD*%
D12*
%TO.C,MX_LSpc1*%
X111004081Y-132179344D03*
D11*
X92672710Y-136722313D03*
D12*
X87711941Y-127228447D03*
X97641700Y-137778504D03*
D13*
X107835507Y-147086314D03*
D11*
X102610690Y-138834695D03*
D13*
X84543367Y-142135416D03*
%TD*%
D11*
%TO.C,MX_Q1*%
X45431697Y-72118500D03*
X35271697Y-72118500D03*
D12*
X40351697Y-72118500D03*
%TD*%
D11*
%TO.C,MX_I1*%
X195100690Y-76412305D03*
X185162710Y-78524687D03*
D12*
X190131700Y-77468496D03*
%TD*%
%TO.C,MX_Caps2*%
X10111698Y-91148494D03*
D11*
X5031698Y-91148494D03*
X15191698Y-91148494D03*
%TD*%
%TO.C,MX_5*%
X116360688Y-63854691D03*
D12*
X111391698Y-62798500D03*
D11*
X106422708Y-61742309D03*
%TD*%
D12*
%TO.C,MX_8*%
X176831698Y-60838497D03*
D11*
X171862708Y-61894688D03*
X181800688Y-59782306D03*
%TD*%
%TO.C,MX_Quot1*%
X251831699Y-91158498D03*
X261991699Y-91158498D03*
D12*
X256911699Y-91158498D03*
%TD*%
D11*
%TO.C,MX_C1*%
X90510688Y-116784687D03*
D12*
X85541698Y-115728496D03*
D11*
X80572708Y-114672305D03*
%TD*%
%TO.C,MX_6*%
X135020689Y-67814690D03*
D12*
X130051699Y-66758499D03*
D11*
X125082709Y-65702308D03*
%TD*%
%TO.C,MX_A1*%
X35981696Y-91174744D03*
X46141696Y-91174744D03*
D12*
X41061696Y-91174744D03*
%TD*%
D11*
%TO.C,MX_Back2*%
X296451699Y-53079846D03*
D12*
X291371699Y-53079846D03*
D11*
X286291699Y-53079846D03*
%TD*%
D12*
%TO.C,MX_H1*%
X161451700Y-103058500D03*
D11*
X166420690Y-102002309D03*
X156482710Y-104114691D03*
%TD*%
%TO.C,MX_Y1*%
X147882708Y-86444690D03*
D12*
X152851698Y-85388499D03*
D11*
X157820688Y-84332308D03*
%TD*%
%TO.C,MX_7*%
X153252708Y-65834687D03*
X163190688Y-63722305D03*
D12*
X158221698Y-64778496D03*
%TD*%
D11*
%TO.C,MX_P1*%
X234311697Y-71058496D03*
D12*
X229231697Y-71058496D03*
D11*
X224151697Y-71058496D03*
%TD*%
D12*
%TO.C,MX_Fn1*%
X304001698Y-110194748D03*
D11*
X298921698Y-110194748D03*
X309081698Y-110194748D03*
%TD*%
D13*
%TO.C,MX_RSft1*%
X275355446Y-103209746D03*
D12*
X275355446Y-118449746D03*
X299167946Y-118449746D03*
D13*
X299167946Y-103209746D03*
D11*
X292341696Y-110194746D03*
D12*
X287261696Y-110194746D03*
D11*
X282181696Y-110194746D03*
%TD*%
%TO.C,MX_G1*%
X112492703Y-101982307D03*
D12*
X117461693Y-103038498D03*
D11*
X122430683Y-104094689D03*
%TD*%
%TO.C,MX_LCtl1*%
X3251699Y-129278499D03*
X13411699Y-129278499D03*
D12*
X8331699Y-129278499D03*
%TD*%
D11*
%TO.C,MX_L1*%
X222340684Y-90082307D03*
X212402704Y-92194689D03*
D12*
X217371694Y-91138498D03*
%TD*%
%TO.C,MX_LSft1*%
X15461698Y-110214050D03*
D13*
X27367948Y-103229050D03*
D11*
X20541698Y-110214050D03*
X10381698Y-110214050D03*
D12*
X3555448Y-118469050D03*
X27367948Y-118469050D03*
D13*
X3555448Y-103229050D03*
%TD*%
D11*
%TO.C,MX_Del1*%
X-12143389Y-50929850D03*
D12*
X-7063389Y-50929850D03*
D11*
X-1983389Y-50929850D03*
%TD*%
%TO.C,MX_1*%
X40061698Y-53058499D03*
D12*
X34981698Y-53058499D03*
D11*
X29901698Y-53058499D03*
%TD*%
D12*
%TO.C,MX_J1*%
X180091699Y-99098498D03*
D11*
X185060689Y-98042307D03*
X175122709Y-100154689D03*
%TD*%
%TO.C,MX_LFn1*%
X132930685Y-145284693D03*
X122992705Y-143172311D03*
D12*
X127961695Y-144228502D03*
%TD*%
D19*
%TO.C,BOOT1*%
X152741697Y-112763493D03*
X149741697Y-112763493D03*
%TD*%
D20*
%TO.C,J_SWD1*%
X144526702Y-123197247D03*
D21*
X144526702Y-120657247D03*
X141986702Y-123197247D03*
X141986702Y-120657247D03*
X139446702Y-123197247D03*
X139446702Y-120657247D03*
X136906702Y-123197247D03*
X136906702Y-120657247D03*
X134366702Y-123197247D03*
X134366702Y-120657247D03*
%TD*%
D20*
%TO.C,J_RGB1*%
X129711701Y-86648499D03*
D21*
X129711701Y-89188499D03*
X129711701Y-91728499D03*
%TD*%
M02*
